<svg xmlns="http://www.w3.org/2000/svg" width="260" height="108" fill="none"><g clip-path="url(#a)"><path fill="#fff" d="M86.127 89.84h-9.502c0 10.378 6.477 18.16 15.551 18.16h35.419v-9.512H93.041c-4.146 0-6.91-3.98-6.91-8.647h-.004ZM32.17 54.274a23.157 23.157 0 0 0-16.42-6.807H0v9.588h15.75c3.785 0 7.166 1.521 9.65 4.003a13.604 13.604 0 0 1 3.998 9.66v37.288h9.577V70.717a23.23 23.23 0 0 0-6.8-16.439l-.004-.005Zm7.478 2.705h25.485v-9.512H39.65v9.512Zm36.976 0v9.945c0 9.08 6.477 15.569 15.551 15.569h29.369a6.014 6.014 0 0 1 6.05 6.056v9.945h9.502v-9.945c0-9.17-6.392-15.569-15.552-15.569H92.176c-3.28 0-6.05-2.68-6.05-6.056v-9.945h-9.5Zm132.434 41.51V70.712a23.23 23.23 0 0 0-6.8-16.439 23.157 23.157 0 0 0-16.42-6.807h-27.745v9.512h-9.502v51.027h50.97v-9.512h-41.463V57.054h27.745c3.784 0 7.165 1.521 9.649 4.003a13.608 13.608 0 0 1 3.998 9.66v27.776h9.573l-.005-.005Zm-81.464-32.863h9.502c0-10.463-6.392-18.164-15.552-18.164H86.127v9.513h34.554c4.231 0 6.909 3.978 6.909 8.647l.005.004Z"/><path fill="#D64752" d="M247.255 25.523c-7.037 0-12.745 5.714-12.745 12.759h12.745v-12.76Zm6.373 0a6.377 6.377 0 0 0-6.373 6.38 6.377 6.377 0 0 0 6.373 6.379 6.377 6.377 0 0 0 6.372-6.38 6.377 6.377 0 0 0-6.372-6.38Z"/><path fill="#DDC666" d="M202.639 25.523a6.376 6.376 0 0 0-6.372 6.38 6.376 6.376 0 0 0 6.372 6.379 6.376 6.376 0 0 0 6.372-6.38 6.376 6.376 0 0 0-6.372-6.38Zm6.372 0v12.759c7.038 0 12.745-5.714 12.745-12.76h-12.745Z"/><path fill="#EF8C70" d="M221.761 57.425a6.377 6.377 0 0 0 6.372 6.38 6.377 6.377 0 0 0 6.373-6.38 6.377 6.377 0 0 0-6.373-6.38 6.377 6.377 0 0 0-6.372 6.38Zm12.745-6.38c0-7.044-5.708-12.759-12.745-12.759v12.76h12.745Z"/><path fill="#3187AD" d="M228.133 12.759a6.377 6.377 0 0 0 6.373-6.38A6.377 6.377 0 0 0 228.133 0a6.377 6.377 0 0 0-6.372 6.38 6.377 6.377 0 0 0 6.372 6.379Zm-6.372 0c0 7.045 5.708 12.759 12.745 12.759V12.759h-12.745Z"/></g><defs><clipPath id="a"><path fill="#fff" d="M0 0h260v108H0z"/></clipPath></defs></svg>