<svg xmlns="http://www.w3.org/2000/svg" width="40" height="40"><path fill="#fff" d="M20 3.333c6.443 0 11.667 5.224 11.667 11.667 0 .19-.005.377-.014.564 3.891 1.37 6.68 5.077 6.68 9.436 0 5.523-4.477 10-10 10H11.667c-5.523 0-10-4.477-10-10 0-4.359 2.789-8.067 6.68-9.436A11.864 11.864 0 0 1 8.333 15C8.333 8.557 13.557 3.334 20 3.334Zm0 3.334a8.333 8.333 0 0 0-8.324 8.739l.118 2.479-2.34.824A6.67 6.67 0 0 0 5 25a6.667 6.667 0 0 0 6.667 6.667h16.666a6.667 6.667 0 1 0-6.326-8.776l-3.163-1.054C20.168 17.864 23.917 15 28.334 15A8.333 8.333 0 0 0 20 6.667Z"/></svg>