<svg xmlns="http://www.w3.org/2000/svg" width="40" height="40" fill="none"><path fill="#fff" d="M20 23.334v3.333c-5.523 0-10 4.477-10 10H6.667c0-7.364 5.97-13.333 13.333-13.333Zm0-1.667c-5.525 0-10-4.475-10-10s4.475-10 10-10 10 4.475 10 10-4.475 10-10 10Zm0-3.333a6.665 6.665 0 0 0 6.667-6.667A6.665 6.665 0 0 0 20 5a6.665 6.665 0 0 0-6.667 6.667A6.665 6.665 0 0 0 20 18.334Zm4.324 13.019a5.84 5.84 0 0 1 0-2.705l-1.652-.954 1.666-2.887 1.654.955a5.83 5.83 0 0 1 2.341-1.354V22.5h3.334v1.909a5.83 5.83 0 0 1 2.34 1.353l1.655-.955 1.667 2.887-1.653.954a5.854 5.854 0 0 1 0 2.705l1.653.954-1.667 2.887-1.654-.955a5.826 5.826 0 0 1-2.341 1.353V37.5h-3.333v-1.908a5.825 5.825 0 0 1-2.342-1.353l-1.654.955-1.666-2.887 1.652-.954ZM30 32.5a2.5 2.5 0 1 0 0-5 2.5 2.5 0 0 0 0 5Z"/></svg>