<svg xmlns="http://www.w3.org/2000/svg" width="40" height="40"><path fill="#fff" d="M20 18.333a8.333 8.333 0 0 1 8.333 8.333v10H25v-10a5 5 0 0 0-4.706-4.991L20 21.666a5 5 0 0 0-4.992 4.706l-.008.294v10h-3.333v-10A8.333 8.333 0 0 1 20 18.333Zm-10.833 5c.464 0 .916.054 1.35.157a9.91 9.91 0 0 0-.502 2.625l-.015.551.001.143a2.489 2.489 0 0 0-.594-.131l-.24-.012a2.5 2.5 0 0 0-2.489 2.26l-.011.24v7.5H3.333v-7.5a5.833 5.833 0 0 1 5.834-5.833Zm21.666 0a5.833 5.833 0 0 1 5.834 5.833v7.5h-3.334v-7.5a2.5 2.5 0 0 0-2.259-2.488l-.24-.012c-.293 0-.573.05-.834.142v-.142a9.99 9.99 0 0 0-.514-3.174c.43-.105.882-.159 1.347-.159Zm-21.666-10a4.167 4.167 0 1 1 0 8.333 4.167 4.167 0 0 1 0-8.333Zm21.666 0a4.167 4.167 0 1 1 0 8.333 4.167 4.167 0 0 1 0-8.333ZM9.167 16.666a.833.833 0 1 0 0 1.667.833.833 0 0 0 0-1.667Zm21.666 0a.833.833 0 1 0 0 1.667.833.833 0 0 0 0-1.667ZM20 3.333a6.667 6.667 0 1 1 0 13.333 6.667 6.667 0 0 1 0-13.333Zm0 3.333a3.333 3.333 0 1 0 0 6.667 3.333 3.333 0 0 0 0-6.667Z"/></svg>