<svg xmlns="http://www.w3.org/2000/svg" width="40" height="40"><path fill="#fff" d="m21.994 3.78 5.416 9.382c.46.797.187 1.816-.61 2.277l-2.166 1.248 1.668 2.889-2.887 1.666-1.668-2.888-2.164 1.251a1.666 1.666 0 0 1-2.276-.61l-3.063-5.304a8.337 8.337 0 0 0-5.37 10.935 8.292 8.292 0 0 1 4.46-1.293 8.323 8.323 0 0 1 6.799 3.515l12.814-7.397 1.666 2.886-13.13 7.581a8.372 8.372 0 0 1 .017 3.416H35v3.333l-28.332.002A8.296 8.296 0 0 1 5 31.667c0-1.679.496-3.242 1.35-4.55A11.596 11.596 0 0 1 5 21.667c0-4.992 3.136-9.252 7.545-10.918l-.655-1.136a3.333 3.333 0 0 1 1.22-4.553l4.33-2.5a3.333 3.333 0 0 1 4.554 1.22Zm-8.66 22.887a5 5 0 0 0-4.716 6.666h9.43a5 5 0 0 0-4.716-6.667Zm5.773-21.22-4.33 2.5 4.583 7.938 4.33-2.5-4.583-7.938Z"/></svg>