<svg xmlns="http://www.w3.org/2000/svg" width="40" height="40"><path fill="#fff" d="M11.75 23.536 8.216 27.07l4.714 4.714L31.785 12.93l-4.714-4.714-3.535 3.536 2.357 2.357-2.357 2.357-2.357-2.357-2.357 2.357 2.357 2.357-2.357 2.357-2.357-2.357-2.357 2.357 2.357 2.357-2.357 2.357-2.357-2.357ZM28.25 4.68l7.07 7.07c.652.652.652 1.707 0 2.358L14.109 35.32c-.651.65-1.707.65-2.357 0L4.68 28.25a1.667 1.667 0 0 1 0-2.357L25.893 4.68c.65-.651 1.706-.651 2.357 0Zm-4.714 25.926 2.357-2.357 3.737 3.738h2.357V29.63l-3.737-3.738 2.357-2.357L35 27.928V35h-7.07l-4.394-4.394ZM9.393 16.464 4.68 11.75a1.667 1.667 0 0 1 0-2.357l4.714-4.714c.651-.651 1.707-.651 2.357 0l4.714 4.714-2.357 2.357-3.535-3.536-2.357 2.357 3.535 3.536-2.357 2.357Z"/></svg>