<svg xmlns="http://www.w3.org/2000/svg" width="40" height="40"><path fill="#fff" d="M13.333 6.667a3.333 3.333 0 1 1-6.666 0 3.333 3.333 0 0 1 6.666 0Zm-5 20v10H5v-20a5 5 0 0 1 8.51-3.561l3.957 3.737 3.855-3.855 2.357 2.357-6.145 6.146L15 19.098v17.569h-3.333v-10H8.333ZM10 15c-.92 0-1.667.746-1.667 1.667v6.666h3.334v-6.666c0-.92-.746-1.667-1.667-1.667Zm21.667-6.666h-15V5h16.666C34.253 5 35 5.746 35 6.667V25c0 .92-.746 1.667-1.667 1.667h-5.707l4.706 10h-3.684l-4.706-10h-7.275v-3.334h15v-15Z"/></svg>