<svg xmlns="http://www.w3.org/2000/svg" width="40" height="40"><path fill="#fff" d="M13.333 12.5H8.967A13.344 13.344 0 0 1 20 6.667c7.367 0 13.333 5.966 13.333 13.333h3.334C36.667 10.8 29.2 3.334 20 3.334 14.55 3.334 9.7 5.95 6.667 10V5.833H3.333v10h10V12.5Zm13.334 15h4.366A13.345 13.345 0 0 1 20 33.334c-7.367 0-13.333-5.967-13.333-13.334H3.333c0 9.2 7.467 16.667 16.667 16.667 5.45 0 10.3-2.617 13.333-6.667v4.167h3.334v-10h-10V27.5Zm.933-5.833v-3.334h-2.583A5.197 5.197 0 0 0 23.95 16.5l1.3-2.233-2.883-1.667-1.284 2.217c-.35-.067-.7-.117-1.066-.117-.367 0-.734.034-1.067.117L17.667 12.6l-2.884 1.667 1.3 2.233a5.462 5.462 0 0 0-1.066 1.834h-2.584v3.333h2.584c.233.683.583 1.3 1.066 1.833l-1.3 2.233 2.884 1.667 1.283-2.216c.35.066.7.116 1.067.116.366 0 .733-.033 1.066-.117l1.284 2.217 2.883-1.666-1.3-2.234a5.463 5.463 0 0 0 1.067-1.833H27.6Zm-7.6.3A1.97 1.97 0 0 1 18.033 20 1.97 1.97 0 0 1 20 18.034 1.97 1.97 0 0 1 21.967 20 1.97 1.97 0 0 1 20 21.967Z"/></svg>