<svg xmlns="http://www.w3.org/2000/svg" width="24" height="24" fill="none"><path fill="#1F3049" d="M22.85 10.99c-.71-1.21-2.02-1.89-3.34-1.8V4.5h-4.69c.08-1.33-.59-2.63-1.8-3.34-1.09-.64-2.5-.64-3.59 0a3.634 3.634 0 0 0-1.8 3.34h-4.7v5.67a1.206 1.206 0 0 0 1.65 1.12c.61-.23 1.49-.11 1.98.71a1.6 1.6 0 0 1-1.98 2.27c-.38-.14-.8-.09-1.13.13-.32.22-.52.59-.52.99v5.67H8.6a1.206 1.206 0 0 0 1.12-1.65c-.23-.61-.11-1.49.71-1.98a1.6 1.6 0 0 1 2.27 1.98c-.14.38-.09.8.13 1.13.22.32.59.52.99.52h5.67v-4.69c1.33.08 2.63-.59 3.34-1.8.64-1.09.64-2.5 0-3.59l.02.01Zm-1.72 2.57a1.6 1.6 0 0 1-1.98.71c-.38-.14-.8-.09-1.13.13-.32.22-.52.59-.52.99v3.67h-2.69c.08-1.33-.59-2.63-1.8-3.34-1.09-.64-2.5-.64-3.59 0a3.634 3.634 0 0 0-1.8 3.34H4.93v-2.69c1.33.08 2.63-.59 3.34-1.8.64-1.09.64-2.5 0-3.59-.71-1.21-2.02-1.89-3.34-1.8V6.49H8.6a1.206 1.206 0 0 0 1.12-1.65c-.23-.61-.11-1.49.71-1.98a1.6 1.6 0 0 1 2.27 1.98c-.14.38-.09.8.13 1.13.22.32.59.52.99.52h3.67v3.67a1.206 1.206 0 0 0 1.65 1.12c.61-.23 1.49-.11 1.98.71.27.47.27 1.09 0 1.56l.01.01Z"/></svg>