<svg xmlns="http://www.w3.org/2000/svg" width="63" height="63"><g clip-path="url(#a)"><path fill="#1F3049" d="M14 28c7.73 0 14-6.27 14-14S21.73 0 14 0 0 6.27 0 14s6.27 14 14 14ZM0 28c0 15.46 12.54 28 28 28V28H0Z"/></g><g clip-path="url(#b)"><path fill="#1F3049" d="M49 28c7.73 0 14-6.27 14-14S56.73 0 49 0 35 6.27 35 14s6.27 14 14 14Zm-14 0c0 15.46 12.54 28 28 28V28H35Z"/></g><defs><clipPath id="a"><path fill="#fff" d="M0 0h28v56H0z"/></clipPath><clipPath id="b"><path fill="#fff" d="M35 0h28v56H35z"/></clipPath></defs></svg>