<svg xmlns="http://www.w3.org/2000/svg" width="24" height="24" fill="none"><path fill="#1F3049" d="M8 7.5H5.38A8.007 8.007 0 0 1 12 4c4.42 0 8 3.58 8 8h2c0-5.52-4.48-10-10-10-3.27 0-6.18 1.57-8 4V3.5H2v6h6v-2Zm8 9h2.62A8.007 8.007 0 0 1 12 20c-4.42 0-8-3.58-8-8H2c0 5.52 4.48 10 10 10 3.27 0 6.18-1.57 8-4v2.5h2v-6h-6v2Zm.56-3.5v-2h-1.55a3.12 3.12 0 0 0-.64-1.1l.78-1.34-1.73-1-.77 1.33a3.39 3.39 0 0 0-.64-.07c-.22 0-.44.02-.64.07l-.77-1.33-1.73 1 .78 1.34c-.28.32-.5.69-.64 1.1H7.46v2h1.55c.14.41.35.78.64 1.1l-.78 1.34 1.73 1 .77-1.33c.21.04.42.07.64.07.22 0 .44-.02.64-.07l.77 1.33 1.73-1-.78-1.34c.28-.32.5-.69.64-1.1h1.55Zm-4.56.18c-.65 0-1.18-.53-1.18-1.18 0-.65.53-1.18 1.18-1.18.65 0 1.18.53 1.18 1.18 0 .65-.53 1.18-1.18 1.18Z"/></svg>