<svg xmlns="http://www.w3.org/2000/svg" width="128" height="128" fill="none"><path fill="#3187AD" d="M9.81 88.63c0 4.06 3.32 7.38 7.38 7.38h93.63c4.06 0 7.38-3.32 7.38-7.38V35.29H9.81v53.34Z"/><path fill="#EF8C70" d="M118.19 31.24c0-4.06-3.32-7.38-7.38-7.38H17.19c-4.06 0-7.38 3.32-7.38 7.38v1.45h108.38v-1.45Z"/><path fill="#D64752" d="M83.42 100.74H44.59v3.4h38.83v-3.4Z"/><path fill="#EAD3D9" d="m25.41 45.86-3.37 1.49 3.37 1.49v2.41l-5.82-2.81v-2.18l5.82-2.81v2.41ZM32.89 39.84h2.43L28.7 54.72h-2.43l6.62-14.88ZM41.99 46.26v2.18l-5.82 2.81v-2.41l3.38-1.49-3.38-1.49v-2.41l5.82 2.81ZM46.87 48.96h9.89v-2.6h-9.89M59.14 48.96h49.27v-2.6H59.14M46.87 53.54h17.22v-2.6H46.87M66.65 53.54H73v-2.6h-6.35M75.56 53.54h9.4v-2.6h-9.4M87.77 53.54h20.64v-2.6H87.77M19.95 60.4h5.03v-2.6h-5.03M26.19 60.4h25.08v-2.6H26.19M19.95 64.99h8.76v-2.61h-8.76M30.02 64.99h3.23v-2.61h-3.23M34.55 64.99h4.79v-2.61h-4.79M40.76 64.99h10.51v-2.61H40.76M19.95 69.47h5.03v-2.6h-5.03"/><path fill="#EAD3D9" d="M23.56 69.47h14.52v-2.6H23.56M19.95 74.06h5.07v-2.61h-5.07M25.78 74.06h1.87v-2.61h-1.87M28.4 74.06h2.77v-2.61H28.4M32 74.06h6.08v-2.61H32M39.34 69.47h11.93v-2.6H39.34M39.34 74.06h4.48v-2.61h-4.48M45.3 74.06h5.97v-2.61H45.3M108.41 89.66v-1.3H60.44V60.4h46.67v29.26h1.3v-1.3 1.3h1.3V57.8H57.84v33.16h51.87v-1.3h-1.3Z"/></svg>