<svg xmlns="http://www.w3.org/2000/svg" width="128" height="128" fill="none"><path fill="#3187AD" d="M9.81 88.63c0 4.06 3.32 7.38 7.38 7.38h93.63c4.06 0 7.38-3.32 7.38-7.38V35.29H9.81v53.34Z"/><path fill="#EF8C70" d="M118.19 31.24c0-4.06-3.32-7.38-7.38-7.38H17.19c-4.06 0-7.38 3.32-7.38 7.38v1.45h108.38v-1.45Z"/><path fill="#D64752" d="M83.42 100.74H44.59v3.4h38.83v-3.4Z"/><path fill="#EAD3D9" d="M96.26 55.31H72.75l-.9-3.36c-.26-.78-.9-1.29-1.68-1.29h-4.91c-1.03 0-1.81.78-1.81 1.81s.78 1.81 1.81 1.81h3.49l4.39 17.31c.26.78.9 1.29 1.68 1.29h17.96c.78 0 1.55-.52 1.68-1.29l3.49-14.08c.13-.52 0-1.03-.39-1.55-.26-.39-.78-.65-1.29-.65h-.01ZM80.5 77.53c0 1.71-1.39 3.1-3.1 3.1-1.71 0-3.1-1.39-3.1-3.1 0-1.71 1.39-3.1 3.1-3.1 1.71 0 3.1 1.39 3.1 3.1ZM92.64 77.53c0 1.71-1.39 3.1-3.1 3.1-1.71 0-3.1-1.39-3.1-3.1 0-1.71 1.39-3.1 3.1-3.1 1.71 0 3.1 1.39 3.1 3.1Z"/><path fill="#DDC666" d="M43.13 79.95v3.08h-2.45v-3.08c-6.12-.54-10.67-4.89-10.67-10.52h7.78c0 1.71 1.18 3.13 2.89 3.62V66.1l-.59-.15c-4.89-1.27-9.59-4.16-9.59-10.48 0-5.29 4.31-9.4 10.18-9.89v-3.13h2.45v3.13c5.87.54 10.18 4.7 10.18 10.08h-7.78c0-1.47-.98-2.69-2.4-3.18v6.56c.24.1.44.15.69.2 5.09 1.37 9.99 3.87 9.99 10.48 0 5.48-4.55 9.74-10.67 10.23h-.01Zm-2.45-21.78v-5.73c-1.42.34-2.4 1.42-2.4 2.69 0 1.37.93 2.3 2.4 3.03v.01Zm5.34 11.99c0-1.47-1.13-2.45-2.89-3.23v6.22c1.66-.39 2.89-1.57 2.89-2.99Z"/></svg>