<svg xmlns="http://www.w3.org/2000/svg" width="128" height="128" fill="none"><path fill="#EF8C70" d="M110.45 60.49c-.94-.59-2.06-.92-3.21-.94-1.69-.02-3.47.61-4.9 1.98-2 1.92-4.65 4.64-7.31 6.85-2.66 2.21-5.45 3.72-6.74 3.72-3.23 0-6.73-.04-9.8-.08.26-.45.46-.93.56-1.47.32-1.66-.64-3.57-2.44-4.58-1.79-1.01-4.36-1.54-8.11-1.58-4.64-.06-7.48-1.63-10.47-3.24-2.52-1.36-5.25-2.78-8.75-2.76-.65 0-1.33.07-2.03.19-5.28.84-7.5 2-9.26 2.7-1.24.5-10.05 2.56-12.34 2.64v28.53c9.78.84 26.75 2.05 37.92 1.86 6.14-.1 10.66.12 14.56-.21 3.9-.33 7.24-1.3 10.49-3.67 6.29-4.58 12.79-12.06 22-21.92 1.34-1.43 2.04-2.97 1.95-4.5-.08-1.53-.99-2.81-2.14-3.53l.02.01Z"/><path fill="#EAD3D9" d="M22.61 61.85h-7.2v32.5h7.2v-32.5Z"/><path fill="#DDC666" d="M100.46 51.66c0 7.79-6.32 14.11-14.11 14.11-7.79 0-14.11-6.32-14.11-14.11 0-7.79 6.32-14.11 14.11-14.11 7.79 0 14.11 6.32 14.11 14.11Z"/><path fill="#3187AD" d="M104.53 19.66s-16.02 3.44-8.14 17.89c16.07-3.55 8.14-17.89 8.14-17.89Z"/></svg>