<svg xmlns="http://www.w3.org/2000/svg" width="128" height="128" fill="none"><path fill="#D64752" d="M67.02 25.39 31.03 55.13l11.13 26.99 46.5-4.28c8.51-20.46-1.18-43.94-21.64-52.45Z"/><path fill="#3187AD" d="m34.15 75.34-7.27-17.63c-7.04 2.91-10.4 10.97-7.49 18.01 2.19 5.3 7.3 8.51 12.7 8.53l-2.44-5.92-.4-.97.97-.4 3.94-1.63-.01.01Z"/><path fill="#DDC666" d="m37.96 84.58-2.85-6.9-2.57 1.06 2.59 6.27.88 2.15-1.89.78 9.94 24.09 1.89-.78 2.57-1.06 1.9-.78-9.94-24.1-1.9.78-.62-1.51Z"/><path fill="#EAD3D9" d="m110.358 36.331-12.923 5.332 1.693 4.104 12.923-5.332-1.693-4.104ZM92.704 15.992l-5.368 12.909 4.1 1.704 5.367-12.908-4.1-1.705ZM102.673 57.849l-1.705 4.1 12.909 5.367 1.704-4.1-12.908-5.367Z"/></svg>