<svg xmlns="http://www.w3.org/2000/svg" width="128" height="128" fill="none"><path fill="#EAD3D9" d="M64 28.3c-15.64 0-28.31 12.68-28.31 28.31v40.4h56.62v-40.4C92.31 40.97 79.64 28.3 64 28.3Z"/><path fill="#D64752" d="M56.62 84.59c0-4.17 3.18-7.35 7.42-7.35s7.35 3.18 7.35 7.35-3.18 7.27-7.35 7.27-7.42-3.1-7.42-7.27Zm1.59-35.33V36.39h11.66v12.87l-.68 21.96h-10.3l-.68-21.96Z"/><path fill="#DDC666" d="M62.27 22.64h.69l2.76.01h.69l.01-11.53-4.82-.01-.01 11.53h.68ZM78.34 26.61l8.16-8.15-3.4-3.41-8.16 8.15.97.97 1.95 1.95.48.49ZM50.61 25.61l1.47-1.46.97-.97-8.14-8.17-3.41 3.41 8.14 8.16.97-.97Z"/><path fill="#3187AD" d="M97.26 103.15H30.75v7.73h66.51v-7.73Z"/></svg>