<svg xmlns="http://www.w3.org/2000/svg" width="128" height="128" fill="none"><path fill="#EF8C70" d="M87.16 100.71V73.46h27.25c0 15.05-12.2 27.25-27.25 27.25Z"/><path fill="#D64752" d="M87.16 59.84c0 7.52 6.1 13.62 13.62 13.62s13.62-6.1 13.62-13.62-6.1-13.62-13.62-13.62-13.62 6.1-13.62 13.62Z"/><path fill="#EAD3D9" d="M40.84 100.71V73.46H13.59c0 15.05 12.2 27.25 27.25 27.25Z"/><path fill="#3187AD" d="M40.84 59.84c0 7.52-6.1 13.62-13.62 13.62S13.6 67.36 13.6 59.84s6.1-13.62 13.62-13.62 13.62 6.1 13.62 13.62Z"/><path fill="#DDC666" d="M65.22 56.79v3.08h-2.45v-3.08c-6.12-.54-10.67-4.89-10.67-10.52h7.78c0 1.71 1.18 3.13 2.89 3.62v-6.95l-.59-.15c-4.89-1.27-9.59-4.16-9.59-10.48 0-5.29 4.31-9.4 10.18-9.89v-3.13h2.45v3.13c5.87.54 10.18 4.7 10.18 10.08h-7.78c0-1.47-.98-2.69-2.4-3.18v6.56c.24.1.44.15.69.2 5.09 1.37 9.99 3.87 9.99 10.48 0 5.48-4.55 9.74-10.67 10.23h-.01Zm-2.45-21.78v-5.73c-1.42.34-2.4 1.42-2.4 2.69 0 1.37.93 2.3 2.4 3.03v.01ZM68.11 47c0-1.47-1.13-2.45-2.89-3.23v6.22c1.66-.39 2.89-1.57 2.89-2.99Z"/></svg>