<svg xmlns="http://www.w3.org/2000/svg" width="128" height="128" fill="none"><path fill="#DDC666" d="M73.69 95.42c-7.46-3.89-12.42-10.71-12.42-18.49 0-12.1 11.97-21.9 26.74-21.9 14.77 0 26.74 9.81 26.74 21.9 0 12.09-11.97 21.9-26.74 21.9-2.74 0-5.37-.34-7.86-.96-2.28 3.38-6.46 6.6-14.12 6.6 0 0 5.58-2.43 7.66-9.05Z"/><path fill="#D64752" d="M102.08 82.7a4.65 4.65 0 1 0 0-9.3 4.65 4.65 0 0 0 0 9.3ZM88.01 82.38a4.65 4.65 0 1 0 0-9.3 4.65 4.65 0 0 0 0 9.3ZM73.95 82.38a4.65 4.65 0 1 0 0-9.3 4.65 4.65 0 0 0 0 9.3Z"/><path fill="#3187AD" d="M69.65 56.72c7.46-3.89 12.42-10.71 12.42-18.49 0-12.1-11.97-21.9-26.74-21.9-14.77 0-26.74 9.81-26.74 21.9 0 12.09 11.97 21.9 26.74 21.9 2.74 0 5.37-.34 7.86-.96 2.28 3.38 6.46 6.6 14.12 6.6 0 0-5.58-2.43-7.66-9.05Z"/><path fill="#EAD3D9" d="M66.07 34.99c-.3-5.87-4.97-6.82-7.49-5.98-1.28.43-2.42 1.58-3.25 2.66-.83-1.08-1.97-2.23-3.25-2.66-2.52-.84-7.2.11-7.49 5.98-.19 3.65 1.87 6.96 9.29 11.54.47.29.95.58 1.46.88.51-.3.99-.59 1.46-.88 7.41-4.58 9.47-7.89 9.29-11.54h-.02Z"/><path fill="#EF8C70" d="M54.31 102.62c7.46-3.89 12.42-10.71 12.42-18.49 0-12.1-11.97-21.9-26.74-21.9-14.77 0-26.74 9.81-26.74 21.9 0 12.09 11.97 21.9 26.74 21.9 2.74 0 5.37-.34 7.86-.96 2.28 3.38 6.46 6.6 14.12 6.6 0 0-5.58-2.43-7.66-9.05Z"/><path fill="#1F3049" d="M51.43 79.5c-.53-.57-1.34-.84-1.88-.84H42.78c.3-1.02.53-2.88.07-5.27-.25-1.29-1.05-2.13-2.04-2.13h-.03c-.88.02-1.66.69-1.74 1.51-.07.68-.24 1.67-.4 2.35-.46 1.94-2.83 4.48-4.52 5.62-.13-.49-.57-.84-1.1-.84h-3.91c-.63 0-1.13.51-1.13 1.13v11.01c0 .63.51 1.13 1.13 1.13h3.91c.44 0 .83-.26 1.02-.63 1.04.52 2.21.77 3.56.77h.22c.72-.01 1.95-.02 3.76-.02H47.45c1.09 0 1.95-.59 2.35-1.6.32-.81.08-1.46-.29-1.9.51-.18 1.09-.56 1.31-1.41.2-.8-.08-1.41-.46-1.81.54-.19.98-.54 1.18-1.28.22-.83-.08-1.6-.81-2.15.55-.28 1.18-.82 1.27-1.88.06-.69-.13-1.31-.55-1.77l-.02.01Z"/></svg>