<svg xmlns="http://www.w3.org/2000/svg" width="128" height="128" fill="none"><path fill="#DDC666" d="M91.64 50.08c0 15.27-12.37 27.64-27.64 27.64-15.27 0-27.64-12.37-27.64-27.64 0-15.27 12.37-27.64 27.64-27.64 15.27 0 27.64 12.37 27.64 27.64Z"/><path fill="#EF8C70" d="M51.02 84.88h25.96v-4.19H51.02M51.02 91.41h25.96v-4.19H51.02M51.02 97.94h25.96v-4.19H51.02"/><path fill="#3187AD" d="M64 105.56c4.29 0 8.05-2.22 10.22-5.57H53.78c2.17 3.35 5.93 5.57 10.22 5.57Z"/><path fill="#D64752" d="M26.15 52.02v-3.86l.01-.77-12.91-.01v5.39l12.9.01v-.76ZM30.59 34.03l-9.12-9.13-3.81 3.81 9.11 9.13 1.09-1.08 2.19-2.18.54-.55ZM29.47 65.06l-1.64-1.64-1.08-1.09-9.14 9.12 3.81 3.82 9.14-9.12-1.09-1.09ZM101.85 48.15v3.86l-.01.77 12.91.01v-5.4l-12.9-.01v.77ZM97.41 66.13l9.12 9.14 3.81-3.82-9.11-9.13-1.09 1.09-2.19 2.18-.54.54ZM98.53 35.1l1.64 1.65 1.08 1.08 9.14-9.11-3.81-3.82-9.14 9.11 1.09 1.09Z"/></svg>