<svg xmlns="http://www.w3.org/2000/svg" width="128" height="128" fill="none"><path fill="#EF8C70" d="m30.8 66.24 3.96 2.64a13.4 13.4 0 0 0 0 2.37l-3.93 2.64c-.24.1-.42.3-.52.54a.95.95 0 0 0 .03.74l1.74 4.01c.09.25.28.45.53.55.25.1.52.1.77-.01l4.64-.95c.51.61 1.08 1.18 1.7 1.69l-.88 4.65c-.11.25-.12.53-.01.79.1.25.31.45.56.55l4.04 1.66c.24.11.51.11.76.01.24-.1.43-.3.53-.54l2.59-3.98c.79.07 1.59.07 2.38 0l2.68 3.95a1 1 0 0 0 1.3.53l3.97-1.63a.94.94 0 0 0 .54-.53c.1-.25.09-.52-.02-.76l-.95-4.66c.59-.5 1.14-1.05 1.63-1.64l4.67.95c.24.11.51.11.76.01.24-.1.43-.3.53-.54l1.64-4.06c.2-.51-.05-1.08-.55-1.29l-4.01-2.67c.07-.79.07-1.58 0-2.37l3.94-2.64c.25-.1.44-.29.54-.53.1-.25.09-.52-.02-.76l-1.8-3.98a.928.928 0 0 0-.53-.55.956.956 0 0 0-.76.02l-4.64.95c-.5-.62-1.06-1.2-1.66-1.72l.88-4.65a.94.94 0 0 0 0-.77.901.901 0 0 0-.56-.52l-4.04-1.66a.956.956 0 0 0-.76-.01c-.24.1-.43.3-.53.54l-2.61 3.94c-.79-.07-1.59-.07-2.38 0l-2.68-3.95a.94.94 0 0 0-.54-.53.916.916 0 0 0-.76 0L39 53.72a.94.94 0 0 0-.54.53c-.1.25-.09.52.02.76l.95 4.65c-.6.51-1.16 1.07-1.66 1.68l-4.67-.95a.956.956 0 0 0-.76-.01c-.24.1-.43.3-.53.54l-1.57 4.03c-.2.51.05 1.08.55 1.29h.01Zm10.26.95a8.073 8.073 0 0 1 10.45-4.41 7.906 7.906 0 0 1 4.35 10.4 7.994 7.994 0 0 1-4.31 4.37c-1.96.83-4.17.85-6.14.05a8.044 8.044 0 0 1-4.38-4.31c-.82-1.97-.8-4.18.03-6.14v.04Z"/><path fill="#D64752" d="M108.99 67.38a44.94 44.94 0 0 1-8.13 25.73 45.064 45.064 0 0 1-21.39 16.45 44.974 44.974 0 0 1-60.24-38.02c-.86-9.17 1.1-18.38 5.64-26.39.51-.89 1.45-1.45 2.48-1.46a2.879 2.879 0 0 1 2.52 4.3 39.21 39.21 0 0 0-4.76 24.73 39.202 39.202 0 0 0 11.26 22.53 39.25 39.25 0 0 0 47.32 6.05c7.46-4.33 13.28-11 16.56-18.97a39.252 39.252 0 0 0 1.61-25.13 39.24 39.24 0 0 0-37.85-29.04H52.78l7.5 7.8c.53.54.82 1.26.82 2.02 0 .75-.3 1.48-.84 2.01-.53.53-1.25.84-2.01.84-.78 0-1.53-.31-2.07-.88L44.01 27.28c-.05-.05-.1-.11-.14-.17-.07-.07-.13-.15-.18-.24-.06-.08-.11-.16-.15-.25l-.12-.23c-.04-.1-.07-.21-.09-.31l-.07-.22c-.07-.38-.07-.77 0-1.15l.07-.22c.04-.2.11-.38.22-.55.04-.09.08-.17.14-.25.05-.09.12-.17.18-.24.04-.06.09-.12.14-.17l12.17-12.67c.71-.74 1.77-1.05 2.76-.8 1 .25 1.79 1 2.08 1.99.29.99.03 2.05-.69 2.8l-7.5 7.8H64c11.93.02 23.37 4.76 31.8 13.2a45.077 45.077 0 0 1 13.19 31.81v-.03Z"/><path fill="#DDC666" d="m82.83 55.84-2.39-1.67c.04-.49.04-.98 0-1.46l2.42-1.62a.61.61 0 0 0 .32-.8l-1.07-2.46a.614.614 0 0 0-.8-.33l-2.85.56c-.32-.37-.67-.72-1.05-1.03l.55-2.85a.628.628 0 0 0-.34-.8l-2.49-1.02a.61.61 0 0 0-.46 0c-.15.06-.27.18-.33.33l-1.6 2.42c-.49-.04-.98-.04-1.46 0l-1.65-2.43a.55.55 0 0 0-.33-.32.552.552 0 0 0-.47 0l-2.44 1.02a.61.61 0 0 0-.32.8l.6 2.85a9.2 9.2 0 0 0-1.03 1.04l-2.9-.53a.607.607 0 0 0-.79.32L61 50.33c-.12.31.03.67.34.79l2.43 1.63c-.04.48-.04.97 0 1.45l-2.42 1.62c-.31.13-.45.49-.31.8l1.06 2.46c.13.31.49.46.8.33l2.85-.56c.32.37.67.72 1.05 1.03l-.54 2.85c-.12.31.03.66.33.8l2.49 1.02c.15.06.31.06.46 0 .15-.06.27-.18.33-.33l1.6-2.44c.49.04.98.04 1.46 0l1.65 2.43c.13.31.49.45.8.32l2.45-1c.15-.06.27-.18.33-.33a.61.61 0 0 0 0-.46l-.59-2.85c.37-.31.71-.66 1.02-1.04l2.85.57c.15.06.31.06.46 0 .15-.06.27-.18.33-.33l.95-2.47a.613.613 0 0 0-.34-.79l-.01.01Zm-6.4-.62a4.554 4.554 0 0 1-2.48 2.49c-1.12.47-2.38.47-3.51 0a4.44 4.44 0 0 1-2.49-2.45 4.47 4.47 0 0 1 0-3.48v.02a4.633 4.633 0 0 1 2.47-2.49c1.12-.47 2.38-.48 3.51-.03a4.47 4.47 0 0 1 2.49 2.45c.47 1.11.47 2.37 0 3.49h.01Z"/><path fill="#EAD3D9" d="m92.05 85.59-2-2.83c.24-.53.44-1.07.59-1.63l3.36-.84c.4-.03.7-.37.68-.76l-.21-3.18a.726.726 0 0 0-.76-.69l-3.41-.52a9.51 9.51 0 0 0-.77-1.57l1.76-2.96c.26-.3.24-.76-.06-1.03l-2.37-2.13a.692.692 0 0 0-.51-.19c-.19 0-.37.09-.5.23l-2.75 2.07c-.53-.24-1.07-.43-1.63-.59l-.87-3.38c0-.19-.1-.37-.24-.49a.715.715 0 0 0-.52-.19l-3.13.16c-.4.03-.7.37-.68.76l-.47 3.42c-.54.2-1.06.45-1.56.74l-3.02-1.76a.732.732 0 0 0-1.01.04l-2.05 2.38c-.26.3-.23.75.07 1.02l2.06 2.8c-.24.52-.44 1.07-.58 1.62l-3.36.84c-.4.03-.69.37-.67.77l.2 3.17c.02.4.36.71.76.69l3.41.52c.21.54.46 1.07.77 1.57l-1.75 2.97c-.26.3-.24.75.05 1.02l2.37 2.13c.14.13.32.2.51.19.19 0 .37-.09.5-.23l2.76-2.09c.53.24 1.07.43 1.63.59l.87 3.38c.03.4.37.7.76.68l3.14-.13c.19 0 .37-.09.5-.23s.19-.33.18-.52l.48-3.42c.54-.2 1.06-.45 1.55-.75l2.95 1.78c.14.13.32.2.51.19.19-.01.37-.09.5-.23l2.05-2.38c.26-.3.23-.75-.07-1.02l-.02.01Zm-6.9-3.26a5.483 5.483 0 0 1-3.77 1.79c-1.44.08-2.85-.43-3.91-1.41a5.323 5.323 0 0 1-1.8-3.73c-.08-1.43.43-2.83 1.39-3.88v.02a5.438 5.438 0 0 1 3.75-1.79c1.44-.08 2.85.42 3.93 1.37 1.08.95 1.73 2.3 1.8 3.73.08 1.43-.43 2.84-1.4 3.89l.01.01Z"/></svg>