<svg xmlns="http://www.w3.org/2000/svg" width="128" height="128" fill="none"><path fill="#3187AD" d="M44.121 45.2h3.1V59h-3.14l-5.72-8.44V59h-3.1V45.2h3.12l5.74 8.44V45.2ZM52.932 56.08h4.96V59h-8.06V45.2h7.96v2.92h-4.86v2.48h4.2v2.92h-4.2v2.56ZM62.99 56.08h4.96V59h-8.06V45.2h7.96v2.92h-4.86v2.48h4.2v2.92h-4.2v2.56ZM75.389 45.2c4.02 0 7.04 2.96 7.04 6.9 0 3.94-3.02 6.9-7.04 6.9h-5.44V45.2h5.44Zm-.08 10.88c2.26 0 3.94-1.72 3.94-3.98s-1.68-3.98-3.94-3.98h-2.26v7.96h2.26ZM88.582 59.24c-2.78 0-4.88-1.88-4.88-4.38h3.18c0 .9.76 1.62 1.74 1.62.94 0 1.64-.58 1.64-1.32 0-.94-1.14-1.44-2.44-1.78-2-.5-3.92-1.7-3.92-4.32 0-2.34 2-4.1 4.64-4.1 2.7 0 4.7 1.8 4.7 4.2h-3.18c0-.82-.64-1.44-1.52-1.44-.84 0-1.46.52-1.46 1.22 0 .88.92 1.36 2.26 1.72 2.1.56 4.1 1.58 4.1 4.3 0 2.44-2.08 4.28-4.86 4.28ZM17.04 67.2c4.02 0 7.04 2.96 7.04 6.9 0 3.94-3.02 6.9-7.04 6.9H11.6V67.2h5.44Zm-.08 10.88c2.26 0 3.94-1.72 3.94-3.98s-1.68-3.98-3.94-3.98H14.7v7.96h2.26ZM29.152 78.08h4.96V81h-8.06V67.2h7.96v2.92h-4.86v2.48h4.2v2.92h-4.2v2.56ZM40.33 81.24c-2.78 0-4.88-1.88-4.88-4.38h3.18c0 .9.76 1.62 1.74 1.62.94 0 1.64-.58 1.64-1.32 0-.94-1.14-1.44-2.44-1.78-2-.5-3.92-1.7-3.92-4.32 0-2.34 2-4.1 4.64-4.1 2.7 0 4.7 1.8 4.7 4.2h-3.18c0-.82-.64-1.44-1.52-1.44-.84 0-1.46.52-1.46 1.22 0 .88.92 1.36 2.26 1.72 2.1.56 4.1 1.58 4.1 4.3 0 2.44-2.08 4.28-4.86 4.28ZM47.127 81V67.2h3.1V81h-3.1ZM59.629 73.1h7v1.06c-.04 4.04-3.1 7.08-7.14 7.08-4.16 0-7.3-3.08-7.3-7.14s3.14-7.14 7.3-7.14c3.36 0 6.14 2.02 6.84 4.8h-3.46c-.64-1.1-1.88-1.82-3.38-1.82-2.34 0-4.12 1.78-4.12 4.16s1.78 4.16 4.12 4.16c1.74 0 3.18-.96 3.74-2.36h-3.6v-2.8ZM77.373 67.2h3.1V81h-3.14l-5.72-8.44V81h-3.1V67.2h3.12l5.74 8.44V67.2ZM83.084 81V67.2h3.1V81h-3.1ZM97.686 67.2h3.1V81h-3.14l-5.72-8.44V81h-3.1V67.2h3.12l5.74 8.44V67.2ZM110.156 73.1h7v1.06c-.04 4.04-3.1 7.08-7.14 7.08-4.16 0-7.3-3.08-7.3-7.14s3.14-7.14 7.3-7.14c3.36 0 6.14 2.02 6.84 4.8h-3.46c-.64-1.1-1.88-1.82-3.38-1.82-2.34 0-4.12 1.78-4.12 4.16s1.78 4.16 4.12 4.16c1.74 0 3.18-.96 3.74-2.36h-3.6v-2.8Z"/></svg>