<svg xmlns="http://www.w3.org/2000/svg" width="128" height="128" fill="none"><path fill="#3187AD" d="M109.18 24.53H18.82a3.11 3.11 0 0 0-3.11 3.11v72.7a3.11 3.11 0 0 0 3.11 3.11h90.36a3.11 3.11 0 0 0 3.11-3.11V27.65a3.11 3.11 0 0 0-3.11-3.11v-.01Zm-3.12 22.85H21.94V30.76h84.13v16.62h-.01Z"/><path fill="#DDC666" d="M49.98 39.07c0 2.87-2.33 5.19-5.19 5.19-2.86 0-5.19-2.33-5.19-5.19 0-2.86 2.33-5.19 5.19-5.19 2.86 0 5.19 2.33 5.19 5.19Z"/><path fill="#D64752" d="M63.48 39.07c0 2.87-2.33 5.19-5.19 5.19-2.86 0-5.19-2.33-5.19-5.19 0-2.86 2.33-5.19 5.19-5.19 2.86 0 5.19 2.33 5.19 5.19Z"/><path fill="#EF8C70" d="M36.48 39.07c0 2.87-2.33 5.19-5.19 5.19-2.86 0-5.19-2.33-5.19-5.19 0-2.86 2.33-5.19 5.19-5.19 2.86 0 5.19 2.33 5.19 5.19Z"/><path fill="#EAD3D9" d="m77.5 86.85-6.33 5.3-7.69-9.25-5.71 9.87-10.28-35.52 33.02 16.51-10.8 3.85 7.79 9.24Z"/></svg>