<svg xmlns="http://www.w3.org/2000/svg" width="70" height="70"><path fill="#3187AD" d="M35 32.083c8.054 0 14.583 6.53 14.583 14.584v17.5H43.75v-17.5a8.75 8.75 0 0 0-8.236-8.736L35 37.917a8.75 8.75 0 0 0-8.735 8.235l-.015.515v17.5h-5.833v-17.5c0-8.055 6.529-14.584 14.583-14.584Zm-18.958 8.75c.813 0 1.604.095 2.362.275a17.345 17.345 0 0 0-.878 4.594l-.026.965.002.25a4.357 4.357 0 0 0-1.04-.23l-.42-.02a4.376 4.376 0 0 0-4.355 3.953l-.02.422v13.125H5.833V51.042c0-5.638 4.57-10.209 10.209-10.209Zm37.916 0c5.638 0 10.209 4.57 10.209 10.209v13.125h-5.834V51.042a4.376 4.376 0 0 0-3.953-4.355l-.422-.02c-.51 0-1.001.087-1.457.248l-.001-.248c0-1.942-.316-3.81-.9-5.555a9.95 9.95 0 0 1 2.358-.279Zm-37.916-17.5a7.292 7.292 0 1 1 0 14.584 7.292 7.292 0 0 1 0-14.584Zm37.916 0a7.292 7.292 0 1 1 0 14.584 7.292 7.292 0 0 1 0-14.584Zm-37.916 5.834a1.458 1.458 0 1 0 0 2.916 1.458 1.458 0 0 0 0-2.916Zm37.916 0a1.458 1.458 0 1 0 0 2.917 1.458 1.458 0 0 0 0-2.917ZM35 5.833c6.443 0 11.667 5.224 11.667 11.667S41.443 29.167 35 29.167 23.333 23.943 23.333 17.5 28.557 5.833 35 5.833Zm0 5.834a5.833 5.833 0 1 0 0 11.666 5.833 5.833 0 0 0 0-11.666Z"/></svg>