<svg xmlns="http://www.w3.org/2000/svg" width="620" height="311" fill="none"><g clip-path="url(#a)"><path fill="#DDC666" d="M72.13 89.88C83.42 84 90.92 73.67 90.92 61.9c0-18.3-18.11-33.14-40.46-33.14S10 43.6 10 61.9s18.11 33.14 40.46 33.14c4.14 0 8.13-.51 11.89-1.46 3.46 5.12 9.78 9.99 21.36 9.99 0 0-8.44-3.67-11.58-13.7v.01Z"/><path fill="#D64752" d="M29.18 70.63a7.04 7.04 0 1 0 0-14.08 7.04 7.04 0 0 0 0 14.08ZM57.5 63.11c0 3.89-3.15 7.04-7.04 7.04s-7.04-3.15-7.04-7.04 3.15-7.04 7.04-7.04 7.04 3.15 7.04 7.04ZM71.74 70.15a7.04 7.04 0 1 0 0-14.08 7.04 7.04 0 0 0 0 14.08Z"/><path fill="#EF8C70" d="M482.52 298.34h-6v-6c0-1.1-.9-2-2-2s-2 .9-2 2v6h-6c-1.1 0-2 .9-2 2s.9 2 2 2h6v6c0 1.1.9 2 2 2s2-.9 2-2v-6h6c1.1 0 2-.9 2-2s-.9-2-2-2Z"/><path fill="#DDC666" d="M617.04 114.13h-6v-6c0-1.1-.9-2-2-2s-2 .9-2 2v6h-6c-1.1 0-2 .9-2 2s.9 2 2 2h6v6c0 1.1.9 2 2 2s2-.9 2-2v-6h6c1.1 0 2-.9 2-2s-.9-2-2-2Z"/><path fill="#D64752" d="M18 157.24h-6v-6c0-1.1-.9-2-2-2s-2 .9-2 2v6H2c-1.1 0-2 .9-2 2s.9 2 2 2h6v6c0 1.1.9 2 2 2s2-.9 2-2v-6h6c1.1 0 2-.9 2-2s-.9-2-2-2Z"/><path fill="#3187AD" d="M186.58 8h-6V2c0-1.1-.9-2-2-2s-2 .9-2 2v6h-6c-1.1 0-2 .9-2 2s.9 2 2 2h6v6c0 1.1.9 2 2 2s2-.9 2-2v-6h6c1.1 0 2-.9 2-2s-.9-2-2-2ZM158.71 131.06h202.62c9.04 0 16.37 7.34 16.37 16.37v125.04H142.34V147.43c0-9.04 7.34-16.37 16.37-16.37Z"/><path fill="#D64752" d="M287.88 281.76v2.65c0 2.97-2.41 5.37-5.37 5.37h-44.99c-2.97 0-5.37-2.41-5.37-5.37v-2.65H123.91v9.01c0 5.28 4.28 9.57 9.57 9.57h253.09c5.28 0 9.57-4.28 9.57-9.57v-9.01H287.88Z"/><path fill="#EAD3D9" d="M354.44 217.37H221.57v-67.69h132.87v67.69Zm-126.87-6h120.87v-55.69H227.57v55.69ZM197.07 167.79H160.1v6h36.97v-6ZM202.19 181.73H160.1v6h42.09v-6ZM194.84 195.68H160.1v6h34.74v-6ZM199.74 209.62H160.1v6h39.64v-6ZM187.04 223.57H160.1v6h26.94v-6ZM346.8 230.43H221.56v6H346.8v-6ZM316.66 244.38h-95.1v6h95.1v-6Z"/><path fill="#3187AD" d="M180.81 198.32c34.385 0 62.26-27.875 62.26-62.26S215.195 73.8 180.81 73.8s-62.26 27.875-62.26 62.26 27.875 62.26 62.26 62.26Z" opacity=".4"/><path fill="#EAD3D9" d="m119.42 182.01-61.63 61.63 15.43 15.43 61.63-61.63c30.02 22.5 72.9 20.12 100.19-7.16 29.9-29.9 29.9-78.56 0-108.46-29.9-29.9-78.56-29.9-108.46 0-27.28 27.28-29.66 70.17-7.16 100.19Zm20.82-86.53c22.37-22.37 58.77-22.37 81.14 0 22.37 22.37 22.37 58.77 0 81.14-22.37 22.37-58.77 22.37-81.14 0-22.37-22.37-22.37-58.77 0-81.14Z"/><path fill="#EF8C70" d="M39.781 277.083c-6.816-6.816-6.816-17.875 0-24.692l58.563-58.562 24.699 24.699L64.48 277.09c-6.816 6.817-17.875 6.817-24.692 0l-.007-.007Z"/><path fill="#D64752" d="M471.09 183.35H321.16V0h118.59l31.34 31.34v152.01Z"/><path fill="#EF8C70" d="M439.75 31.34h31.34L439.75 0v31.34Z"/><path fill="#EAD3D9" d="M451.32 113.13h-110.4v6h110.4v-6ZM451.32 125.13h-110.4v6h110.4v-6ZM451.32 137.13h-110.4v6h110.4v-6ZM414.31 149.13h-73.39v6h73.39v-6Z"/><path fill="#DDC666" d="M451.32 38.24h-110.4v58.67h110.4V38.24Z"/><path fill="#EAD3D9" d="M558.14 233.84H408.22V50.5H526.8l31.34 31.34v152Z"/><path fill="#D64752" d="M526.8 81.84h31.34L526.8 50.5v31.34Z"/><path fill="#EF8C70" d="M474.52 118.17c0-4.3-1.09-8.34-3.02-11.86l-21.73 11.86V93.42c-13.67 0-24.75 11.08-24.75 24.75s11.08 24.75 24.75 24.75 24.75-11.08 24.75-24.75Z"/><path fill="#D64752" d="M474.52 118.17c0-4.3-1.09-8.34-3.02-11.86l-21.73 11.86 21.12 12.92c2.31-3.76 3.64-8.19 3.64-12.92h-.01Z"/><path fill="#3187AD" d="M501.54 101.76h-13.98v41.16h13.98v-41.16ZM519.96 93.41h-13.98v49.51h13.98V93.41ZM538.38 119.6H524.4v23.32h13.98V119.6Z"/><path fill="#D64752" d="M538.38 163.62h-110.4v6h110.4v-6ZM538.38 175.62h-110.4v6h110.4v-6ZM538.38 187.62h-110.4v6h110.4v-6ZM501.37 199.62h-73.39v6h73.39v-6Z"/><path fill="#EF8C70" d="m258.83 2.496-22.648 22.649 60.599 60.599 22.648-22.649-60.599-60.6Z"/><path fill="#EAD3D9" d="m314.48 92.12-17.7-6.38 22.65-22.65 6.38 17.7-11.33 11.33Z"/><path fill="#3187AD" d="m332.18 98.49-17.7-6.37 11.33-11.33 6.37 17.7Z"/></g><defs><clipPath id="a"><path fill="#fff" d="M0 0h619.04v310.34H0z"/></clipPath></defs></svg>