<svg xmlns="http://www.w3.org/2000/svg" width="1328" height="566"><g clip-path="url(#a)"><path fill="#3187AD" d="M281 21.73H97c-13.79 0-25 11.21-25 25v328c0 13.79 11.21 25 25 25h40c3.86 0 7 3.14 7 7v40c0 3.86-3.14 7-7 7H84.73l20.64-20.64-12.73-12.73-42.36 42.36 42.36 42.36 12.73-12.73-20.64-20.64H137c13.79 0 25-11.21 25-25v-40c0-13.79-11.21-25-25-25H97c-3.86 0-7-3.14-7-7V46.73c0-3.86 3.14-7 7-7h184c3.86 0 7 3.14 7 7v200h18v-200c0-13.79-11.21-25-25-25Z"/><path fill="#EAD3D9" d="M807 237.73c-8.27 0-15 6.73-15 15v50c0 3.86-3.14 7-7 7h-40c-3.86 0-7-3.14-7-7v-112c0-13.79-11.21-25-25-25H601c-3.86 0-7-3.14-7-7v-40c0-13.79-11.21-25-25-25H457c-13.79 0-25 11.21-25 25v40c0 3.86-3.14 7-7 7h-40c-3.86 0-7-3.14-7-7v-40c0-13.79-11.21-25-25-25H241c-13.79 0-25 11.21-25 25V153l-20.64-20.64-12.73 12.73 42.36 42.36 42.36-42.36-12.73-12.73L233.98 153v-34.27c0-3.86 3.14-7 7-7h112c3.86 0 7 3.14 7 7v40c0 13.79 11.21 25 25 25h40c13.79 0 25-11.21 25-25v-40c0-3.86 3.14-7 7-7h112c3.86 0 7 3.14 7 7v40c0 13.79 11.21 25 25 25h112c3.86 0 7 3.14 7 7v112c0 13.79 11.21 25 25 25h40c13.79 0 25-11.21 25-25v-47h517.99v-18H806.98h.02Z"/><path fill="#D64752" d="M339.36 474.36 297 432l-42.36 42.36 12.73 12.73 20.64-20.64v52.27c0 3.86-3.14 7-7 7h-40c-3.86 0-7-3.14-7-7v-184c0-13.79-11.21-25-25-25H25c-3.86 0-7-3.14-7-7V118.73c0-3.86 3.14-7 7-7h112c3.86 0 7 3.14 7 7v112c0 13.79 11.21 25 25 25h128v-18H169c-3.86 0-7-3.14-7-7v-112c0-13.79-11.21-25-25-25H25c-13.79 0-25 11.21-25 25v184c0 13.79 11.21 25 25 25h184c3.86 0 7 3.14 7 7v184c0 13.79 11.21 25 25 25h40c13.79 0 25-11.21 25-25v-52.27l20.64 20.64 12.73-12.73-.01-.01Z"/><path fill="#EF8C70" d="M641 237.73H529c-3.86 0-7-3.14-7-7V34.46l20.64 20.64 12.73-12.73L513 0l-42.36 42.36 12.73 12.73 20.64-20.64v196.27c0 13.79 11.21 25 25 25h112c3.86 0 7 3.14 7 7v112c0 3.86-3.14 7-7 7H458.17c-3.86 0-7-3.14-7-7v-112c0-13.79-11.21-25-25-25H297.01v18h129.16c3.86 0 7 3.14 7 7v112c0 13.79 11.21 25 25 25h182.84c13.79 0 25-11.21 25-25v-112c0-13.79-11.21-25-25-25l-.01.01Z"/><path fill="#DDC666" d="M569 309.73H385c-13.79 0-25 11.21-25 25v40c0 3.86-3.14 7-7 7h-40c-3.86 0-7-3.14-7-7v-128h-18v128c0 13.79 11.21 25 25 25h40c13.79 0 25-11.21 25-25v-40c0-3.86 3.14-7 7-7h184c3.86 0 7 3.14 7 7v112c0 3.86-3.14 7-7 7H457c-13.79 0-25 11.21-25 25V531l-20.64-20.64-12.73 12.73 42.36 42.36 42.36-42.36-12.73-12.73L449.98 531v-52.27c0-3.86 3.14-7 7-7h112c13.79 0 25-11.21 25-25v-112c0-13.79-11.21-25-25-25h.02Z"/><path fill="#152338" d="M297 318.73c39.765 0 72-32.236 72-72 0-39.765-32.235-72-72-72s-72 32.235-72 72c0 39.764 32.235 72 72 72Z"/><path fill="#3187AD" d="M90 84.73H72v36h18v-36Z"/><path fill="#EF8C70" d="M612 381.73h-45v18h45v-18Z"/><path fill="#EAD3D9" d="M315 93.73h-36v18h36v-18Z"/><path fill="#32AA86" d="M264.22 253.88c.86 3.96 2.43 7.66 4.55 10.96l-8.65 8.65 10.11 10.11 8.65-8.65c3.3 2.13 7 3.69 10.96 4.55v12.22h14.3V279.5c3.96-.86 7.66-2.43 10.96-4.55l8.65 8.65 10.11-10.11-8.65-8.65c2.13-3.3 3.69-7 4.55-10.96h12.22v-14.3h-12.22c-.86-3.96-2.43-7.66-4.55-10.96l8.65-8.65-10.11-10.11-8.65 8.65c-3.3-2.13-7-3.69-10.96-4.55v-12.22h-14.3v12.22c-3.96.86-7.66 2.43-10.96 4.55l-8.65-8.65-10.11 10.11 8.65 8.65c-2.13 3.3-3.69 7-4.55 10.96H252v14.3h12.22Zm15.32-7.15c0-9.63 7.83-17.46 17.46-17.46s17.46 7.83 17.46 17.46-7.83 17.46-17.46 17.46-17.46-7.83-17.46-17.46Z"/></g><defs><clipPath id="a"><path fill="#fff" d="M0 0h1327.99v565.46H0z"/></clipPath></defs></svg>