<svg xmlns="http://www.w3.org/2000/svg" width="422" height="407" fill="none"><g clip-path="url(#a)"><path fill="#EF8C70" d="M295.05 394.28h-6v-6c0-1.1-.9-2-2-2s-2 .9-2 2v6h-6c-1.1 0-2 .9-2 2s.9 2 2 2h6v6c0 1.1.9 2 2 2s2-.9 2-2v-6h6c1.1 0 2-.9 2-2s-.9-2-2-2Z"/><path fill="#DDC666" d="M75.18 52.77h-6v-6c0-1.1-.9-2-2-2s-2 .9-2 2v6h-6c-1.1 0-2 .9-2 2s.9 2 2 2h6v6c0 1.1.9 2 2 2s2-.9 2-2v-6h6c1.1 0 2-.9 2-2s-.9-2-2-2Z"/><path fill="#D64752" d="M18 283.27h-6v-6c0-1.1-.9-2-2-2s-2 .9-2 2v6H2c-1.1 0-2 .9-2 2s.9 2 2 2h6v6c0 1.1.9 2 2 2s2-.9 2-2v-6h6c1.1 0 2-.9 2-2s-.9-2-2-2Z"/><path fill="#3187AD" d="M414.28 293.27h-6v-6c0-1.1-.9-2-2-2s-2 .9-2 2v6h-6c-1.1 0-2 .9-2 2s.9 2 2 2h6v6c0 1.1.9 2 2 2s2-.9 2-2v-6h6c1.1 0 2-.9 2-2s-.9-2-2-2Z"/><g opacity=".18"><path fill="#3187AD" d="M205.77 79.95c-14.77-7.69-24.58-21.2-24.58-36.6 0-23.94 23.7-43.35 52.93-43.35s52.93 19.41 52.93 43.35-23.7 43.35-52.93 43.35c-5.42 0-10.64-.67-15.56-1.91-4.52 6.7-12.8 13.07-27.94 13.07 0 0 11.04-4.8 15.15-17.92v.01Z"/><path fill="#1F3049" d="M261.96 54.77a9.21 9.21 0 0 0 9.21-9.21 9.21 9.21 0 0 0-9.21-9.21 9.21 9.21 0 0 0-9.21 9.21 9.21 9.21 0 0 0 9.21 9.21ZM234.12 54.15a9.21 9.21 0 1 0 0-18.42 9.21 9.21 0 0 0 0 18.42ZM206.28 54.15a9.21 9.21 0 1 0 0-18.42 9.21 9.21 0 0 0 0 18.42Z"/></g><g opacity=".34"><path fill="#3187AD" d="M377.36 176.89c26.39-13.74 43.92-37.89 43.92-65.41 0-42.79-42.35-77.47-94.58-77.47-52.24 0-94.58 34.68-94.58 77.47s42.35 77.47 94.58 77.47c9.68 0 19.01-1.2 27.8-3.41 8.08 11.97 22.87 23.36 49.94 23.36 0 0-19.73-8.58-27.08-32.02v.01Z"/><path fill="#1F3049" d="M276.95 131.88c9.085 0 16.45-7.365 16.45-16.45 0-9.085-7.365-16.45-16.45-16.45-9.085 0-16.45 7.365-16.45 16.45 0 9.085 7.365 16.45 16.45 16.45ZM326.7 130.77c9.085 0 16.45-7.365 16.45-16.45 0-9.085-7.365-16.45-16.45-16.45-9.085 0-16.45 7.365-16.45 16.45 0 9.085 7.365 16.45 16.45 16.45ZM376.45 130.77c9.085 0 16.45-7.365 16.45-16.45 0-9.085-7.365-16.45-16.45-16.45-9.085 0-16.45 7.365-16.45 16.45 0 9.085 7.365 16.45 16.45 16.45Z"/></g><path fill="#EAD3D9" d="M127.68 321.01c-36.36-18.93-60.5-52.19-60.5-90.09 0-58.93 58.33-106.71 130.28-106.71s130.28 47.77 130.28 106.71c0 58.93-58.33 106.71-130.28 106.71-13.33 0-26.19-1.65-38.3-4.69-11.13 16.48-31.5 32.18-68.78 32.18 0 0 27.17-11.82 37.3-44.1v-.01Z"/><path fill="#D64752" d="M265.98 259.01c12.515 0 22.66-10.145 22.66-22.66s-10.145-22.66-22.66-22.66c-12.514 0-22.66 10.145-22.66 22.66s10.146 22.66 22.66 22.66ZM197.46 257.49c12.515 0 22.66-10.145 22.66-22.66s-10.145-22.66-22.66-22.66c-12.514 0-22.66 10.145-22.66 22.66s10.146 22.66 22.66 22.66ZM128.94 257.49c12.515 0 22.66-10.145 22.66-22.66s-10.145-22.66-22.66-22.66c-12.514 0-22.66 10.145-22.66 22.66s10.146 22.66 22.66 22.66Z"/></g><defs><clipPath id="a"><path fill="#fff" d="M0 0h421.28v406.28H0z"/></clipPath></defs></svg>