<svg xmlns="http://www.w3.org/2000/svg" width="1318" height="537"><g clip-path="url(#a)"><path fill="#152338" d="M1300.32 297.29H1130.9c-52.07 0-93.56-15.03-126.84-45.94-28.7-26.66-46.78-60.4-64.27-93.02-29.25-54.58-52.37-97.69-113.99-91.75-32.9 3.17-56.06 28.67-80.58 55.66-25.55 28.13-51.98 57.22-92.78 67.75-9.98 2.57-20.43 3.87-31.36 3.87-39.06 0-84.45-16.45-137.7-49.78-71.49-44.74-125.39-60.09-169.63-48.33-39.39 10.48-68.96 42.32-100.27 76.03C164.41 224.62 108.79 284.51 0 284.51v-24c98.33 0 147.93-53.41 195.9-105.07 33.73-36.32 65.59-70.63 111.68-82.89 51.11-13.59 111.02 2.67 188.53 51.17 62.28 38.98 111.46 53.05 150.33 43.02 33.86-8.74 57.83-35.12 81.02-60.64 26.51-29.18 53.92-59.35 96.04-63.41 35.06-3.38 63.66 6.17 87.41 29.21 20.39 19.77 34.79 46.65 50.03 75.1 33.27 62.09 67.68 126.3 169.95 126.3h169.42v24l.01-.01Z"/><path fill="#152338" d="M203.15 505.08c-18.94 0-36.51-4.2-53.19-12.67-21.2-10.76-38.31-26.91-54.85-42.54-27.2-25.69-52.9-49.96-95.11-49.96v-24c51.75 0 83.54 30.02 111.58 56.51 32.28 30.48 60.15 56.81 114.53 46.34 50.25-9.68 84.55-34.09 117.72-57.69 39.09-27.81 76.01-54.08 132.02-50.85 82.69 4.77 119.42 39.6 148.94 67.59 26.15 24.79 46.81 44.38 93.16 39.91 61.83-5.96 88.16-44.05 118.66-88.16 37.67-54.5 80.37-116.27 199.17-116.27h264.55v24h-264.55c-47.7 0-85.56 10.79-115.73 32.97-26.98 19.84-45.64 46.83-63.69 72.94-31.05 44.92-63.16 91.37-136.09 98.4-5.38.52-10.49.77-15.35.77-46.9 0-71.12-22.97-96.63-47.15-29.44-27.91-59.88-56.77-133.81-61.04-47.59-2.75-79.63 20.05-116.72 46.45-33.62 23.92-71.72 51.04-127.09 61.7-9.5 1.83-18.65 2.75-27.51 2.75h-.01Z"/><path fill="#EAD3D9" d="M229.31 444.97c-12.63 0-24.49-1.89-35.93-5.65-23.42-7.71-41.38-21.99-60.38-37.11C100.73 376.54 67.37 350 .01 350v-24c75.74 0 114.09 30.51 147.93 57.43 35.28 28.07 63.14 50.23 128.13 29 29.85-9.75 50.68-32.47 65.56-71.49 13.82-36.24 20.55-82.03 27.05-126.32 7.18-48.87 14.6-99.41 31.76-138.45C420.8 29.81 452.46 5.14 497.2.76c45.27-4.43 81.09 10.35 109.54 45.18 24.13 29.55 40.17 70.16 55.68 109.44 19.57 49.56 39.81 100.81 75.37 126.13 48.6 34.61 85.63 25.45 141.67 11.59 37.56-9.29 80.13-19.82 136.76-19.82h284.1v24h-284.1c-53.7 0-94.77 10.16-131 19.12-27.92 6.91-53.02 13.11-77.96 13.11-26.86 0-53.54-7.19-83.39-28.45-41.34-29.44-62.91-84.05-83.77-136.86-14.84-37.57-30.18-76.42-51.95-103.08C564.86 32.6 536.69 21 499.54 24.64c-35.82 3.5-60.34 22.94-77.14 61.18-15.85 36.07-23.04 84.98-29.98 132.28-6.69 45.57-13.61 92.69-28.37 131.38-17.43 45.69-43.77 73.74-80.53 85.75-19.88 6.5-37.7 9.73-54.2 9.73l-.01.01Z"/><path fill="#D64752" d="M0 455.15v-24c149.01 0 207.56-129.2 238.65-226.39 15.86-49.58 44.11-81.46 81.7-92.19 50.03-14.28 112.55 10.09 185.8 72.45 82.76 70.45 147.64 102.65 198.32 98.51 46.69-3.84 76.06-38.6 104.47-72.22 25.41-30.07 49.4-58.47 84.35-63.57 64.19-9.37 102.72 21.88 143.51 54.97 42.79 34.71 87.03 70.59 169.67 70.59h93.84v24h-93.84c-91.15 0-140.9-40.35-184.79-75.95-39.75-32.24-71.15-57.71-124.93-49.86-25.95 3.79-46.13 27.67-69.49 55.31-30.1 35.62-64.22 76-120.84 80.65-3.48.29-7.02.43-10.59.43-55.41 0-122.71-34.32-205.25-104.58-35.59-30.29-68.42-51.13-97.57-61.93-24.86-9.21-47.1-11.13-66.08-5.71-20.57 5.87-48.63 23.9-65.42 76.42C239 282.45 213 333.4 179.66 372.42 132.76 427.32 72.31 455.16 0 455.16v-.01Z"/><path fill="#EF8C70" d="M407.66 536.98c-56.07 0-100.46-20.37-134.79-61.62-38.24-45.94-59.55-112.31-80.16-176.5C156.06 184.71 121.45 76.9 0 76.9v-24c62.62 0 110.66 25.22 146.87 77.11 31.17 44.67 50.24 104.06 68.69 161.51 19.91 62.01 40.5 126.13 75.76 168.49 38.71 46.5 90.65 61.85 163.45 48.3 70.78-13.18 97.41-76.39 125.6-143.32 23.17-54.99 47.12-111.85 98.15-137.54 27.97-14.08 53.94-19.04 81.73-15.61 24.71 3.05 47.9 12.17 74.75 22.74 43.85 17.25 98.41 38.73 181.22 38.73h284.1v24h-284.1c-87.36 0-144.28-22.4-190.01-40.39-51.65-20.33-85.78-33.75-136.9-8.02-43.13 21.71-64.35 72.09-86.82 125.42-14.31 33.96-29.1 69.09-50.4 97.65-24.85 33.33-55.25 52.94-92.93 59.95-18.16 3.38-35.32 5.08-51.5 5.08v-.02Z"/><path fill="#DDC666" d="M836.56 435.83c-5.39 0-10.96-.21-16.74-.66-50.27-3.87-102.17-31.82-152.36-58.84-36.19-19.49-73.62-39.64-110.2-50.81-40.3-12.3-73.77-12.22-105.34.27-51.21 20.25-99.43 33.16-143.32 38.36-50.84 6.02-94.01 1.32-128.32-13.97-36.93-16.46-63.11-44.9-77.83-84.53-4.95-13.33-8.86-26.19-12.64-38.63-7.81-25.7-14.55-47.89-27.24-63.1C49.18 147.87 29.88 140.71 0 140.71v-24c81.38 0 96.63 50.19 112.78 103.33 3.67 12.09 7.47 24.6 12.17 37.25 12.39 33.36 34.29 57.23 65.1 70.97 57.72 25.73 147.58 16.92 253.05-24.78 80.54-31.85 159.44 10.64 235.74 51.73 50.2 27.03 97.62 52.57 142.82 56.04 68.01 5.24 102.74-24.67 142.95-59.29 42.82-36.87 91.35-78.66 187.14-78.66h148.57v24h-148.57c-86.87 0-129.88 37.03-171.48 72.85-37.55 32.33-76.29 65.69-143.71 65.69v-.01Z"/><path fill="#3187AD" d="M392.22 455.15c-61.3 0-108.82-88.82-152.23-179.79-22.06-46.22-45-71.31-72.21-78.98-24.57-6.92-51.39.26-82.46 8.58C59.87 211.78 31.02 219.5 0 219.5v-24c27.87 0 53.92-6.98 79.11-13.73 33.05-8.85 64.26-17.21 95.18-8.5 34.35 9.68 62.1 38.83 87.36 91.74 18.61 39 38.68 79.79 61.31 112.17 25.02 35.8 48.32 53.95 69.26 53.95 41.27 0 54.43-25.59 93.67-114.36 6.19-14 13.2-29.86 20.99-46.94 20.66-45.32 41.84-88.82 73.65-122.88 38.8-41.54 85.16-59.6 141.75-55.26 71.17 5.47 114.38 43.97 160.12 84.73 53.44 47.61 108.69 96.84 217.12 96.84h200.8v24h-200.8c-117.57 0-178.94-54.68-233.08-102.92-42.64-37.99-82.91-73.87-146-78.72-48.85-3.76-88.87 11.85-122.37 47.71-29.34 31.42-49.55 73.01-69.35 116.45-7.73 16.95-14.71 32.75-20.87 46.69-19.11 43.22-32.91 74.45-48.85 95.27-17.67 23.09-38.27 33.38-66.77 33.38l-.01.03Z"/><path fill="#3187AD" d="m1241.69 360.9-16.97-16.97 58.63-58.64-58.63-58.63 16.97-16.97 75.6 75.6-75.6 75.61Z"/><path fill="#152338" d="M775.62 91.09c-10.42 9.16-20.3 20.03-30.4 31.15-5.37 5.91-10.77 11.86-16.34 17.67l-19.44-14.45c6.16-6.31 12.11-12.86 18.02-19.36 8.14-8.96 16.37-18.02 25.08-26.39l23.08 11.37v.01Z"/><path fill="#D64752" d="M526.45 201.82c14.78 11.87 28.96 22.43 42.55 31.7l-11.8 20.9c-14.71-9.92-29.98-21.23-45.83-33.95l15.08-18.66v.01Z"/></g><defs><clipPath id="a"><path fill="#fff" d="M0 0h1317.29v536.98H0z"/></clipPath></defs></svg>