<svg xmlns="http://www.w3.org/2000/svg" width="1112" height="422"><g clip-path="url(#a)"><path fill="#EF8C70" d="M846.5 229c0 33.01 26.76 59.77 59.77 59.77V229H846.5ZM876.39 229c16.502 0 29.88-13.378 29.88-29.88s-13.378-29.88-29.88-29.88-29.88 13.378-29.88 29.88S859.888 229 876.39 229Z"/><path fill="#DDC666" d="M882.49 350c-32.32 0-62.71-12.59-85.56-35.44l18.38-18.38c17.94 17.94 41.8 27.83 67.18 27.83 52.38 0 95-42.62 95-95s-42.62-95-95-95c-18.58 0-36.99 5.64-53.25 16.31-30.65 20.12-54.96 44.01-117.27 110.41-18.1 19.28-39.63 33.73-64.02 42.96-22.46 8.5-46.87 12.4-72.55 11.61-47.4-1.47-96.96-19.42-136-49.26-69.51-53.14-144.1-106.95-218.68-140.55C150.88 94 82.81 79.97 0 79.97v-26c86.67 0 158.04 14.74 231.41 47.8 76.97 34.68 153.05 89.51 223.79 143.6 34.81 26.62 78.92 42.63 121.01 43.93 32.5 1 79.13-6.22 116.8-46.37 63.92-68.11 89.08-92.77 121.96-114.36 20.51-13.46 43.85-20.58 67.52-20.58 66.72 0 121 54.28 121 121s-54.28 121-121 121v.01Z"/><path fill="#EAD3D9" d="M882.49 422c-56.11 0-109.35-24.37-146.07-66.85-2.24-2.59-5-5.9-8.19-9.74-18.59-22.33-53.19-63.91-98.73-100.15-54.81-43.62-108.31-65.74-159.01-65.74-102.12 0-159.23 43.36-219.7 89.27-63.93 48.54-130.04 98.73-250.8 98.73v-26c50.22 0 94.71-9.46 136.02-28.92 37.1-17.48 68.6-41.39 99.06-64.52 61.23-46.49 124.54-94.56 235.42-94.56 56.73 0 115.68 24.02 175.2 71.4 47.62 37.9 83.33 80.81 102.52 103.86 3.11 3.74 5.8 6.97 7.88 9.37 31.78 36.77 77.85 57.86 126.4 57.86 92.08 0 167-74.92 167-167s-74.92-167-167-167c-32.43 0-63.86 9.3-90.92 26.89L777.4 67.1c31.28-20.34 67.62-31.09 105.09-31.09 106.42 0 193 86.58 193 193s-86.58 193-193 193V422Z"/><path fill="#3187AD" d="M412.32 380.06c-28.58 0-56-7.49-82.92-22.54-36.11-20.19-67.17-51-100.05-83.62C167.84 212.87 104.23 149.78 0 149.78v-26c114.94 0 185.45 69.94 247.67 131.65 63.02 62.51 117.44 116.49 205.2 93.01 51.72-13.84 101.32-48.88 147.43-104.15 38.08-45.65 63.56-92.63 77.25-117.87 2.71-5 4.85-8.95 6.58-11.94 19.77-34.18 48.21-62.85 82.23-82.9C801.42 10.92 841.58 0 882.49 0c61.17 0 118.68 23.82 161.93 67.07 43.25 43.25 67.07 100.76 67.07 161.93 0 52.2-17.11 101.37-49.48 142.19l-20.37-16.16c28.69-36.17 43.85-79.75 43.85-126.03 0-111.93-91.07-203-203-203-36.27 0-71.86 9.68-102.93 27.99-30.17 17.79-55.39 43.21-72.92 73.52-1.55 2.68-3.62 6.49-6.23 11.32-13.11 24.18-40.4 74.49-80.14 122.12-49.61 59.47-103.67 97.36-160.68 112.61-16.16 4.32-31.88 6.49-47.26 6.49l-.01.01Z"/><path fill="#D64752" d="M882.49 386c-71.51 0-134-48.28-151.96-117.42l25.16-6.54c14.98 57.67 67.13 97.95 126.8 97.95 72.23 0 131-58.77 131-131 0-72.23-58.77-131-131-131-24.48 0-48.35 6.79-69.03 19.64-2.54 1.58-5.4 3.45-8.43 5.43-22.53 14.72-60.23 39.35-119.2 44.67-7.64.69-15.45 1.03-23.4 1.03-64.34 0-138.64-22.54-221.3-67.18-56.34-30.43-101.64-36.21-142.57-18.21-37.2 16.36-67.27 50.42-99.1 86.48-25.19 28.53-51.23 58.02-82.62 80.62C80.47 276.65 42.26 289.38.01 289.38v-26c37.11 0 69.41-10.81 101.63-34.01 29.02-20.9 54.08-49.28 78.32-76.73C245.11 78.86 312.47 2.56 453.48 78.72c203.59 109.95 293.92 50.94 337.33 22.59 3.16-2.06 6.14-4.01 8.93-5.75C824.54 80.15 853.16 72 882.5 72c86.57 0 157 70.43 157 157s-70.43 157-157 157h-.01Z"/><path fill="#DDC666" d="M252.63 141.03c-10.62-5.55-21.26-10.76-31.9-15.55a539.397 539.397 0 0 0-30.96-12.84l11.55-23.43c10.02 3.85 20.04 8.04 30.09 12.57 13.27 5.98 26.51 12.56 39.71 19.63l-18.49 19.63v-.01Z"/></g><defs><clipPath id="a"><path fill="#fff" d="M0 0h1111.49v422H0z"/></clipPath></defs></svg>