<svg xmlns="http://www.w3.org/2000/svg" width="854" height="371" fill="none"><g clip-path="url(#a)"><path fill="#3187AD" d="M824.99 370.11a3.93 3.93 0 1 0 0-7.86 3.93 3.93 0 0 0 0 7.86ZM751.46 370.11a3.93 3.93 0 1 0 0-7.86 3.93 3.93 0 0 0 0 7.86ZM739.21 370.11a3.93 3.93 0 1 0 0-7.86 3.93 3.93 0 0 0 0 7.86ZM261.28 370.11a3.93 3.93 0 1 0 0-7.86 3.93 3.93 0 0 0 0 7.86ZM249.03 370.11a3.93 3.93 0 1 0 0-7.86 3.93 3.93 0 0 0 0 7.86ZM236.77 370.11a3.93 3.93 0 1 0-.001-7.861 3.93 3.93 0 0 0 .001 7.861ZM224.52 370.11a3.93 3.93 0 1 0-.001-7.861 3.93 3.93 0 0 0 .001 7.861ZM763.71 358.03a3.93 3.93 0 1 0 0-7.86 3.93 3.93 0 0 0 0 7.86ZM751.46 358.03a3.93 3.93 0 1 0 0-7.86 3.93 3.93 0 0 0 0 7.86ZM739.21 358.03a3.93 3.93 0 1 0 0-7.86 3.93 3.93 0 0 0 0 7.86ZM726.95 358.03a3.93 3.93 0 1 0-.001-7.861 3.93 3.93 0 0 0 .001 7.861ZM690.2 358.03a3.93 3.93 0 1 0-.001-7.861 3.93 3.93 0 0 0 .001 7.861ZM677.93 358.03a3.93 3.93 0 1 0-.001-7.861 3.93 3.93 0 0 0 .001 7.861ZM457.36 358.03a3.93 3.93 0 1 0 0-7.86 3.93 3.93 0 0 0 0 7.86ZM445.09 358.03a3.93 3.93 0 1 0 0-7.86 3.93 3.93 0 0 0 0 7.86ZM273.53 358.03a3.93 3.93 0 1 0 0-7.86 3.93 3.93 0 0 0 0 7.86ZM261.28 358.03a3.93 3.93 0 1 0 0-7.86 3.93 3.93 0 0 0 0 7.86ZM249.03 358.03a3.93 3.93 0 1 0 0-7.86 3.93 3.93 0 0 0 0 7.86ZM236.77 358.03a3.93 3.93 0 1 0-.001-7.861 3.93 3.93 0 0 0 .001 7.861ZM224.52 358.03a3.93 3.93 0 1 0-.001-7.861 3.93 3.93 0 0 0 .001 7.861ZM763.71 345.96a3.93 3.93 0 1 0 .001-7.859 3.93 3.93 0 0 0-.001 7.859ZM751.46 345.96a3.93 3.93 0 1 0 .001-7.859 3.93 3.93 0 0 0-.001 7.859ZM739.21 345.96a3.93 3.93 0 1 0 .001-7.859 3.93 3.93 0 0 0-.001 7.859ZM726.95 345.96a3.93 3.93 0 1 0 0-7.86 3.93 3.93 0 0 0 0 7.86ZM714.7 345.96a3.93 3.93 0 1 0 0-7.86 3.93 3.93 0 0 0 0 7.86ZM702.45 345.96a3.93 3.93 0 1 0 0-7.86 3.93 3.93 0 0 0 0 7.86ZM690.2 345.96a3.93 3.93 0 1 0 0-7.86 3.93 3.93 0 0 0 0 7.86ZM677.93 345.96a3.93 3.93 0 1 0 0-7.86 3.93 3.93 0 0 0 0 7.86ZM469.61 345.96a3.93 3.93 0 1 0 .001-7.859 3.93 3.93 0 0 0-.001 7.859ZM457.36 345.96a3.93 3.93 0 1 0 .001-7.859 3.93 3.93 0 0 0-.001 7.859ZM445.09 345.96a3.93 3.93 0 1 0 .001-7.859 3.93 3.93 0 0 0-.001 7.859ZM273.53 345.96a3.93 3.93 0 1 0 .001-7.859 3.93 3.93 0 0 0-.001 7.859ZM261.28 345.96a3.93 3.93 0 1 0 .001-7.859 3.93 3.93 0 0 0-.001 7.859ZM249.03 345.96a3.93 3.93 0 1 0 .001-7.859 3.93 3.93 0 0 0-.001 7.859ZM236.77 345.96a3.93 3.93 0 1 0 0-7.86 3.93 3.93 0 0 0 0 7.86ZM763.71 333.88a3.93 3.93 0 1 0 .001-7.859 3.93 3.93 0 0 0-.001 7.859ZM751.46 333.88a3.93 3.93 0 1 0 .001-7.859 3.93 3.93 0 0 0-.001 7.859ZM739.21 333.88a3.93 3.93 0 1 0 .001-7.859 3.93 3.93 0 0 0-.001 7.859ZM726.95 333.88a3.93 3.93 0 1 0 0-7.86 3.93 3.93 0 0 0 0 7.86ZM714.7 333.88a3.93 3.93 0 1 0 0-7.86 3.93 3.93 0 0 0 0 7.86ZM702.45 333.88a3.93 3.93 0 1 0 0-7.86 3.93 3.93 0 0 0 0 7.86ZM690.2 333.88a3.93 3.93 0 1 0 0-7.86 3.93 3.93 0 0 0 0 7.86ZM677.93 333.88a3.93 3.93 0 1 0 0-7.86 3.93 3.93 0 0 0 0 7.86ZM506.37 333.88a3.93 3.93 0 1 0 0-7.86 3.93 3.93 0 0 0 0 7.86ZM481.86 333.88a3.93 3.93 0 1 0 .001-7.859 3.93 3.93 0 0 0-.001 7.859ZM469.61 333.88a3.93 3.93 0 1 0 .001-7.859 3.93 3.93 0 0 0-.001 7.859ZM457.36 333.88a3.93 3.93 0 1 0 .001-7.859 3.93 3.93 0 0 0-.001 7.859ZM445.09 333.88a3.93 3.93 0 1 0 .001-7.859 3.93 3.93 0 0 0-.001 7.859ZM432.84 333.88a3.93 3.93 0 1 0 .001-7.859 3.93 3.93 0 0 0-.001 7.859ZM285.78 333.88a3.93 3.93 0 1 0 .001-7.859 3.93 3.93 0 0 0-.001 7.859ZM273.53 333.88a3.93 3.93 0 1 0 .001-7.859 3.93 3.93 0 0 0-.001 7.859ZM261.28 333.88a3.93 3.93 0 1 0 .001-7.859 3.93 3.93 0 0 0-.001 7.859ZM249.03 333.88a3.93 3.93 0 1 0 .001-7.859 3.93 3.93 0 0 0-.001 7.859ZM236.77 333.88a3.93 3.93 0 1 0 0-7.86 3.93 3.93 0 0 0 0 7.86ZM751.46 321.81a3.93 3.93 0 1 0 0-7.86 3.93 3.93 0 0 0 0 7.86ZM739.21 321.81a3.93 3.93 0 1 0 0-7.86 3.93 3.93 0 0 0 0 7.86ZM726.95 321.81a3.93 3.93 0 1 0-.001-7.861 3.93 3.93 0 0 0 .001 7.861ZM714.7 321.81a3.93 3.93 0 1 0-.001-7.861 3.93 3.93 0 0 0 .001 7.861ZM702.45 321.81a3.93 3.93 0 1 0-.001-7.861 3.93 3.93 0 0 0 .001 7.861ZM690.2 321.81a3.93 3.93 0 1 0-.001-7.861 3.93 3.93 0 0 0 .001 7.861ZM518.62 321.81a3.93 3.93 0 1 0-.001-7.861 3.93 3.93 0 0 0 .001 7.861ZM506.37 321.81a3.93 3.93 0 1 0-.001-7.861 3.93 3.93 0 0 0 .001 7.861ZM481.86 321.81a3.93 3.93 0 1 0 0-7.86 3.93 3.93 0 0 0 0 7.86ZM469.61 321.81a3.93 3.93 0 1 0 0-7.86 3.93 3.93 0 0 0 0 7.86ZM457.36 321.81a3.93 3.93 0 1 0 0-7.86 3.93 3.93 0 0 0 0 7.86ZM445.09 321.81a3.93 3.93 0 1 0 0-7.86 3.93 3.93 0 0 0 0 7.86ZM432.84 321.81a3.93 3.93 0 1 0 0-7.86 3.93 3.93 0 0 0 0 7.86ZM298.05 321.81a3.93 3.93 0 1 0 0-7.86 3.93 3.93 0 0 0 0 7.86ZM285.78 321.81a3.93 3.93 0 1 0 0-7.86 3.93 3.93 0 0 0 0 7.86ZM273.53 321.81a3.93 3.93 0 1 0 0-7.86 3.93 3.93 0 0 0 0 7.86ZM261.28 321.81a3.93 3.93 0 1 0 0-7.86 3.93 3.93 0 0 0 0 7.86ZM249.03 321.81a3.93 3.93 0 1 0 0-7.86 3.93 3.93 0 0 0 0 7.86ZM236.77 321.81a3.93 3.93 0 1 0-.001-7.861 3.93 3.93 0 0 0 .001 7.861ZM739.21 309.73a3.93 3.93 0 1 0 .001-7.859 3.93 3.93 0 0 0-.001 7.859ZM714.7 309.73a3.93 3.93 0 1 0 0-7.86 3.93 3.93 0 0 0 0 7.86ZM702.45 309.73a3.93 3.93 0 1 0 0-7.86 3.93 3.93 0 0 0 0 7.86ZM518.62 309.73a3.93 3.93 0 1 0 0-7.86 3.93 3.93 0 0 0 0 7.86ZM494.12 309.73a3.93 3.93 0 1 0 0-7.86 3.93 3.93 0 0 0 0 7.86ZM481.86 309.73a3.93 3.93 0 1 0 .001-7.859 3.93 3.93 0 0 0-.001 7.859ZM469.61 309.73a3.93 3.93 0 1 0 .001-7.859 3.93 3.93 0 0 0-.001 7.859ZM457.36 309.73a3.93 3.93 0 1 0 .001-7.859 3.93 3.93 0 0 0-.001 7.859ZM445.09 309.73a3.93 3.93 0 1 0 .001-7.859 3.93 3.93 0 0 0-.001 7.859ZM432.84 309.73a3.93 3.93 0 1 0 .001-7.859 3.93 3.93 0 0 0-.001 7.859ZM298.05 309.73a3.93 3.93 0 1 0 .001-7.859 3.93 3.93 0 0 0-.001 7.859ZM285.78 309.73a3.93 3.93 0 1 0 .001-7.859 3.93 3.93 0 0 0-.001 7.859ZM273.53 309.73a3.93 3.93 0 1 0 .001-7.859 3.93 3.93 0 0 0-.001 7.859ZM261.28 309.73a3.93 3.93 0 1 0 .001-7.859 3.93 3.93 0 0 0-.001 7.859ZM249.03 309.73a3.93 3.93 0 1 0 .001-7.859 3.93 3.93 0 0 0-.001 7.859ZM236.77 309.73a3.93 3.93 0 1 0 0-7.86 3.93 3.93 0 0 0 0 7.86ZM224.52 309.73a3.93 3.93 0 1 0 0-7.86 3.93 3.93 0 0 0 0 7.86ZM751.46 297.67a3.93 3.93 0 1 0 .001-7.859 3.93 3.93 0 0 0-.001 7.859ZM739.21 297.67a3.93 3.93 0 1 0 .001-7.859 3.93 3.93 0 0 0-.001 7.859ZM702.45 297.67a3.93 3.93 0 1 0 0-7.86 3.93 3.93 0 0 0 0 7.86ZM690.2 297.67a3.93 3.93 0 1 0 0-7.86 3.93 3.93 0 0 0 0 7.86ZM677.93 297.67a3.93 3.93 0 1 0 0-7.86 3.93 3.93 0 0 0 0 7.86ZM494.12 297.67a3.93 3.93 0 1 0 0-7.86 3.93 3.93 0 0 0 0 7.86ZM481.86 297.67a3.93 3.93 0 1 0 .001-7.859 3.93 3.93 0 0 0-.001 7.859ZM469.61 297.67a3.93 3.93 0 1 0 .001-7.859 3.93 3.93 0 0 0-.001 7.859ZM457.36 297.67a3.93 3.93 0 1 0 .001-7.859 3.93 3.93 0 0 0-.001 7.859ZM445.09 297.67a3.93 3.93 0 1 0 .001-7.859 3.93 3.93 0 0 0-.001 7.859ZM432.84 297.67a3.93 3.93 0 1 0 .001-7.859 3.93 3.93 0 0 0-.001 7.859ZM310.3 297.67a3.93 3.93 0 1 0 .001-7.859 3.93 3.93 0 0 0-.001 7.859ZM298.05 297.67a3.93 3.93 0 1 0 .001-7.859 3.93 3.93 0 0 0-.001 7.859ZM285.78 297.67a3.93 3.93 0 1 0 .001-7.859 3.93 3.93 0 0 0-.001 7.859ZM273.53 297.67a3.93 3.93 0 1 0 .001-7.859 3.93 3.93 0 0 0-.001 7.859ZM261.28 297.67a3.93 3.93 0 1 0 .001-7.859 3.93 3.93 0 0 0-.001 7.859ZM249.03 297.67a3.93 3.93 0 1 0 .001-7.859 3.93 3.93 0 0 0-.001 7.859ZM236.77 297.67a3.93 3.93 0 1 0 0-7.86 3.93 3.93 0 0 0 0 7.86ZM224.52 297.67a3.93 3.93 0 1 0 0-7.86 3.93 3.93 0 0 0 0 7.86ZM212.27 297.67a3.93 3.93 0 1 0 0-7.86 3.93 3.93 0 0 0 0 7.86ZM763.71 285.59a3.93 3.93 0 1 0 0-7.86 3.93 3.93 0 0 0 0 7.86ZM739.21 285.59a3.93 3.93 0 1 0 0-7.86 3.93 3.93 0 0 0 0 7.86ZM726.95 285.59a3.93 3.93 0 1 0-.001-7.861 3.93 3.93 0 0 0 .001 7.861ZM702.45 285.59a3.93 3.93 0 1 0-.001-7.861 3.93 3.93 0 0 0 .001 7.861ZM690.2 285.59a3.93 3.93 0 1 0-.001-7.861 3.93 3.93 0 0 0 .001 7.861ZM494.12 285.59a3.93 3.93 0 1 0-.001-7.861 3.93 3.93 0 0 0 .001 7.861ZM481.86 285.59a3.93 3.93 0 1 0 0-7.86 3.93 3.93 0 0 0 0 7.86ZM469.61 285.59a3.93 3.93 0 1 0 0-7.86 3.93 3.93 0 0 0 0 7.86ZM457.36 285.59a3.93 3.93 0 1 0 0-7.86 3.93 3.93 0 0 0 0 7.86ZM445.09 285.59a3.93 3.93 0 1 0 0-7.86 3.93 3.93 0 0 0 0 7.86ZM432.84 285.59a3.93 3.93 0 1 0 0-7.86 3.93 3.93 0 0 0 0 7.86ZM310.3 285.59a3.93 3.93 0 1 0 0-7.86 3.93 3.93 0 0 0 0 7.86ZM298.05 285.59a3.93 3.93 0 1 0 0-7.86 3.93 3.93 0 0 0 0 7.86ZM285.78 285.59a3.93 3.93 0 1 0 0-7.86 3.93 3.93 0 0 0 0 7.86ZM273.53 285.59a3.93 3.93 0 1 0 0-7.86 3.93 3.93 0 0 0 0 7.86ZM261.28 285.59a3.93 3.93 0 1 0 0-7.86 3.93 3.93 0 0 0 0 7.86ZM249.03 285.59a3.93 3.93 0 1 0 0-7.86 3.93 3.93 0 0 0 0 7.86ZM236.77 285.59a3.93 3.93 0 1 0-.001-7.861 3.93 3.93 0 0 0 .001 7.861ZM224.52 285.59a3.93 3.93 0 1 0-.001-7.861 3.93 3.93 0 0 0 .001 7.861ZM212.27 285.59a3.93 3.93 0 1 0-.001-7.861 3.93 3.93 0 0 0 .001 7.861ZM702.45 273.52a3.93 3.93 0 1 0-.001-7.861 3.93 3.93 0 0 0 .001 7.861ZM690.2 273.52a3.93 3.93 0 1 0-.001-7.861 3.93 3.93 0 0 0 .001 7.861ZM677.93 273.52a3.93 3.93 0 1 0-.001-7.861 3.93 3.93 0 0 0 .001 7.861ZM665.68 273.52a3.93 3.93 0 1 0-.001-7.861 3.93 3.93 0 0 0 .001 7.861ZM641.17 273.52a3.93 3.93 0 1 0 0-7.86 3.93 3.93 0 0 0 0 7.86ZM494.12 273.52a3.93 3.93 0 1 0-.001-7.861 3.93 3.93 0 0 0 .001 7.861ZM481.86 273.52a3.93 3.93 0 1 0 0-7.86 3.93 3.93 0 0 0 0 7.86ZM469.61 273.52a3.93 3.93 0 1 0 0-7.86 3.93 3.93 0 0 0 0 7.86ZM457.36 273.52a3.93 3.93 0 1 0 0-7.86 3.93 3.93 0 0 0 0 7.86ZM445.09 273.52a3.93 3.93 0 1 0 0-7.86 3.93 3.93 0 0 0 0 7.86ZM432.84 273.52a3.93 3.93 0 1 0 0-7.86 3.93 3.93 0 0 0 0 7.86ZM273.53 273.52a3.93 3.93 0 1 0 0-7.86 3.93 3.93 0 0 0 0 7.86ZM261.28 273.52a3.93 3.93 0 1 0 0-7.86 3.93 3.93 0 0 0 0 7.86ZM249.03 273.52a3.93 3.93 0 1 0 0-7.86 3.93 3.93 0 0 0 0 7.86ZM236.77 273.52a3.93 3.93 0 1 0-.001-7.861 3.93 3.93 0 0 0 .001 7.861ZM224.52 273.52a3.93 3.93 0 1 0-.001-7.861 3.93 3.93 0 0 0 .001 7.861ZM212.27 273.52a3.93 3.93 0 1 0-.001-7.861 3.93 3.93 0 0 0 .001 7.861ZM677.93 261.44a3.93 3.93 0 1 0 0-7.86 3.93 3.93 0 0 0 0 7.86ZM641.17 261.44a3.93 3.93 0 1 0 .001-7.859 3.93 3.93 0 0 0-.001 7.859ZM628.92 261.44a3.93 3.93 0 1 0 .001-7.859 3.93 3.93 0 0 0-.001 7.859ZM592.15 261.44a3.93 3.93 0 1 0 0-7.86 3.93 3.93 0 0 0 0 7.86ZM506.37 261.44a3.93 3.93 0 1 0 0-7.86 3.93 3.93 0 0 0 0 7.86ZM494.12 261.44a3.93 3.93 0 1 0 0-7.86 3.93 3.93 0 0 0 0 7.86ZM481.86 261.44a3.93 3.93 0 1 0 .001-7.859 3.93 3.93 0 0 0-.001 7.859ZM469.61 261.44a3.93 3.93 0 1 0 .001-7.859 3.93 3.93 0 0 0-.001 7.859ZM457.36 261.44a3.93 3.93 0 1 0 .001-7.859 3.93 3.93 0 0 0-.001 7.859ZM445.09 261.44a3.93 3.93 0 1 0 .001-7.859 3.93 3.93 0 0 0-.001 7.859ZM432.84 261.44a3.93 3.93 0 1 0 .001-7.859 3.93 3.93 0 0 0-.001 7.859ZM420.59 261.44a3.93 3.93 0 1 0 .001-7.859 3.93 3.93 0 0 0-.001 7.859ZM408.34 261.44a3.93 3.93 0 1 0 .001-7.859 3.93 3.93 0 0 0-.001 7.859ZM396.08 261.44a3.93 3.93 0 1 0 0-7.86 3.93 3.93 0 0 0 0 7.86ZM383.83 261.44a3.93 3.93 0 1 0 0-7.86 3.93 3.93 0 0 0 0 7.86ZM273.53 261.44a3.93 3.93 0 1 0 .001-7.859 3.93 3.93 0 0 0-.001 7.859ZM261.28 261.44a3.93 3.93 0 1 0 .001-7.859 3.93 3.93 0 0 0-.001 7.859ZM249.03 261.44a3.93 3.93 0 1 0 .001-7.859 3.93 3.93 0 0 0-.001 7.859ZM236.77 261.44a3.93 3.93 0 1 0 0-7.86 3.93 3.93 0 0 0 0 7.86ZM224.52 261.44a3.93 3.93 0 1 0 0-7.86 3.93 3.93 0 0 0 0 7.86ZM690.2 249.37a3.93 3.93 0 1 0-.001-7.861 3.93 3.93 0 0 0 .001 7.861ZM653.43 249.37a3.93 3.93 0 1 0-.001-7.861 3.93 3.93 0 0 0 .001 7.861ZM592.15 249.37a3.93 3.93 0 1 0-.001-7.861 3.93 3.93 0 0 0 .001 7.861ZM579.9 249.37a3.93 3.93 0 1 0-.001-7.861 3.93 3.93 0 0 0 .001 7.861ZM518.62 249.37a3.93 3.93 0 1 0-.001-7.861 3.93 3.93 0 0 0 .001 7.861ZM506.37 249.37a3.93 3.93 0 1 0-.001-7.861 3.93 3.93 0 0 0 .001 7.861ZM494.12 249.37a3.93 3.93 0 1 0-.001-7.861 3.93 3.93 0 0 0 .001 7.861ZM481.86 249.37a3.93 3.93 0 1 0 0-7.86 3.93 3.93 0 0 0 0 7.86ZM469.61 249.37a3.93 3.93 0 1 0 0-7.86 3.93 3.93 0 0 0 0 7.86ZM457.36 249.37a3.93 3.93 0 1 0 0-7.86 3.93 3.93 0 0 0 0 7.86ZM445.09 249.37a3.93 3.93 0 1 0 0-7.86 3.93 3.93 0 0 0 0 7.86ZM432.84 249.37a3.93 3.93 0 1 0 0-7.86 3.93 3.93 0 0 0 0 7.86ZM420.59 249.37a3.93 3.93 0 1 0 0-7.86 3.93 3.93 0 0 0 0 7.86ZM408.34 249.37a3.93 3.93 0 1 0 0-7.86 3.93 3.93 0 0 0 0 7.86ZM396.08 249.37a3.93 3.93 0 1 0-.001-7.861 3.93 3.93 0 0 0 .001 7.861ZM383.83 249.37a3.93 3.93 0 1 0-.001-7.861 3.93 3.93 0 0 0 .001 7.861ZM371.58 249.37a3.93 3.93 0 1 0-.001-7.861 3.93 3.93 0 0 0 .001 7.861ZM249.03 249.37a3.93 3.93 0 1 0 0-7.86 3.93 3.93 0 0 0 0 7.86ZM236.77 249.37a3.93 3.93 0 1 0-.001-7.861 3.93 3.93 0 0 0 .001 7.861ZM224.52 249.37a3.93 3.93 0 1 0-.001-7.861 3.93 3.93 0 0 0 .001 7.861ZM200 249.37a3.93 3.93 0 1 0-.001-7.861 3.93 3.93 0 0 0 .001 7.861ZM690.2 237.29a3.93 3.93 0 1 0-.001-7.861 3.93 3.93 0 0 0 .001 7.861ZM653.43 237.29a3.93 3.93 0 1 0-.001-7.861 3.93 3.93 0 0 0 .001 7.861ZM641.17 237.29a3.93 3.93 0 1 0 0-7.86 3.93 3.93 0 0 0 0 7.86ZM628.92 237.29a3.93 3.93 0 1 0 0-7.86 3.93 3.93 0 0 0 0 7.86ZM592.15 237.29a3.93 3.93 0 1 0-.001-7.861 3.93 3.93 0 0 0 .001 7.861ZM579.9 237.29a3.93 3.93 0 1 0-.001-7.861 3.93 3.93 0 0 0 .001 7.861ZM518.62 237.29a3.93 3.93 0 1 0-.001-7.861 3.93 3.93 0 0 0 .001 7.861ZM506.37 237.29a3.93 3.93 0 1 0-.001-7.861 3.93 3.93 0 0 0 .001 7.861ZM494.12 237.29a3.93 3.93 0 1 0-.001-7.861 3.93 3.93 0 0 0 .001 7.861ZM481.86 237.29a3.93 3.93 0 1 0 0-7.86 3.93 3.93 0 0 0 0 7.86ZM469.61 237.29a3.93 3.93 0 1 0 0-7.86 3.93 3.93 0 0 0 0 7.86ZM457.36 237.29a3.93 3.93 0 1 0 0-7.86 3.93 3.93 0 0 0 0 7.86ZM445.09 237.29a3.93 3.93 0 1 0 0-7.86 3.93 3.93 0 0 0 0 7.86ZM432.84 237.29a3.93 3.93 0 1 0 0-7.86 3.93 3.93 0 0 0 0 7.86ZM420.59 237.29a3.93 3.93 0 1 0 0-7.86 3.93 3.93 0 0 0 0 7.86ZM408.34 237.29a3.93 3.93 0 1 0 0-7.86 3.93 3.93 0 0 0 0 7.86ZM396.08 237.29a3.93 3.93 0 1 0-.001-7.861 3.93 3.93 0 0 0 .001 7.861ZM383.83 237.29a3.93 3.93 0 1 0-.001-7.861 3.93 3.93 0 0 0 .001 7.861ZM371.58 237.29a3.93 3.93 0 1 0-.001-7.861 3.93 3.93 0 0 0 .001 7.861ZM359.31 237.29a3.93 3.93 0 1 0-.001-7.861 3.93 3.93 0 0 0 .001 7.861ZM200 237.29a3.93 3.93 0 1 0-.001-7.861 3.93 3.93 0 0 0 .001 7.861ZM187.75 237.29a3.93 3.93 0 1 0-.001-7.861 3.93 3.93 0 0 0 .001 7.861ZM653.43 225.21a3.93 3.93 0 1 0 0-7.86 3.93 3.93 0 0 0 0 7.86ZM641.17 225.21a3.93 3.93 0 1 0 .001-7.859 3.93 3.93 0 0 0-.001 7.859ZM628.92 225.21a3.93 3.93 0 1 0 .001-7.859 3.93 3.93 0 0 0-.001 7.859ZM604.4 225.21a3.93 3.93 0 1 0 0-7.86 3.93 3.93 0 0 0 0 7.86ZM592.15 225.21a3.93 3.93 0 1 0 0-7.86 3.93 3.93 0 0 0 0 7.86ZM579.9 225.21a3.93 3.93 0 1 0 0-7.86 3.93 3.93 0 0 0 0 7.86ZM567.65 225.21a3.93 3.93 0 1 0 0-7.86 3.93 3.93 0 0 0 0 7.86ZM530.89 225.21a3.93 3.93 0 1 0 0-7.86 3.93 3.93 0 0 0 0 7.86ZM518.62 225.21a3.93 3.93 0 1 0 0-7.86 3.93 3.93 0 0 0 0 7.86ZM506.37 225.21a3.93 3.93 0 1 0 0-7.86 3.93 3.93 0 0 0 0 7.86ZM494.12 225.21a3.93 3.93 0 1 0 0-7.86 3.93 3.93 0 0 0 0 7.86ZM481.86 225.21a3.93 3.93 0 1 0 .001-7.859 3.93 3.93 0 0 0-.001 7.859ZM469.61 225.21a3.93 3.93 0 1 0 .001-7.859 3.93 3.93 0 0 0-.001 7.859ZM457.36 225.21a3.93 3.93 0 1 0 .001-7.859 3.93 3.93 0 0 0-.001 7.859ZM445.09 225.21a3.93 3.93 0 1 0 .001-7.859 3.93 3.93 0 0 0-.001 7.859ZM432.84 225.21a3.93 3.93 0 1 0 .001-7.859 3.93 3.93 0 0 0-.001 7.859ZM420.59 225.21a3.93 3.93 0 1 0 .001-7.859 3.93 3.93 0 0 0-.001 7.859ZM408.34 225.21a3.93 3.93 0 1 0 .001-7.859 3.93 3.93 0 0 0-.001 7.859ZM396.08 225.21a3.93 3.93 0 1 0 0-7.86 3.93 3.93 0 0 0 0 7.86ZM383.83 225.21a3.93 3.93 0 1 0 0-7.86 3.93 3.93 0 0 0 0 7.86ZM371.58 225.21a3.93 3.93 0 1 0 0-7.86 3.93 3.93 0 0 0 0 7.86ZM359.31 225.21a3.93 3.93 0 1 0 0-7.86 3.93 3.93 0 0 0 0 7.86ZM212.27 225.21a3.93 3.93 0 1 0 0-7.86 3.93 3.93 0 0 0 0 7.86ZM187.75 225.21a3.93 3.93 0 1 0 0-7.86 3.93 3.93 0 0 0 0 7.86ZM690.2 213.14a3.93 3.93 0 1 0 0-7.86 3.93 3.93 0 0 0 0 7.86ZM677.93 213.14a3.93 3.93 0 1 0 0-7.86 3.93 3.93 0 0 0 0 7.86ZM665.68 213.14a3.93 3.93 0 1 0 0-7.86 3.93 3.93 0 0 0 0 7.86ZM653.43 213.14a3.93 3.93 0 1 0 0-7.86 3.93 3.93 0 0 0 0 7.86ZM641.17 213.14a3.93 3.93 0 1 0 .001-7.859 3.93 3.93 0 0 0-.001 7.859ZM628.92 213.14a3.93 3.93 0 1 0 .001-7.859 3.93 3.93 0 0 0-.001 7.859ZM616.67 213.14a3.93 3.93 0 1 0 .001-7.859 3.93 3.93 0 0 0-.001 7.859ZM604.4 213.14a3.93 3.93 0 1 0 0-7.86 3.93 3.93 0 0 0 0 7.86ZM592.15 213.14a3.93 3.93 0 1 0 0-7.86 3.93 3.93 0 0 0 0 7.86ZM579.9 213.14a3.93 3.93 0 1 0 0-7.86 3.93 3.93 0 0 0 0 7.86ZM567.65 213.14a3.93 3.93 0 1 0 0-7.86 3.93 3.93 0 0 0 0 7.86ZM555.39 213.14a3.93 3.93 0 1 0 0-7.86 3.93 3.93 0 0 0 0 7.86ZM543.14 213.14a3.93 3.93 0 1 0 0-7.86 3.93 3.93 0 0 0 0 7.86ZM530.89 213.14a3.93 3.93 0 1 0 0-7.86 3.93 3.93 0 0 0 0 7.86ZM518.62 213.14a3.93 3.93 0 1 0 0-7.86 3.93 3.93 0 0 0 0 7.86ZM506.37 213.14a3.93 3.93 0 1 0 0-7.86 3.93 3.93 0 0 0 0 7.86ZM494.12 213.14a3.93 3.93 0 1 0 0-7.86 3.93 3.93 0 0 0 0 7.86ZM481.86 213.14a3.93 3.93 0 1 0 .001-7.859 3.93 3.93 0 0 0-.001 7.859ZM469.61 213.14a3.93 3.93 0 1 0 .001-7.859 3.93 3.93 0 0 0-.001 7.859ZM457.36 213.14a3.93 3.93 0 1 0 .001-7.859 3.93 3.93 0 0 0-.001 7.859ZM445.09 213.14a3.93 3.93 0 1 0 .001-7.859 3.93 3.93 0 0 0-.001 7.859ZM432.84 213.14a3.93 3.93 0 1 0 .001-7.859 3.93 3.93 0 0 0-.001 7.859ZM420.59 213.14a3.93 3.93 0 1 0 .001-7.859 3.93 3.93 0 0 0-.001 7.859ZM408.34 213.14a3.93 3.93 0 1 0 .001-7.859 3.93 3.93 0 0 0-.001 7.859ZM396.08 213.14a3.93 3.93 0 1 0 0-7.86 3.93 3.93 0 0 0 0 7.86ZM383.83 213.14a3.93 3.93 0 1 0 0-7.86 3.93 3.93 0 0 0 0 7.86ZM371.58 213.14a3.93 3.93 0 1 0 0-7.86 3.93 3.93 0 0 0 0 7.86ZM690.2 201.06a3.93 3.93 0 1 0-.001-7.861 3.93 3.93 0 0 0 .001 7.861ZM677.93 201.06a3.93 3.93 0 1 0-.001-7.861 3.93 3.93 0 0 0 .001 7.861ZM665.68 201.06a3.93 3.93 0 1 0-.001-7.861 3.93 3.93 0 0 0 .001 7.861ZM653.43 201.06a3.93 3.93 0 1 0-.001-7.861 3.93 3.93 0 0 0 .001 7.861ZM641.17 201.06a3.93 3.93 0 1 0 0-7.86 3.93 3.93 0 0 0 0 7.86ZM628.92 201.06a3.93 3.93 0 1 0 0-7.86 3.93 3.93 0 0 0 0 7.86ZM616.67 201.06a3.93 3.93 0 1 0 0-7.86 3.93 3.93 0 0 0 0 7.86ZM604.4 201.06a3.93 3.93 0 1 0-.001-7.861 3.93 3.93 0 0 0 .001 7.861ZM592.15 201.06a3.93 3.93 0 1 0-.001-7.861 3.93 3.93 0 0 0 .001 7.861ZM579.9 201.06a3.93 3.93 0 1 0-.001-7.861 3.93 3.93 0 0 0 .001 7.861ZM567.65 201.06a3.93 3.93 0 1 0-.001-7.861 3.93 3.93 0 0 0 .001 7.861ZM555.39 201.06a3.93 3.93 0 1 0-.001-7.861 3.93 3.93 0 0 0 .001 7.861ZM543.14 201.06a3.93 3.93 0 1 0-.001-7.861 3.93 3.93 0 0 0 .001 7.861ZM530.89 201.06a3.93 3.93 0 1 0-.001-7.861 3.93 3.93 0 0 0 .001 7.861ZM518.62 201.06a3.93 3.93 0 1 0-.001-7.861 3.93 3.93 0 0 0 .001 7.861ZM506.37 201.06a3.93 3.93 0 1 0-.001-7.861 3.93 3.93 0 0 0 .001 7.861ZM494.12 201.06a3.93 3.93 0 1 0-.001-7.861 3.93 3.93 0 0 0 .001 7.861ZM481.86 201.06a3.93 3.93 0 1 0 0-7.86 3.93 3.93 0 0 0 0 7.86ZM469.61 201.06a3.93 3.93 0 1 0 0-7.86 3.93 3.93 0 0 0 0 7.86ZM457.36 201.06a3.93 3.93 0 1 0 0-7.86 3.93 3.93 0 0 0 0 7.86ZM445.09 201.06a3.93 3.93 0 1 0 0-7.86 3.93 3.93 0 0 0 0 7.86ZM432.84 201.06a3.93 3.93 0 1 0 0-7.86 3.93 3.93 0 0 0 0 7.86ZM420.59 201.06a3.93 3.93 0 1 0 0-7.86 3.93 3.93 0 0 0 0 7.86ZM408.34 201.06a3.93 3.93 0 1 0 0-7.86 3.93 3.93 0 0 0 0 7.86ZM396.08 201.06a3.93 3.93 0 1 0-.001-7.861 3.93 3.93 0 0 0 .001 7.861ZM383.83 201.06a3.93 3.93 0 1 0-.001-7.861 3.93 3.93 0 0 0 .001 7.861ZM726.95 188.99a3.93 3.93 0 1 0-.001-7.861 3.93 3.93 0 0 0 .001 7.861ZM714.7 188.99a3.93 3.93 0 1 0-.001-7.861 3.93 3.93 0 0 0 .001 7.861ZM702.45 188.99a3.93 3.93 0 1 0-.001-7.861 3.93 3.93 0 0 0 .001 7.861ZM677.93 188.99a3.93 3.93 0 1 0-.001-7.861 3.93 3.93 0 0 0 .001 7.861ZM665.68 188.99a3.93 3.93 0 1 0-.001-7.861 3.93 3.93 0 0 0 .001 7.861ZM653.43 188.99a3.93 3.93 0 1 0-.001-7.861 3.93 3.93 0 0 0 .001 7.861ZM641.17 188.99a3.93 3.93 0 1 0 0-7.86 3.93 3.93 0 0 0 0 7.86ZM628.92 188.99a3.93 3.93 0 1 0 0-7.86 3.93 3.93 0 0 0 0 7.86ZM616.67 188.99a3.93 3.93 0 1 0 0-7.86 3.93 3.93 0 0 0 0 7.86ZM604.4 188.99a3.93 3.93 0 1 0-.001-7.861 3.93 3.93 0 0 0 .001 7.861ZM592.15 188.99a3.93 3.93 0 1 0-.001-7.861 3.93 3.93 0 0 0 .001 7.861ZM579.9 188.99a3.93 3.93 0 1 0-.001-7.861 3.93 3.93 0 0 0 .001 7.861ZM567.65 188.99a3.93 3.93 0 1 0-.001-7.861 3.93 3.93 0 0 0 .001 7.861ZM555.39 188.99a3.93 3.93 0 1 0-.001-7.861 3.93 3.93 0 0 0 .001 7.861ZM543.14 188.99a3.93 3.93 0 1 0-.001-7.861 3.93 3.93 0 0 0 .001 7.861ZM530.89 188.99a3.93 3.93 0 1 0-.001-7.861 3.93 3.93 0 0 0 .001 7.861ZM518.62 188.99a3.93 3.93 0 1 0-.001-7.861 3.93 3.93 0 0 0 .001 7.861ZM506.37 188.99a3.93 3.93 0 1 0-.001-7.861 3.93 3.93 0 0 0 .001 7.861ZM494.12 188.99a3.93 3.93 0 1 0-.001-7.861 3.93 3.93 0 0 0 .001 7.861ZM420.59 188.99a3.93 3.93 0 1 0 0-7.86 3.93 3.93 0 0 0 0 7.86ZM408.34 188.99a3.93 3.93 0 1 0 0-7.86 3.93 3.93 0 0 0 0 7.86ZM396.08 188.99a3.93 3.93 0 1 0-.001-7.861 3.93 3.93 0 0 0 .001 7.861ZM383.83 188.99a3.93 3.93 0 1 0-.001-7.861 3.93 3.93 0 0 0 .001 7.861ZM739.21 176.91a3.93 3.93 0 1 0 .001-7.859 3.93 3.93 0 0 0-.001 7.859ZM702.45 176.91a3.93 3.93 0 1 0 0-7.86 3.93 3.93 0 0 0 0 7.86ZM690.2 176.91a3.93 3.93 0 1 0 0-7.86 3.93 3.93 0 0 0 0 7.86ZM677.93 176.91a3.93 3.93 0 1 0 0-7.86 3.93 3.93 0 0 0 0 7.86ZM665.68 176.91a3.93 3.93 0 1 0 0-7.86 3.93 3.93 0 0 0 0 7.86ZM653.43 176.91a3.93 3.93 0 1 0 0-7.86 3.93 3.93 0 0 0 0 7.86ZM641.17 176.91a3.93 3.93 0 1 0 .001-7.859 3.93 3.93 0 0 0-.001 7.859ZM628.92 176.91a3.93 3.93 0 1 0 .001-7.859 3.93 3.93 0 0 0-.001 7.859ZM616.67 176.91a3.93 3.93 0 1 0 .001-7.859 3.93 3.93 0 0 0-.001 7.859ZM604.4 176.91a3.93 3.93 0 1 0 0-7.86 3.93 3.93 0 0 0 0 7.86ZM592.15 176.91a3.93 3.93 0 1 0 0-7.86 3.93 3.93 0 0 0 0 7.86ZM579.9 176.91a3.93 3.93 0 1 0 0-7.86 3.93 3.93 0 0 0 0 7.86ZM567.65 176.91a3.93 3.93 0 1 0 0-7.86 3.93 3.93 0 0 0 0 7.86ZM555.39 176.91a3.93 3.93 0 1 0 0-7.86 3.93 3.93 0 0 0 0 7.86ZM543.14 176.91a3.93 3.93 0 1 0 0-7.86 3.93 3.93 0 0 0 0 7.86ZM530.89 176.91a3.93 3.93 0 1 0 0-7.86 3.93 3.93 0 0 0 0 7.86ZM518.62 176.91a3.93 3.93 0 1 0 0-7.86 3.93 3.93 0 0 0 0 7.86ZM506.37 176.91a3.93 3.93 0 1 0 0-7.86 3.93 3.93 0 0 0 0 7.86ZM494.12 176.91a3.93 3.93 0 1 0 0-7.86 3.93 3.93 0 0 0 0 7.86ZM481.86 176.91a3.93 3.93 0 1 0 .001-7.859 3.93 3.93 0 0 0-.001 7.859ZM469.61 176.91a3.93 3.93 0 1 0 .001-7.859 3.93 3.93 0 0 0-.001 7.859ZM457.36 176.91a3.93 3.93 0 1 0 .001-7.859 3.93 3.93 0 0 0-.001 7.859ZM445.09 176.91a3.93 3.93 0 1 0 .001-7.859 3.93 3.93 0 0 0-.001 7.859ZM396.08 176.91a3.93 3.93 0 1 0 0-7.86 3.93 3.93 0 0 0 0 7.86ZM383.83 176.91a3.93 3.93 0 1 0 0-7.86 3.93 3.93 0 0 0 0 7.86ZM739.21 164.83a3.93 3.93 0 1 0 0-7.86 3.93 3.93 0 0 0 0 7.86ZM714.7 164.83a3.93 3.93 0 1 0-.001-7.861 3.93 3.93 0 0 0 .001 7.861ZM702.45 164.83a3.93 3.93 0 1 0-.001-7.861 3.93 3.93 0 0 0 .001 7.861ZM690.2 164.83a3.93 3.93 0 1 0-.001-7.861 3.93 3.93 0 0 0 .001 7.861ZM677.93 164.83a3.93 3.93 0 1 0-.001-7.861 3.93 3.93 0 0 0 .001 7.861ZM665.68 164.83a3.93 3.93 0 1 0-.001-7.861 3.93 3.93 0 0 0 .001 7.861ZM653.43 164.83a3.93 3.93 0 1 0-.001-7.861 3.93 3.93 0 0 0 .001 7.861ZM641.17 164.83a3.93 3.93 0 1 0 0-7.86 3.93 3.93 0 0 0 0 7.86ZM628.92 164.83a3.93 3.93 0 1 0 0-7.86 3.93 3.93 0 0 0 0 7.86ZM616.67 164.83a3.93 3.93 0 1 0 0-7.86 3.93 3.93 0 0 0 0 7.86ZM604.4 164.83a3.93 3.93 0 1 0-.001-7.861 3.93 3.93 0 0 0 .001 7.861ZM592.15 164.83a3.93 3.93 0 1 0-.001-7.861 3.93 3.93 0 0 0 .001 7.861ZM579.9 164.83a3.93 3.93 0 1 0-.001-7.861 3.93 3.93 0 0 0 .001 7.861ZM567.65 164.83a3.93 3.93 0 1 0-.001-7.861 3.93 3.93 0 0 0 .001 7.861ZM555.39 164.83a3.93 3.93 0 1 0-.001-7.861 3.93 3.93 0 0 0 .001 7.861ZM543.14 164.83a3.93 3.93 0 1 0-.001-7.861 3.93 3.93 0 0 0 .001 7.861ZM530.89 164.83a3.93 3.93 0 1 0-.001-7.861 3.93 3.93 0 0 0 .001 7.861ZM518.62 164.83a3.93 3.93 0 1 0-.001-7.861 3.93 3.93 0 0 0 .001 7.861ZM506.37 164.83a3.93 3.93 0 1 0-.001-7.861 3.93 3.93 0 0 0 .001 7.861ZM494.12 164.83a3.93 3.93 0 1 0-.001-7.861 3.93 3.93 0 0 0 .001 7.861ZM481.86 164.83a3.93 3.93 0 1 0 0-7.86 3.93 3.93 0 0 0 0 7.86ZM469.61 164.83a3.93 3.93 0 1 0 0-7.86 3.93 3.93 0 0 0 0 7.86ZM457.36 164.83a3.93 3.93 0 1 0 0-7.86 3.93 3.93 0 0 0 0 7.86ZM445.09 164.83a3.93 3.93 0 1 0 0-7.86 3.93 3.93 0 0 0 0 7.86ZM432.84 164.83a3.93 3.93 0 1 0 0-7.86 3.93 3.93 0 0 0 0 7.86ZM408.34 164.83a3.93 3.93 0 1 0 0-7.86 3.93 3.93 0 0 0 0 7.86ZM396.08 164.83a3.93 3.93 0 1 0-.001-7.861 3.93 3.93 0 0 0 .001 7.861ZM383.83 164.83a3.93 3.93 0 1 0-.001-7.861 3.93 3.93 0 0 0 .001 7.861ZM739.21 152.76a3.93 3.93 0 1 0 0-7.86 3.93 3.93 0 0 0 0 7.86ZM726.95 152.76a3.93 3.93 0 1 0-.001-7.861 3.93 3.93 0 0 0 .001 7.861ZM714.7 152.76a3.93 3.93 0 1 0-.001-7.861 3.93 3.93 0 0 0 .001 7.861ZM702.45 152.76a3.93 3.93 0 1 0-.001-7.861 3.93 3.93 0 0 0 .001 7.861ZM690.2 152.76a3.93 3.93 0 1 0-.001-7.861 3.93 3.93 0 0 0 .001 7.861ZM677.93 152.76a3.93 3.93 0 1 0-.001-7.861 3.93 3.93 0 0 0 .001 7.861ZM665.68 152.76a3.93 3.93 0 1 0-.001-7.861 3.93 3.93 0 0 0 .001 7.861ZM653.43 152.76a3.93 3.93 0 1 0-.001-7.861 3.93 3.93 0 0 0 .001 7.861ZM641.17 152.76a3.93 3.93 0 1 0 0-7.86 3.93 3.93 0 0 0 0 7.86ZM628.92 152.76a3.93 3.93 0 1 0 0-7.86 3.93 3.93 0 0 0 0 7.86ZM616.67 152.76a3.93 3.93 0 1 0 0-7.86 3.93 3.93 0 0 0 0 7.86ZM604.4 152.76a3.93 3.93 0 1 0-.001-7.861 3.93 3.93 0 0 0 .001 7.861ZM592.15 152.76a3.93 3.93 0 1 0-.001-7.861 3.93 3.93 0 0 0 .001 7.861ZM579.9 152.76a3.93 3.93 0 1 0-.001-7.861 3.93 3.93 0 0 0 .001 7.861ZM567.65 152.76a3.93 3.93 0 1 0-.001-7.861 3.93 3.93 0 0 0 .001 7.861ZM555.39 152.76a3.93 3.93 0 1 0-.001-7.861 3.93 3.93 0 0 0 .001 7.861ZM543.14 152.76a3.93 3.93 0 1 0-.001-7.861 3.93 3.93 0 0 0 .001 7.861ZM530.89 152.76a3.93 3.93 0 1 0-.001-7.861 3.93 3.93 0 0 0 .001 7.861ZM518.62 152.76a3.93 3.93 0 1 0-.001-7.861 3.93 3.93 0 0 0 .001 7.861ZM506.37 152.76a3.93 3.93 0 1 0-.001-7.861 3.93 3.93 0 0 0 .001 7.861ZM494.12 152.76a3.93 3.93 0 1 0-.001-7.861 3.93 3.93 0 0 0 .001 7.861ZM481.86 152.76a3.93 3.93 0 1 0 0-7.86 3.93 3.93 0 0 0 0 7.86ZM469.61 152.76a3.93 3.93 0 1 0 0-7.86 3.93 3.93 0 0 0 0 7.86ZM457.36 152.76a3.93 3.93 0 1 0 0-7.86 3.93 3.93 0 0 0 0 7.86ZM445.09 152.76a3.93 3.93 0 1 0 0-7.86 3.93 3.93 0 0 0 0 7.86ZM432.84 152.76a3.93 3.93 0 1 0 0-7.86 3.93 3.93 0 0 0 0 7.86ZM420.59 152.76a3.93 3.93 0 1 0 0-7.86 3.93 3.93 0 0 0 0 7.86ZM408.34 152.76a3.93 3.93 0 1 0 0-7.86 3.93 3.93 0 0 0 0 7.86ZM396.08 152.76a3.93 3.93 0 1 0-.001-7.861 3.93 3.93 0 0 0 .001 7.861Z"/><path fill="#DDC666" d="M261.28 152.76a3.93 3.93 0 1 0 0-7.86 3.93 3.93 0 0 0 0 7.86Z"/><path fill="#3187AD" d="M175.5 237.12a3.93 3.93 0 1 0-.001-7.861 3.93 3.93 0 0 0 .001 7.861ZM163.5 225.12a3.93 3.93 0 1 0-.001-7.861 3.93 3.93 0 0 0 .001 7.861ZM150.5 225.12a3.93 3.93 0 1 0-.001-7.861 3.93 3.93 0 0 0 .001 7.861ZM163.5 213.12a3.93 3.93 0 1 0-.001-7.861 3.93 3.93 0 0 0 .001 7.861ZM150.5 213.12a3.93 3.93 0 1 0-.001-7.861 3.93 3.93 0 0 0 .001 7.861ZM138.5 213.12a3.93 3.93 0 1 0-.001-7.861 3.93 3.93 0 0 0 .001 7.861ZM200 201.06a3.93 3.93 0 1 0-.001-7.861 3.93 3.93 0 0 0 .001 7.861ZM187.75 201.06a3.93 3.93 0 1 0-.001-7.861 3.93 3.93 0 0 0 .001 7.861ZM175.5 201.06a3.93 3.93 0 1 0-.001-7.861 3.93 3.93 0 0 0 .001 7.861ZM163.24 201.06a3.93 3.93 0 1 0-.001-7.861 3.93 3.93 0 0 0 .001 7.861ZM150.99 201.06a3.93 3.93 0 1 0-.001-7.861 3.93 3.93 0 0 0 .001 7.861ZM138.5 201.12a3.93 3.93 0 1 0-.001-7.861 3.93 3.93 0 0 0 .001 7.861ZM126.5 201.12a3.93 3.93 0 1 0-.001-7.861 3.93 3.93 0 0 0 .001 7.861ZM212.27 188.99a3.93 3.93 0 1 0-.001-7.861 3.93 3.93 0 0 0 .001 7.861ZM200 188.99a3.93 3.93 0 1 0-.001-7.861 3.93 3.93 0 0 0 .001 7.861ZM187.75 188.99a3.93 3.93 0 1 0-.001-7.861 3.93 3.93 0 0 0 .001 7.861ZM175.5 188.99a3.93 3.93 0 1 0-.001-7.861 3.93 3.93 0 0 0 .001 7.861ZM163.24 188.99a3.93 3.93 0 1 0-.001-7.861 3.93 3.93 0 0 0 .001 7.861ZM150.99 188.99a3.93 3.93 0 1 0-.001-7.861 3.93 3.93 0 0 0 .001 7.861ZM138.74 188.99a3.93 3.93 0 1 0-.001-7.861 3.93 3.93 0 0 0 .001 7.861ZM126.49 188.99a3.93 3.93 0 1 0-.001-7.861 3.93 3.93 0 0 0 .001 7.861ZM114.23 188.99a3.93 3.93 0 1 0-.001-7.861 3.93 3.93 0 0 0 .001 7.861ZM212.27 176.91a3.93 3.93 0 1 0-.001-7.861 3.93 3.93 0 0 0 .001 7.861ZM200 176.91a3.93 3.93 0 1 0-.001-7.861 3.93 3.93 0 0 0 .001 7.861ZM187.75 176.91a3.93 3.93 0 1 0-.001-7.861 3.93 3.93 0 0 0 .001 7.861ZM175.5 176.91a3.93 3.93 0 1 0-.001-7.861 3.93 3.93 0 0 0 .001 7.861ZM163.24 176.91a3.93 3.93 0 1 0-.001-7.861 3.93 3.93 0 0 0 .001 7.861ZM150.99 176.91a3.93 3.93 0 1 0-.001-7.861 3.93 3.93 0 0 0 .001 7.861ZM138.74 176.91a3.93 3.93 0 1 0-.001-7.861 3.93 3.93 0 0 0 .001 7.861ZM126.49 176.91a3.93 3.93 0 1 0-.001-7.861 3.93 3.93 0 0 0 .001 7.861ZM114.23 176.91a3.93 3.93 0 1 0-.001-7.861 3.93 3.93 0 0 0 .001 7.861ZM101.98 176.91a3.93 3.93 0 1 0-.001-7.861 3.93 3.93 0 0 0 .001 7.861ZM224.52 164.83a3.93 3.93 0 1 0-.001-7.861 3.93 3.93 0 0 0 .001 7.861ZM212.27 164.83a3.93 3.93 0 1 0-.001-7.861 3.93 3.93 0 0 0 .001 7.861ZM200 164.83a3.93 3.93 0 1 0-.001-7.861 3.93 3.93 0 0 0 .001 7.861ZM187.75 164.83a3.93 3.93 0 1 0-.001-7.861 3.93 3.93 0 0 0 .001 7.861ZM175.5 164.83a3.93 3.93 0 1 0-.001-7.861 3.93 3.93 0 0 0 .001 7.861ZM163.24 164.83a3.93 3.93 0 1 0-.001-7.861 3.93 3.93 0 0 0 .001 7.861ZM150.99 164.83a3.93 3.93 0 1 0-.001-7.861 3.93 3.93 0 0 0 .001 7.861ZM138.74 164.83a3.93 3.93 0 1 0-.001-7.861 3.93 3.93 0 0 0 .001 7.861ZM126.49 164.83a3.93 3.93 0 1 0-.001-7.861 3.93 3.93 0 0 0 .001 7.861ZM114.23 164.83a3.93 3.93 0 1 0-.001-7.861 3.93 3.93 0 0 0 .001 7.861ZM101.98 164.83a3.93 3.93 0 1 0-.001-7.861 3.93 3.93 0 0 0 .001 7.861ZM236.77 152.76a3.93 3.93 0 1 0-.001-7.861 3.93 3.93 0 0 0 .001 7.861ZM224.52 152.76a3.93 3.93 0 1 0-.001-7.861 3.93 3.93 0 0 0 .001 7.861ZM212.27 152.76a3.93 3.93 0 1 0-.001-7.861 3.93 3.93 0 0 0 .001 7.861ZM200 152.76a3.93 3.93 0 1 0-.001-7.861 3.93 3.93 0 0 0 .001 7.861ZM187.75 152.76a3.93 3.93 0 1 0-.001-7.861 3.93 3.93 0 0 0 .001 7.861ZM175.5 152.76a3.93 3.93 0 1 0-.001-7.861 3.93 3.93 0 0 0 .001 7.861ZM163.24 152.76a3.93 3.93 0 1 0-.001-7.861 3.93 3.93 0 0 0 .001 7.861ZM150.99 152.76a3.93 3.93 0 1 0-.001-7.861 3.93 3.93 0 0 0 .001 7.861ZM138.74 152.76a3.93 3.93 0 1 0-.001-7.861 3.93 3.93 0 0 0 .001 7.861ZM126.49 152.76a3.93 3.93 0 1 0-.001-7.861 3.93 3.93 0 0 0 .001 7.861ZM114.23 152.76a3.93 3.93 0 1 0-.001-7.861 3.93 3.93 0 0 0 .001 7.861ZM101.98 152.76a3.93 3.93 0 1 0-.001-7.861 3.93 3.93 0 0 0 .001 7.861ZM775.98 140.68a3.93 3.93 0 1 0 0-7.86 3.93 3.93 0 0 0 0 7.86ZM739.21 140.68a3.93 3.93 0 1 0 .001-7.859 3.93 3.93 0 0 0-.001 7.859ZM726.95 140.68a3.93 3.93 0 1 0 0-7.86 3.93 3.93 0 0 0 0 7.86ZM714.7 140.68a3.93 3.93 0 1 0 0-7.86 3.93 3.93 0 0 0 0 7.86ZM702.45 140.68a3.93 3.93 0 1 0 0-7.86 3.93 3.93 0 0 0 0 7.86ZM690.2 140.68a3.93 3.93 0 1 0 0-7.86 3.93 3.93 0 0 0 0 7.86ZM677.93 140.68a3.93 3.93 0 1 0 0-7.86 3.93 3.93 0 0 0 0 7.86ZM665.68 140.68a3.93 3.93 0 1 0 0-7.86 3.93 3.93 0 0 0 0 7.86ZM653.43 140.68a3.93 3.93 0 1 0 0-7.86 3.93 3.93 0 0 0 0 7.86ZM641.17 140.68a3.93 3.93 0 1 0 .001-7.859 3.93 3.93 0 0 0-.001 7.859ZM628.92 140.68a3.93 3.93 0 1 0 .001-7.859 3.93 3.93 0 0 0-.001 7.859ZM616.67 140.68a3.93 3.93 0 1 0 .001-7.859 3.93 3.93 0 0 0-.001 7.859ZM604.4 140.68a3.93 3.93 0 1 0 0-7.86 3.93 3.93 0 0 0 0 7.86ZM592.15 140.68a3.93 3.93 0 1 0 0-7.86 3.93 3.93 0 0 0 0 7.86ZM579.9 140.68a3.93 3.93 0 1 0 0-7.86 3.93 3.93 0 0 0 0 7.86ZM567.65 140.68a3.93 3.93 0 1 0 0-7.86 3.93 3.93 0 0 0 0 7.86ZM555.39 140.68a3.93 3.93 0 1 0 0-7.86 3.93 3.93 0 0 0 0 7.86ZM543.14 140.68a3.93 3.93 0 1 0 0-7.86 3.93 3.93 0 0 0 0 7.86ZM530.89 140.68a3.93 3.93 0 1 0 0-7.86 3.93 3.93 0 0 0 0 7.86ZM518.62 140.68a3.93 3.93 0 1 0 0-7.86 3.93 3.93 0 0 0 0 7.86ZM506.37 140.68a3.93 3.93 0 1 0 0-7.86 3.93 3.93 0 0 0 0 7.86ZM494.12 140.68a3.93 3.93 0 1 0 0-7.86 3.93 3.93 0 0 0 0 7.86ZM481.86 140.68a3.93 3.93 0 1 0 .001-7.859 3.93 3.93 0 0 0-.001 7.859ZM469.61 140.68a3.93 3.93 0 1 0 .001-7.859 3.93 3.93 0 0 0-.001 7.859ZM457.36 140.68a3.93 3.93 0 1 0 .001-7.859 3.93 3.93 0 0 0-.001 7.859ZM445.09 140.68a3.93 3.93 0 1 0 .001-7.859 3.93 3.93 0 0 0-.001 7.859ZM432.84 140.68a3.93 3.93 0 1 0 .001-7.859 3.93 3.93 0 0 0-.001 7.859ZM420.59 140.68a3.93 3.93 0 1 0 .001-7.859 3.93 3.93 0 0 0-.001 7.859ZM408.34 140.68a3.93 3.93 0 1 0 .001-7.859 3.93 3.93 0 0 0-.001 7.859ZM396.08 140.68a3.93 3.93 0 1 0 0-7.86 3.93 3.93 0 0 0 0 7.86Z"/><path fill="#DDC666" d="M261.28 140.68a3.93 3.93 0 1 0 .001-7.859 3.93 3.93 0 0 0-.001 7.859ZM249.03 140.68a3.93 3.93 0 1 0 .001-7.859 3.93 3.93 0 0 0-.001 7.859ZM236.77 140.68a3.93 3.93 0 1 0 0-7.86 3.93 3.93 0 0 0 0 7.86ZM224.52 140.68a3.93 3.93 0 1 0 0-7.86 3.93 3.93 0 0 0 0 7.86ZM212.27 140.68a3.93 3.93 0 1 0 0-7.86 3.93 3.93 0 0 0 0 7.86ZM199.69 140.68a3.93 3.93 0 1 0 0-7.86 3.93 3.93 0 0 0 0 7.86ZM187.69 141.12a3.93 3.93 0 1 0-.001-7.861 3.93 3.93 0 0 0 .001 7.861ZM175.69 140.68a3.93 3.93 0 1 0 0-7.86 3.93 3.93 0 0 0 0 7.86ZM163.69 140.68a3.93 3.93 0 1 0 0-7.86 3.93 3.93 0 0 0 0 7.86ZM150.69 140.68a3.93 3.93 0 1 0 0-7.86 3.93 3.93 0 0 0 0 7.86ZM138.69 140.68a3.93 3.93 0 1 0 0-7.86 3.93 3.93 0 0 0 0 7.86ZM126.69 140.68a3.93 3.93 0 1 0 0-7.86 3.93 3.93 0 0 0 0 7.86ZM114.69 140.68a3.93 3.93 0 1 0 0-7.86 3.93 3.93 0 0 0 0 7.86ZM101.69 140.68a3.93 3.93 0 1 0 0-7.86 3.93 3.93 0 0 0 0 7.86Z"/><path fill="#3187AD" d="M800.47 128.61a3.93 3.93 0 1 0 0-7.86 3.93 3.93 0 0 0 0 7.86ZM788.23 128.61a3.93 3.93 0 1 0-.001-7.861 3.93 3.93 0 0 0 .001 7.861ZM775.98 128.61a3.93 3.93 0 1 0-.001-7.861 3.93 3.93 0 0 0 .001 7.861ZM726.95 128.61a3.93 3.93 0 1 0-.001-7.861 3.93 3.93 0 0 0 .001 7.861ZM714.7 128.61a3.93 3.93 0 1 0-.001-7.861 3.93 3.93 0 0 0 .001 7.861ZM702.45 128.61a3.93 3.93 0 1 0-.001-7.861 3.93 3.93 0 0 0 .001 7.861ZM690.2 128.61a3.93 3.93 0 1 0-.001-7.861 3.93 3.93 0 0 0 .001 7.861ZM677.93 128.61a3.93 3.93 0 1 0-.001-7.861 3.93 3.93 0 0 0 .001 7.861ZM665.68 128.61a3.93 3.93 0 1 0-.001-7.861 3.93 3.93 0 0 0 .001 7.861ZM653.43 128.61a3.93 3.93 0 1 0-.001-7.861 3.93 3.93 0 0 0 .001 7.861ZM641.17 128.61a3.93 3.93 0 1 0 0-7.86 3.93 3.93 0 0 0 0 7.86ZM628.92 128.61a3.93 3.93 0 1 0 0-7.86 3.93 3.93 0 0 0 0 7.86ZM616.67 128.61a3.93 3.93 0 1 0 0-7.86 3.93 3.93 0 0 0 0 7.86ZM604.4 128.61a3.93 3.93 0 1 0-.001-7.861 3.93 3.93 0 0 0 .001 7.861ZM592.15 128.61a3.93 3.93 0 1 0-.001-7.861 3.93 3.93 0 0 0 .001 7.861ZM579.9 128.61a3.93 3.93 0 1 0-.001-7.861 3.93 3.93 0 0 0 .001 7.861ZM567.65 128.61a3.93 3.93 0 1 0-.001-7.861 3.93 3.93 0 0 0 .001 7.861ZM555.39 128.61a3.93 3.93 0 1 0-.001-7.861 3.93 3.93 0 0 0 .001 7.861ZM543.14 128.61a3.93 3.93 0 1 0-.001-7.861 3.93 3.93 0 0 0 .001 7.861ZM530.89 128.61a3.93 3.93 0 1 0-.001-7.861 3.93 3.93 0 0 0 .001 7.861ZM518.62 128.61a3.93 3.93 0 1 0-.001-7.861 3.93 3.93 0 0 0 .001 7.861ZM506.37 128.61a3.93 3.93 0 1 0-.001-7.861 3.93 3.93 0 0 0 .001 7.861ZM494.12 128.61a3.93 3.93 0 1 0-.001-7.861 3.93 3.93 0 0 0 .001 7.861ZM481.86 128.61a3.93 3.93 0 1 0 0-7.86 3.93 3.93 0 0 0 0 7.86ZM469.61 128.61a3.93 3.93 0 1 0 0-7.86 3.93 3.93 0 0 0 0 7.86ZM457.36 128.61a3.93 3.93 0 1 0 0-7.86 3.93 3.93 0 0 0 0 7.86ZM445.09 128.61a3.93 3.93 0 1 0 0-7.86 3.93 3.93 0 0 0 0 7.86ZM420.59 128.61a3.93 3.93 0 1 0 0-7.86 3.93 3.93 0 0 0 0 7.86ZM396.08 128.61a3.93 3.93 0 1 0-.001-7.861 3.93 3.93 0 0 0 .001 7.861ZM383.83 128.61a3.93 3.93 0 1 0-.001-7.861 3.93 3.93 0 0 0 .001 7.861Z"/><path fill="#DDC666" d="M261.28 128.61a3.93 3.93 0 1 0 0-7.86 3.93 3.93 0 0 0 0 7.86ZM249.03 128.61a3.93 3.93 0 1 0 0-7.86 3.93 3.93 0 0 0 0 7.86ZM236.77 128.61a3.93 3.93 0 1 0-.001-7.861 3.93 3.93 0 0 0 .001 7.861ZM224.52 128.61a3.93 3.93 0 1 0-.001-7.861 3.93 3.93 0 0 0 .001 7.861ZM212.69 128.12a3.93 3.93 0 1 0-.001-7.861 3.93 3.93 0 0 0 .001 7.861ZM199.69 128.68a3.93 3.93 0 1 0 0-7.86 3.93 3.93 0 0 0 0 7.86ZM187.69 129.12a3.93 3.93 0 1 0-.001-7.861 3.93 3.93 0 0 0 .001 7.861ZM175.69 128.68a3.93 3.93 0 1 0 0-7.86 3.93 3.93 0 0 0 0 7.86ZM163.69 128.68a3.93 3.93 0 1 0 0-7.86 3.93 3.93 0 0 0 0 7.86ZM150.69 128.68a3.93 3.93 0 1 0 0-7.86 3.93 3.93 0 0 0 0 7.86ZM138.69 128.68a3.93 3.93 0 1 0 0-7.86 3.93 3.93 0 0 0 0 7.86ZM126.69 128.68a3.93 3.93 0 1 0 0-7.86 3.93 3.93 0 0 0 0 7.86ZM114.69 128.68a3.93 3.93 0 1 0 0-7.86 3.93 3.93 0 0 0 0 7.86ZM101.69 128.68a3.93 3.93 0 1 0 0-7.86 3.93 3.93 0 0 0 0 7.86ZM89.69 128.68a3.93 3.93 0 1 0 0-7.86 3.93 3.93 0 0 0 0 7.86Z"/><path fill="#3187AD" d="M3.93 128.61a3.93 3.93 0 1 0 0-7.86 3.93 3.93 0 0 0 0 7.86ZM788.23 116.54a3.93 3.93 0 1 0-.001-7.861 3.93 3.93 0 0 0 .001 7.861ZM775.98 116.54a3.93 3.93 0 1 0-.001-7.861 3.93 3.93 0 0 0 .001 7.861ZM763.71 116.54a3.93 3.93 0 1 0 0-7.86 3.93 3.93 0 0 0 0 7.86ZM739.21 116.54a3.93 3.93 0 1 0 0-7.86 3.93 3.93 0 0 0 0 7.86ZM726.95 116.54a3.93 3.93 0 1 0-.001-7.861 3.93 3.93 0 0 0 .001 7.861ZM714.7 116.54a3.93 3.93 0 1 0-.001-7.861 3.93 3.93 0 0 0 .001 7.861ZM702.45 116.54a3.93 3.93 0 1 0-.001-7.861 3.93 3.93 0 0 0 .001 7.861ZM690.2 116.54a3.93 3.93 0 1 0-.001-7.861 3.93 3.93 0 0 0 .001 7.861ZM677.93 116.54a3.93 3.93 0 1 0-.001-7.861 3.93 3.93 0 0 0 .001 7.861ZM665.68 116.54a3.93 3.93 0 1 0-.001-7.861 3.93 3.93 0 0 0 .001 7.861ZM653.43 116.54a3.93 3.93 0 1 0-.001-7.861 3.93 3.93 0 0 0 .001 7.861ZM641.17 116.54a3.93 3.93 0 1 0 0-7.86 3.93 3.93 0 0 0 0 7.86ZM628.92 116.54a3.93 3.93 0 1 0 0-7.86 3.93 3.93 0 0 0 0 7.86ZM616.67 116.54a3.93 3.93 0 1 0 0-7.86 3.93 3.93 0 0 0 0 7.86ZM604.4 116.54a3.93 3.93 0 1 0-.001-7.861 3.93 3.93 0 0 0 .001 7.861ZM592.15 116.54a3.93 3.93 0 1 0-.001-7.861 3.93 3.93 0 0 0 .001 7.861ZM579.9 116.54a3.93 3.93 0 1 0-.001-7.861 3.93 3.93 0 0 0 .001 7.861ZM567.65 116.54a3.93 3.93 0 1 0-.001-7.861 3.93 3.93 0 0 0 .001 7.861ZM555.39 116.54a3.93 3.93 0 1 0-.001-7.861 3.93 3.93 0 0 0 .001 7.861ZM543.14 116.54a3.93 3.93 0 1 0-.001-7.861 3.93 3.93 0 0 0 .001 7.861ZM530.89 116.54a3.93 3.93 0 1 0-.001-7.861 3.93 3.93 0 0 0 .001 7.861ZM518.62 116.54a3.93 3.93 0 1 0-.001-7.861 3.93 3.93 0 0 0 .001 7.861ZM506.37 116.54a3.93 3.93 0 1 0-.001-7.861 3.93 3.93 0 0 0 .001 7.861ZM494.12 116.54a3.93 3.93 0 1 0-.001-7.861 3.93 3.93 0 0 0 .001 7.861ZM481.86 116.54a3.93 3.93 0 1 0 0-7.86 3.93 3.93 0 0 0 0 7.86ZM469.61 116.54a3.93 3.93 0 1 0 0-7.86 3.93 3.93 0 0 0 0 7.86ZM457.36 116.54a3.93 3.93 0 1 0 0-7.86 3.93 3.93 0 0 0 0 7.86ZM432.84 116.54a3.93 3.93 0 1 0 0-7.86 3.93 3.93 0 0 0 0 7.86ZM420.59 116.54a3.93 3.93 0 1 0 0-7.86 3.93 3.93 0 0 0 0 7.86ZM383.83 116.54a3.93 3.93 0 1 0-.001-7.861 3.93 3.93 0 0 0 .001 7.861Z"/><path fill="#DDC666" d="M249.03 116.54a3.93 3.93 0 1 0 0-7.86 3.93 3.93 0 0 0 0 7.86ZM236.77 116.54a3.93 3.93 0 1 0-.001-7.861 3.93 3.93 0 0 0 .001 7.861ZM224.52 116.54a3.93 3.93 0 1 0-.001-7.861 3.93 3.93 0 0 0 .001 7.861ZM212.69 116.12a3.93 3.93 0 1 0-.001-7.861 3.93 3.93 0 0 0 .001 7.861ZM175.69 116.68a3.93 3.93 0 1 0 0-7.86 3.93 3.93 0 0 0 0 7.86ZM163.69 116.68a3.93 3.93 0 1 0 0-7.86 3.93 3.93 0 0 0 0 7.86ZM150.69 116.68a3.93 3.93 0 1 0 0-7.86 3.93 3.93 0 0 0 0 7.86ZM138.69 116.68a3.93 3.93 0 1 0 0-7.86 3.93 3.93 0 0 0 0 7.86ZM126.69 116.68a3.93 3.93 0 1 0 0-7.86 3.93 3.93 0 0 0 0 7.86ZM114.69 116.68a3.93 3.93 0 1 0 0-7.86 3.93 3.93 0 0 0 0 7.86ZM101.69 116.68a3.93 3.93 0 1 0 0-7.86 3.93 3.93 0 0 0 0 7.86ZM89.69 116.12a3.93 3.93 0 1 0 0-7.86 3.93 3.93 0 0 0 0 7.86ZM77.69 116.68a3.93 3.93 0 1 0 0-7.86 3.93 3.93 0 0 0 0 7.86Z"/><path fill="#3187AD" d="M28.45 116.54a3.93 3.93 0 1 0 0-7.86 3.93 3.93 0 0 0 0 7.86ZM16.2 116.54a3.93 3.93 0 1 0 0-7.86 3.93 3.93 0 0 0 0 7.86ZM812.74 104.47a3.93 3.93 0 1 0 .001-7.859 3.93 3.93 0 0 0-.001 7.859ZM800.47 104.47a3.93 3.93 0 1 0 .001-7.859 3.93 3.93 0 0 0-.001 7.859ZM788.23 104.47a3.93 3.93 0 1 0 0-7.86 3.93 3.93 0 0 0 0 7.86ZM775.98 104.47a3.93 3.93 0 1 0 0-7.86 3.93 3.93 0 0 0 0 7.86ZM763.71 104.47a3.93 3.93 0 1 0 .001-7.859 3.93 3.93 0 0 0-.001 7.859ZM751.46 104.47a3.93 3.93 0 1 0 .001-7.859 3.93 3.93 0 0 0-.001 7.859ZM739.21 104.47a3.93 3.93 0 1 0 .001-7.859 3.93 3.93 0 0 0-.001 7.859ZM726.95 104.47a3.93 3.93 0 1 0 0-7.86 3.93 3.93 0 0 0 0 7.86ZM714.7 104.47a3.93 3.93 0 1 0 0-7.86 3.93 3.93 0 0 0 0 7.86ZM702.45 104.47a3.93 3.93 0 1 0 0-7.86 3.93 3.93 0 0 0 0 7.86ZM690.2 104.47a3.93 3.93 0 1 0 0-7.86 3.93 3.93 0 0 0 0 7.86ZM677.93 104.47a3.93 3.93 0 1 0 0-7.86 3.93 3.93 0 0 0 0 7.86ZM665.68 104.47a3.93 3.93 0 1 0 0-7.86 3.93 3.93 0 0 0 0 7.86ZM653.43 104.47a3.93 3.93 0 1 0 0-7.86 3.93 3.93 0 0 0 0 7.86ZM641.17 104.47a3.93 3.93 0 1 0 .001-7.859 3.93 3.93 0 0 0-.001 7.859ZM628.92 104.47a3.93 3.93 0 1 0 .001-7.859 3.93 3.93 0 0 0-.001 7.859ZM616.67 104.47a3.93 3.93 0 1 0 .001-7.859 3.93 3.93 0 0 0-.001 7.859ZM604.4 104.47a3.93 3.93 0 1 0 0-7.86 3.93 3.93 0 0 0 0 7.86ZM592.15 104.47a3.93 3.93 0 1 0 0-7.86 3.93 3.93 0 0 0 0 7.86ZM579.9 104.47a3.93 3.93 0 1 0 0-7.86 3.93 3.93 0 0 0 0 7.86ZM567.65 104.47a3.93 3.93 0 1 0 0-7.86 3.93 3.93 0 0 0 0 7.86ZM555.39 104.47a3.93 3.93 0 1 0 0-7.86 3.93 3.93 0 0 0 0 7.86ZM543.14 104.47a3.93 3.93 0 1 0 0-7.86 3.93 3.93 0 0 0 0 7.86ZM530.89 104.47a3.93 3.93 0 1 0 0-7.86 3.93 3.93 0 0 0 0 7.86ZM518.62 104.47a3.93 3.93 0 1 0 0-7.86 3.93 3.93 0 0 0 0 7.86ZM506.37 104.47a3.93 3.93 0 1 0 0-7.86 3.93 3.93 0 0 0 0 7.86ZM494.12 104.47a3.93 3.93 0 1 0 0-7.86 3.93 3.93 0 0 0 0 7.86ZM481.86 104.47a3.93 3.93 0 1 0 .001-7.859 3.93 3.93 0 0 0-.001 7.859ZM469.61 104.47a3.93 3.93 0 1 0 .001-7.859 3.93 3.93 0 0 0-.001 7.859ZM457.36 104.47a3.93 3.93 0 1 0 .001-7.859 3.93 3.93 0 0 0-.001 7.859ZM432.84 104.47a3.93 3.93 0 1 0 .001-7.859 3.93 3.93 0 0 0-.001 7.859ZM420.59 104.47a3.93 3.93 0 1 0 .001-7.859 3.93 3.93 0 0 0-.001 7.859ZM298.05 104.47a3.93 3.93 0 1 0 .001-7.859 3.93 3.93 0 0 0-.001 7.859ZM285.78 104.47a3.93 3.93 0 1 0 .001-7.859 3.93 3.93 0 0 0-.001 7.859Z"/><path fill="#DDC666" d="M236.77 104.47a3.93 3.93 0 1 0 0-7.86 3.93 3.93 0 0 0 0 7.86ZM224.52 104.47a3.93 3.93 0 1 0 0-7.86 3.93 3.93 0 0 0 0 7.86ZM212.69 104.12a3.93 3.93 0 1 0-.001-7.861 3.93 3.93 0 0 0 .001 7.861ZM199.69 104.68a3.93 3.93 0 1 0 0-7.86 3.93 3.93 0 0 0 0 7.86ZM175.69 104.68a3.93 3.93 0 1 0 0-7.86 3.93 3.93 0 0 0 0 7.86ZM163.69 104.68a3.93 3.93 0 1 0 0-7.86 3.93 3.93 0 0 0 0 7.86ZM150.69 104.68a3.93 3.93 0 1 0 0-7.86 3.93 3.93 0 0 0 0 7.86ZM138.69 104.68a3.93 3.93 0 1 0 0-7.86 3.93 3.93 0 0 0 0 7.86ZM126.69 104.68a3.93 3.93 0 1 0 0-7.86 3.93 3.93 0 0 0 0 7.86ZM114.69 104.68a3.93 3.93 0 1 0 0-7.86 3.93 3.93 0 0 0 0 7.86ZM101.69 104.68a3.93 3.93 0 1 0 0-7.86 3.93 3.93 0 0 0 0 7.86ZM89.69 104.68a3.93 3.93 0 1 0 0-7.86 3.93 3.93 0 0 0 0 7.86ZM77.69 104.68a3.93 3.93 0 1 0 0-7.86 3.93 3.93 0 0 0 0 7.86ZM65.69 104.68a3.93 3.93 0 1 0 0-7.86 3.93 3.93 0 0 0 0 7.86ZM52.69 104.68a3.93 3.93 0 1 0 0-7.86 3.93 3.93 0 0 0 0 7.86ZM40.69 104.68a3.93 3.93 0 1 0 0-7.86 3.93 3.93 0 0 0 0 7.86Z"/><path fill="#3187AD" d="M28.45 104.47a3.93 3.93 0 1 0 0-7.86 3.93 3.93 0 0 0 0 7.86ZM16.2 104.47a3.93 3.93 0 1 0 0-7.86 3.93 3.93 0 0 0 0 7.86ZM3.93 104.47a3.93 3.93 0 1 0 0-7.86 3.93 3.93 0 0 0 0 7.86ZM849.51 92.39a3.93 3.93 0 1 0 0-7.86 3.93 3.93 0 0 0 0 7.86ZM824.99 92.39a3.93 3.93 0 1 0 0-7.86 3.93 3.93 0 0 0 0 7.86ZM812.74 92.39a3.93 3.93 0 1 0 0-7.86 3.93 3.93 0 0 0 0 7.86ZM800.47 92.39a3.93 3.93 0 1 0 0-7.86 3.93 3.93 0 0 0 0 7.86ZM788.23 92.39a3.93 3.93 0 1 0 0-7.86 3.93 3.93 0 0 0 0 7.86ZM775.98 92.39a3.93 3.93 0 1 0 0-7.86 3.93 3.93 0 0 0 0 7.86ZM763.71 92.39a3.93 3.93 0 1 0 0-7.86 3.93 3.93 0 0 0 0 7.86ZM751.46 92.39a3.93 3.93 0 1 0 0-7.86 3.93 3.93 0 0 0 0 7.86ZM739.21 92.39a3.93 3.93 0 1 0 0-7.86 3.93 3.93 0 0 0 0 7.86ZM726.95 92.39a3.93 3.93 0 1 0 0-7.86 3.93 3.93 0 0 0 0 7.86ZM714.7 92.39a3.93 3.93 0 1 0 0-7.86 3.93 3.93 0 0 0 0 7.86ZM702.45 92.39a3.93 3.93 0 1 0 0-7.86 3.93 3.93 0 0 0 0 7.86ZM690.2 92.39a3.93 3.93 0 1 0 0-7.86 3.93 3.93 0 0 0 0 7.86ZM677.93 92.39a3.93 3.93 0 1 0 0-7.86 3.93 3.93 0 0 0 0 7.86ZM665.68 92.39a3.93 3.93 0 1 0 0-7.86 3.93 3.93 0 0 0 0 7.86ZM653.43 92.39a3.93 3.93 0 1 0 0-7.86 3.93 3.93 0 0 0 0 7.86ZM641.17 92.39a3.93 3.93 0 1 0 0-7.86 3.93 3.93 0 0 0 0 7.86ZM628.92 92.39a3.93 3.93 0 1 0 0-7.86 3.93 3.93 0 0 0 0 7.86ZM616.67 92.39a3.93 3.93 0 1 0 0-7.86 3.93 3.93 0 0 0 0 7.86ZM604.4 92.39a3.93 3.93 0 1 0 0-7.86 3.93 3.93 0 0 0 0 7.86ZM592.15 92.39a3.93 3.93 0 1 0 0-7.86 3.93 3.93 0 0 0 0 7.86ZM579.9 92.39a3.93 3.93 0 1 0 0-7.86 3.93 3.93 0 0 0 0 7.86ZM567.65 92.39a3.93 3.93 0 1 0 0-7.86 3.93 3.93 0 0 0 0 7.86ZM555.39 92.39a3.93 3.93 0 1 0 0-7.86 3.93 3.93 0 0 0 0 7.86ZM543.14 92.39a3.93 3.93 0 1 0 0-7.86 3.93 3.93 0 0 0 0 7.86ZM530.89 92.39a3.93 3.93 0 1 0 0-7.86 3.93 3.93 0 0 0 0 7.86ZM518.62 92.39a3.93 3.93 0 1 0 0-7.86 3.93 3.93 0 0 0 0 7.86ZM506.37 92.39a3.93 3.93 0 1 0 0-7.86 3.93 3.93 0 0 0 0 7.86ZM494.12 92.39a3.93 3.93 0 1 0 0-7.86 3.93 3.93 0 0 0 0 7.86ZM481.86 92.39a3.93 3.93 0 1 0 0-7.86 3.93 3.93 0 0 0 0 7.86ZM469.61 92.39a3.93 3.93 0 1 0 0-7.86 3.93 3.93 0 0 0 0 7.86ZM457.36 92.39a3.93 3.93 0 1 0 0-7.86 3.93 3.93 0 0 0 0 7.86ZM445.09 92.39a3.93 3.93 0 1 0 0-7.86 3.93 3.93 0 0 0 0 7.86ZM432.84 92.39a3.93 3.93 0 1 0 0-7.86 3.93 3.93 0 0 0 0 7.86ZM359.31 92.39a3.93 3.93 0 1 0 0-7.86 3.93 3.93 0 0 0 0 7.86ZM347.06 92.39a3.93 3.93 0 1 0 0-7.86 3.93 3.93 0 0 0 0 7.86ZM298.05 92.39a3.93 3.93 0 1 0 0-7.86 3.93 3.93 0 0 0 0 7.86ZM285.78 92.39a3.93 3.93 0 1 0 0-7.86 3.93 3.93 0 0 0 0 7.86ZM273.53 92.39a3.93 3.93 0 1 0 0-7.86 3.93 3.93 0 0 0 0 7.86Z"/><path fill="#DDC666" d="M236.77 92.39a3.93 3.93 0 1 0 0-7.86 3.93 3.93 0 0 0 0 7.86ZM224.52 92.39a3.93 3.93 0 1 0 0-7.86 3.93 3.93 0 0 0 0 7.86ZM212.69 92.12a3.93 3.93 0 1 0 0-7.86 3.93 3.93 0 0 0 0 7.86ZM199.69 92.68a3.93 3.93 0 1 0 0-7.86 3.93 3.93 0 0 0 0 7.86ZM187.69 92.12a3.93 3.93 0 1 0 0-7.86 3.93 3.93 0 0 0 0 7.86ZM175.69 92.68a3.93 3.93 0 1 0 0-7.86 3.93 3.93 0 0 0 0 7.86ZM163.69 92.68a3.93 3.93 0 1 0 0-7.86 3.93 3.93 0 0 0 0 7.86ZM150.69 92.68a3.93 3.93 0 1 0 0-7.86 3.93 3.93 0 0 0 0 7.86ZM138.69 92.68a3.93 3.93 0 1 0 0-7.86 3.93 3.93 0 0 0 0 7.86ZM126.69 92.68a3.93 3.93 0 1 0 0-7.86 3.93 3.93 0 0 0 0 7.86ZM114.69 92.68a3.93 3.93 0 1 0 0-7.86 3.93 3.93 0 0 0 0 7.86ZM101.69 92.68a3.93 3.93 0 1 0 0-7.86 3.93 3.93 0 0 0 0 7.86ZM89.69 92.68a3.93 3.93 0 1 0 0-7.86 3.93 3.93 0 0 0 0 7.86ZM77.69 92.68a3.93 3.93 0 1 0 0-7.86 3.93 3.93 0 0 0 0 7.86ZM65.69 92.12a3.93 3.93 0 1 0 0-7.86 3.93 3.93 0 0 0 0 7.86ZM52.69 92.68a3.93 3.93 0 1 0 0-7.86 3.93 3.93 0 0 0 0 7.86ZM40.69 92.68a3.93 3.93 0 1 0 0-7.86 3.93 3.93 0 0 0 0 7.86Z"/><path fill="#3187AD" d="M28.45 92.39a3.93 3.93 0 1 0 0-7.86 3.93 3.93 0 0 0 0 7.86ZM16.2 92.39a3.93 3.93 0 1 0 0-7.86 3.93 3.93 0 0 0 0 7.86ZM3.93 92.39a3.93 3.93 0 1 0 0-7.86 3.93 3.93 0 0 0 0 7.86ZM837.24 80.32a3.93 3.93 0 1 0 0-7.86 3.93 3.93 0 0 0 0 7.86ZM824.99 80.32a3.93 3.93 0 1 0 0-7.86 3.93 3.93 0 0 0 0 7.86ZM812.74 80.32a3.93 3.93 0 1 0 0-7.86 3.93 3.93 0 0 0 0 7.86ZM800.47 80.32a3.93 3.93 0 1 0 0-7.86 3.93 3.93 0 0 0 0 7.86ZM788.23 80.32a3.93 3.93 0 1 0 0-7.86 3.93 3.93 0 0 0 0 7.86ZM775.98 80.32a3.93 3.93 0 1 0 0-7.86 3.93 3.93 0 0 0 0 7.86ZM763.71 80.32a3.93 3.93 0 1 0 0-7.86 3.93 3.93 0 0 0 0 7.86ZM751.46 80.32a3.93 3.93 0 1 0 0-7.86 3.93 3.93 0 0 0 0 7.86ZM739.21 80.32a3.93 3.93 0 1 0 0-7.86 3.93 3.93 0 0 0 0 7.86ZM726.95 80.32a3.93 3.93 0 1 0 0-7.86 3.93 3.93 0 0 0 0 7.86ZM714.7 80.32a3.93 3.93 0 1 0 0-7.86 3.93 3.93 0 0 0 0 7.86ZM702.45 80.32a3.93 3.93 0 1 0 0-7.86 3.93 3.93 0 0 0 0 7.86ZM690.2 80.32a3.93 3.93 0 1 0 0-7.86 3.93 3.93 0 0 0 0 7.86ZM677.93 80.32a3.93 3.93 0 1 0 0-7.86 3.93 3.93 0 0 0 0 7.86ZM665.68 80.32a3.93 3.93 0 1 0 0-7.86 3.93 3.93 0 0 0 0 7.86ZM653.43 80.32a3.93 3.93 0 1 0 0-7.86 3.93 3.93 0 0 0 0 7.86ZM641.17 80.32a3.93 3.93 0 1 0 0-7.86 3.93 3.93 0 0 0 0 7.86ZM628.92 80.32a3.93 3.93 0 1 0 0-7.86 3.93 3.93 0 0 0 0 7.86ZM616.67 80.32a3.93 3.93 0 1 0 0-7.86 3.93 3.93 0 0 0 0 7.86ZM604.4 80.32a3.93 3.93 0 1 0 0-7.86 3.93 3.93 0 0 0 0 7.86ZM592.15 80.32a3.93 3.93 0 1 0 0-7.86 3.93 3.93 0 0 0 0 7.86ZM579.9 80.32a3.93 3.93 0 1 0 0-7.86 3.93 3.93 0 0 0 0 7.86ZM567.65 80.32a3.93 3.93 0 1 0 0-7.86 3.93 3.93 0 0 0 0 7.86ZM555.39 80.32a3.93 3.93 0 1 0 0-7.86 3.93 3.93 0 0 0 0 7.86ZM543.14 80.32a3.93 3.93 0 1 0 0-7.86 3.93 3.93 0 0 0 0 7.86ZM530.89 80.32a3.93 3.93 0 1 0 0-7.86 3.93 3.93 0 0 0 0 7.86ZM518.62 80.32a3.93 3.93 0 1 0 0-7.86 3.93 3.93 0 0 0 0 7.86ZM506.37 80.32a3.93 3.93 0 1 0 0-7.86 3.93 3.93 0 0 0 0 7.86ZM494.12 80.32a3.93 3.93 0 1 0 0-7.86 3.93 3.93 0 0 0 0 7.86ZM481.86 80.32a3.93 3.93 0 1 0 0-7.86 3.93 3.93 0 0 0 0 7.86ZM469.61 80.32a3.93 3.93 0 1 0 0-7.86 3.93 3.93 0 0 0 0 7.86ZM457.36 80.32a3.93 3.93 0 1 0 0-7.86 3.93 3.93 0 0 0 0 7.86ZM445.09 80.32a3.93 3.93 0 1 0 0-7.86 3.93 3.93 0 0 0 0 7.86ZM432.84 80.32a3.93 3.93 0 1 0 0-7.86 3.93 3.93 0 0 0 0 7.86ZM322.55 80.32a3.93 3.93 0 1 0 0-7.86 3.93 3.93 0 0 0 0 7.86ZM310.3 80.32a3.93 3.93 0 1 0 0-7.86 3.93 3.93 0 0 0 0 7.86ZM298.05 80.32a3.93 3.93 0 1 0 0-7.86 3.93 3.93 0 0 0 0 7.86ZM285.78 80.32a3.93 3.93 0 1 0 0-7.86 3.93 3.93 0 0 0 0 7.86ZM273.53 80.32a3.93 3.93 0 1 0 0-7.86 3.93 3.93 0 0 0 0 7.86Z"/><path fill="#DDC666" d="M236.69 80.12a3.93 3.93 0 1 0 0-7.86 3.93 3.93 0 0 0 0 7.86ZM224.52 80.32a3.93 3.93 0 1 0 0-7.86 3.93 3.93 0 0 0 0 7.86ZM199.69 80.68a3.93 3.93 0 1 0 0-7.86 3.93 3.93 0 0 0 0 7.86ZM187.69 80.12a3.93 3.93 0 1 0 0-7.86 3.93 3.93 0 0 0 0 7.86ZM175.69 80.68a3.93 3.93 0 1 0 0-7.86 3.93 3.93 0 0 0 0 7.86ZM163.69 80.68a3.93 3.93 0 1 0 0-7.86 3.93 3.93 0 0 0 0 7.86ZM150.69 80.68a3.93 3.93 0 1 0 0-7.86 3.93 3.93 0 0 0 0 7.86ZM138.69 80.68a3.93 3.93 0 1 0 0-7.86 3.93 3.93 0 0 0 0 7.86ZM126.69 80.68a3.93 3.93 0 1 0 0-7.86 3.93 3.93 0 0 0 0 7.86ZM114.69 80.68a3.93 3.93 0 1 0 0-7.86 3.93 3.93 0 0 0 0 7.86ZM101.69 80.68a3.93 3.93 0 1 0 0-7.86 3.93 3.93 0 0 0 0 7.86ZM89.69 80.68a3.93 3.93 0 1 0 0-7.86 3.93 3.93 0 0 0 0 7.86ZM77.69 80.68a3.93 3.93 0 1 0 0-7.86 3.93 3.93 0 0 0 0 7.86ZM65.69 80.68a3.93 3.93 0 1 0 0-7.86 3.93 3.93 0 0 0 0 7.86ZM52.69 80.68a3.93 3.93 0 1 0 0-7.86 3.93 3.93 0 0 0 0 7.86ZM40.69 80.68a3.93 3.93 0 1 0 0-7.86 3.93 3.93 0 0 0 0 7.86Z"/><path fill="#3187AD" d="M28.45 80.32a3.93 3.93 0 1 0 0-7.86 3.93 3.93 0 0 0 0 7.86ZM16.2 80.32a3.93 3.93 0 1 0 0-7.86 3.93 3.93 0 0 0 0 7.86ZM3.93 80.32a3.93 3.93 0 1 0 0-7.86 3.93 3.93 0 0 0 0 7.86ZM837.24 68.24a3.93 3.93 0 1 0 0-7.86 3.93 3.93 0 0 0 0 7.86ZM775.98 68.24a3.93 3.93 0 1 0 0-7.86 3.93 3.93 0 0 0 0 7.86ZM763.71 68.24a3.93 3.93 0 1 0 0-7.86 3.93 3.93 0 0 0 0 7.86ZM751.46 68.24a3.93 3.93 0 1 0 0-7.86 3.93 3.93 0 0 0 0 7.86ZM739.21 68.24a3.93 3.93 0 1 0 0-7.86 3.93 3.93 0 0 0 0 7.86ZM726.95 68.24a3.93 3.93 0 1 0 0-7.86 3.93 3.93 0 0 0 0 7.86ZM714.7 68.24a3.93 3.93 0 1 0 0-7.86 3.93 3.93 0 0 0 0 7.86ZM702.45 68.24a3.93 3.93 0 1 0 0-7.86 3.93 3.93 0 0 0 0 7.86ZM690.2 68.24a3.93 3.93 0 1 0 0-7.86 3.93 3.93 0 0 0 0 7.86ZM677.93 68.24a3.93 3.93 0 1 0 0-7.86 3.93 3.93 0 0 0 0 7.86ZM665.68 68.24a3.93 3.93 0 1 0 0-7.86 3.93 3.93 0 0 0 0 7.86ZM653.43 68.24a3.93 3.93 0 1 0 0-7.86 3.93 3.93 0 0 0 0 7.86ZM641.17 68.24a3.93 3.93 0 1 0 0-7.86 3.93 3.93 0 0 0 0 7.86ZM628.92 68.24a3.93 3.93 0 1 0 0-7.86 3.93 3.93 0 0 0 0 7.86ZM616.67 68.24a3.93 3.93 0 1 0 0-7.86 3.93 3.93 0 0 0 0 7.86ZM604.4 68.24a3.93 3.93 0 1 0 0-7.86 3.93 3.93 0 0 0 0 7.86ZM592.15 68.24a3.93 3.93 0 1 0 0-7.86 3.93 3.93 0 0 0 0 7.86ZM579.9 68.24a3.93 3.93 0 1 0 0-7.86 3.93 3.93 0 0 0 0 7.86ZM567.65 68.24a3.93 3.93 0 1 0 0-7.86 3.93 3.93 0 0 0 0 7.86ZM530.89 68.24a3.93 3.93 0 1 0 0-7.86 3.93 3.93 0 0 0 0 7.86ZM469.61 68.24a3.93 3.93 0 1 0 0-7.86 3.93 3.93 0 0 0 0 7.86ZM457.36 68.24a3.93 3.93 0 1 0 0-7.86 3.93 3.93 0 0 0 0 7.86ZM347.06 68.24a3.93 3.93 0 1 0 0-7.86 3.93 3.93 0 0 0 0 7.86ZM334.81 68.24a3.93 3.93 0 1 0 0-7.86 3.93 3.93 0 0 0 0 7.86ZM322.55 68.24a3.93 3.93 0 1 0 0-7.86 3.93 3.93 0 0 0 0 7.86ZM310.3 68.24a3.93 3.93 0 1 0 0-7.86 3.93 3.93 0 0 0 0 7.86ZM298.05 68.24a3.93 3.93 0 1 0 0-7.86 3.93 3.93 0 0 0 0 7.86ZM285.78 68.24a3.93 3.93 0 1 0 0-7.86 3.93 3.93 0 0 0 0 7.86ZM273.53 68.24a3.93 3.93 0 1 0 0-7.86 3.93 3.93 0 0 0 0 7.86Z"/><path fill="#DDC666" d="M224.52 68.24a3.93 3.93 0 1 0 0-7.86 3.93 3.93 0 0 0 0 7.86ZM212.27 68.24a3.93 3.93 0 1 0 0-7.86 3.93 3.93 0 0 0 0 7.86ZM200 68.24a3.93 3.93 0 1 0 0-7.86 3.93 3.93 0 0 0 0 7.86ZM187.75 68.24a3.93 3.93 0 1 0 0-7.86 3.93 3.93 0 0 0 0 7.86ZM175.5 68.24a3.93 3.93 0 1 0 0-7.86 3.93 3.93 0 0 0 0 7.86ZM150.99 68.24a3.93 3.93 0 1 0 0-7.86 3.93 3.93 0 0 0 0 7.86ZM138.74 68.24a3.93 3.93 0 1 0 0-7.86 3.93 3.93 0 0 0 0 7.86ZM126.49 68.24a3.93 3.93 0 1 0 0-7.86 3.93 3.93 0 0 0 0 7.86Z"/><path fill="#3187AD" d="M28.45 68.24a3.93 3.93 0 1 0 0-7.86 3.93 3.93 0 0 0 0 7.86ZM16.2 68.24a3.93 3.93 0 1 0 0-7.86 3.93 3.93 0 0 0 0 7.86ZM739.21 56.16a3.93 3.93 0 1 0 0-7.86 3.93 3.93 0 0 0 0 7.86ZM726.95 56.16a3.93 3.93 0 1 0 0-7.86 3.93 3.93 0 0 0 0 7.86ZM702.45 56.16a3.93 3.93 0 1 0 0-7.86 3.93 3.93 0 0 0 0 7.86ZM677.93 56.16a3.93 3.93 0 1 0 0-7.86 3.93 3.93 0 0 0 0 7.86ZM665.68 56.16a3.93 3.93 0 1 0 0-7.86 3.93 3.93 0 0 0 0 7.86ZM653.43 56.16a3.93 3.93 0 1 0 0-7.86 3.93 3.93 0 0 0 0 7.86ZM641.17 56.16a3.93 3.93 0 1 0 0-7.86 3.93 3.93 0 0 0 0 7.86ZM628.92 56.16a3.93 3.93 0 1 0 0-7.86 3.93 3.93 0 0 0 0 7.86ZM616.67 56.16a3.93 3.93 0 1 0 0-7.86 3.93 3.93 0 0 0 0 7.86ZM604.4 56.16a3.93 3.93 0 1 0 0-7.86 3.93 3.93 0 0 0 0 7.86ZM592.15 56.16a3.93 3.93 0 1 0 0-7.86 3.93 3.93 0 0 0 0 7.86ZM567.65 56.16a3.93 3.93 0 1 0 0-7.86 3.93 3.93 0 0 0 0 7.86ZM530.89 56.16a3.93 3.93 0 1 0 0-7.86 3.93 3.93 0 0 0 0 7.86ZM347.06 56.16a3.93 3.93 0 1 0 0-7.86 3.93 3.93 0 0 0 0 7.86ZM334.81 56.16a3.93 3.93 0 1 0 0-7.86 3.93 3.93 0 0 0 0 7.86ZM322.55 56.16a3.93 3.93 0 1 0 0-7.86 3.93 3.93 0 0 0 0 7.86ZM310.3 56.16a3.93 3.93 0 1 0 0-7.86 3.93 3.93 0 0 0 0 7.86ZM298.05 56.16a3.93 3.93 0 1 0 0-7.86 3.93 3.93 0 0 0 0 7.86ZM285.78 56.16a3.93 3.93 0 1 0 0-7.86 3.93 3.93 0 0 0 0 7.86ZM273.53 56.16a3.93 3.93 0 1 0 0-7.86 3.93 3.93 0 0 0 0 7.86Z"/><path fill="#DDC666" d="M212.27 56.16a3.93 3.93 0 1 0 0-7.86 3.93 3.93 0 0 0 0 7.86ZM200 56.16a3.93 3.93 0 1 0 0-7.86 3.93 3.93 0 0 0 0 7.86ZM187.75 56.16a3.93 3.93 0 1 0 0-7.86 3.93 3.93 0 0 0 0 7.86ZM175.5 56.16a3.93 3.93 0 1 0 0-7.86 3.93 3.93 0 0 0 0 7.86ZM163.24 56.16a3.93 3.93 0 1 0 0-7.86 3.93 3.93 0 0 0 0 7.86ZM150.99 56.16a3.93 3.93 0 1 0 0-7.86 3.93 3.93 0 0 0 0 7.86ZM126.49 56.16a3.93 3.93 0 1 0 0-7.86 3.93 3.93 0 0 0 0 7.86ZM114.23 56.16a3.93 3.93 0 1 0 0-7.86 3.93 3.93 0 0 0 0 7.86ZM101.98 56.16a3.93 3.93 0 1 0 0-7.86 3.93 3.93 0 0 0 0 7.86Z"/><path fill="#3187AD" d="M739.21 44.09a3.93 3.93 0 1 0 0-7.86 3.93 3.93 0 0 0 0 7.86ZM726.95 44.09a3.93 3.93 0 1 0 0-7.86 3.93 3.93 0 0 0 0 7.86ZM665.68 44.09a3.93 3.93 0 1 0 0-7.86 3.93 3.93 0 0 0 0 7.86ZM653.43 44.09a3.93 3.93 0 1 0 0-7.86 3.93 3.93 0 0 0 0 7.86ZM641.17 44.09a3.93 3.93 0 1 0 0-7.86 3.93 3.93 0 0 0 0 7.86ZM628.92 44.09a3.93 3.93 0 1 0 0-7.86 3.93 3.93 0 0 0 0 7.86ZM555.39 44.09a3.93 3.93 0 1 0 0-7.86 3.93 3.93 0 0 0 0 7.86ZM543.14 44.09a3.93 3.93 0 1 0 0-7.86 3.93 3.93 0 0 0 0 7.86ZM347.06 44.09a3.93 3.93 0 1 0 0-7.86 3.93 3.93 0 0 0 0 7.86ZM334.81 44.09a3.93 3.93 0 1 0 0-7.86 3.93 3.93 0 0 0 0 7.86ZM322.55 44.09a3.93 3.93 0 1 0 0-7.86 3.93 3.93 0 0 0 0 7.86ZM310.3 44.09a3.93 3.93 0 1 0 0-7.86 3.93 3.93 0 0 0 0 7.86ZM298.05 44.09a3.93 3.93 0 1 0 0-7.86 3.93 3.93 0 0 0 0 7.86ZM285.78 44.09a3.93 3.93 0 1 0 0-7.86 3.93 3.93 0 0 0 0 7.86ZM273.53 44.09a3.93 3.93 0 1 0 0-7.86 3.93 3.93 0 0 0 0 7.86ZM261.28 44.09a3.93 3.93 0 1 0 0-7.86 3.93 3.93 0 0 0 0 7.86ZM249.03 44.09a3.93 3.93 0 1 0 0-7.86 3.93 3.93 0 0 0 0 7.86Z"/><path fill="#DDC666" d="M236.77 44.09a3.93 3.93 0 1 0 0-7.86 3.93 3.93 0 0 0 0 7.86ZM212.27 44.09a3.93 3.93 0 1 0 0-7.86 3.93 3.93 0 0 0 0 7.86ZM175.5 44.09a3.93 3.93 0 1 0 0-7.86 3.93 3.93 0 0 0 0 7.86ZM163.24 44.09a3.93 3.93 0 1 0 0-7.86 3.93 3.93 0 0 0 0 7.86ZM150.99 44.09a3.93 3.93 0 1 0 0-7.86 3.93 3.93 0 0 0 0 7.86ZM138.74 44.09a3.93 3.93 0 1 0 0-7.86 3.93 3.93 0 0 0 0 7.86ZM126.49 44.09a3.93 3.93 0 1 0 0-7.86 3.93 3.93 0 0 0 0 7.86ZM114.23 44.09a3.93 3.93 0 1 0 0-7.86 3.93 3.93 0 0 0 0 7.86Z"/><path fill="#3187AD" d="M653.43 32.01a3.93 3.93 0 1 0 0-7.86 3.93 3.93 0 0 0 0 7.86ZM641.17 32.01a3.93 3.93 0 1 0 0-7.86 3.93 3.93 0 0 0 0 7.86ZM445.09 32.01a3.93 3.93 0 1 0 0-7.86 3.93 3.93 0 0 0 0 7.86ZM432.84 32.01a3.93 3.93 0 1 0 0-7.86 3.93 3.93 0 0 0 0 7.86ZM347.06 32.01a3.93 3.93 0 1 0 0-7.86 3.93 3.93 0 0 0 0 7.86ZM334.81 32.01a3.93 3.93 0 1 0 0-7.86 3.93 3.93 0 0 0 0 7.86ZM322.55 32.01a3.93 3.93 0 1 0 0-7.86 3.93 3.93 0 0 0 0 7.86ZM310.3 32.01a3.93 3.93 0 1 0 0-7.86 3.93 3.93 0 0 0 0 7.86ZM298.05 32.01a3.93 3.93 0 1 0 0-7.86 3.93 3.93 0 0 0 0 7.86ZM285.78 32.01a3.93 3.93 0 1 0 0-7.86 3.93 3.93 0 0 0 0 7.86ZM273.53 32.01a3.93 3.93 0 1 0 0-7.86 3.93 3.93 0 0 0 0 7.86ZM261.28 32.01a3.93 3.93 0 1 0 0-7.86 3.93 3.93 0 0 0 0 7.86ZM249.03 32.01a3.93 3.93 0 1 0 0-7.86 3.93 3.93 0 0 0 0 7.86Z"/><path fill="#DDC666" d="M236.77 32.01a3.93 3.93 0 1 0 0-7.86 3.93 3.93 0 0 0 0 7.86ZM224.52 32.01a3.93 3.93 0 1 0 0-7.86 3.93 3.93 0 0 0 0 7.86ZM212.27 32.01a3.93 3.93 0 1 0 0-7.86 3.93 3.93 0 0 0 0 7.86ZM200 32.01a3.93 3.93 0 1 0 0-7.86 3.93 3.93 0 0 0 0 7.86ZM187.75 32.01a3.93 3.93 0 1 0 0-7.86 3.93 3.93 0 0 0 0 7.86ZM175.5 32.01a3.93 3.93 0 1 0 0-7.86 3.93 3.93 0 0 0 0 7.86ZM163.24 32.01a3.93 3.93 0 1 0 0-7.86 3.93 3.93 0 0 0 0 7.86ZM150.99 32.01a3.93 3.93 0 1 0 0-7.86 3.93 3.93 0 0 0 0 7.86ZM138.74 32.01a3.93 3.93 0 1 0 0-7.86 3.93 3.93 0 0 0 0 7.86Z"/><path fill="#3187AD" d="M628.92 19.94a3.93 3.93 0 1 0 0-7.86 3.93 3.93 0 0 0 0 7.86ZM616.67 19.94a3.93 3.93 0 1 0 0-7.86 3.93 3.93 0 0 0 0 7.86ZM555.39 19.94a3.93 3.93 0 1 0 0-7.86 3.93 3.93 0 0 0 0 7.86ZM543.14 19.94a3.93 3.93 0 1 0 0-7.86 3.93 3.93 0 0 0 0 7.86ZM530.89 19.94a3.93 3.93 0 1 0 0-7.86 3.93 3.93 0 0 0 0 7.86ZM518.62 19.94a3.93 3.93 0 1 0 0-7.86 3.93 3.93 0 0 0 0 7.86ZM506.37 19.94a3.93 3.93 0 1 0 0-7.86 3.93 3.93 0 0 0 0 7.86ZM359.31 19.94a3.93 3.93 0 1 0 0-7.86 3.93 3.93 0 0 0 0 7.86ZM347.06 19.94a3.93 3.93 0 1 0 0-7.86 3.93 3.93 0 0 0 0 7.86ZM334.81 19.94a3.93 3.93 0 1 0 0-7.86 3.93 3.93 0 0 0 0 7.86ZM322.55 19.94a3.93 3.93 0 1 0 0-7.86 3.93 3.93 0 0 0 0 7.86ZM310.3 19.94a3.93 3.93 0 1 0 0-7.86 3.93 3.93 0 0 0 0 7.86ZM298.05 19.94a3.93 3.93 0 1 0 0-7.86 3.93 3.93 0 0 0 0 7.86ZM285.78 19.94a3.93 3.93 0 1 0 0-7.86 3.93 3.93 0 0 0 0 7.86ZM273.53 19.94a3.93 3.93 0 1 0 0-7.86 3.93 3.93 0 0 0 0 7.86ZM261.28 19.94a3.93 3.93 0 1 0 0-7.86 3.93 3.93 0 0 0 0 7.86ZM249.03 19.94a3.93 3.93 0 1 0 0-7.86 3.93 3.93 0 0 0 0 7.86Z"/><path fill="#DDC666" d="M236.77 19.94a3.93 3.93 0 1 0 0-7.86 3.93 3.93 0 0 0 0 7.86ZM224.52 19.94a3.93 3.93 0 1 0 0-7.86 3.93 3.93 0 0 0 0 7.86ZM212.27 19.94a3.93 3.93 0 1 0 0-7.86 3.93 3.93 0 0 0 0 7.86ZM200 19.94a3.93 3.93 0 1 0 0-7.86 3.93 3.93 0 0 0 0 7.86ZM187.75 19.94a3.93 3.93 0 1 0 0-7.86 3.93 3.93 0 0 0 0 7.86ZM175.5 19.94a3.93 3.93 0 1 0 0-7.86 3.93 3.93 0 0 0 0 7.86Z"/><path fill="#3187AD" d="M347.06 7.86a3.93 3.93 0 1 0 0-7.86 3.93 3.93 0 0 0 0 7.86ZM334.81 7.86a3.93 3.93 0 1 0 0-7.86 3.93 3.93 0 0 0 0 7.86ZM322.55 7.86a3.93 3.93 0 1 0 0-7.86 3.93 3.93 0 0 0 0 7.86ZM310.3 7.86a3.93 3.93 0 1 0 0-7.86 3.93 3.93 0 0 0 0 7.86ZM298.05 7.86a3.93 3.93 0 1 0 0-7.86 3.93 3.93 0 0 0 0 7.86ZM285.78 7.86a3.93 3.93 0 1 0 0-7.86 3.93 3.93 0 0 0 0 7.86Z"/><path fill="#DDC666" d="M236.77 7.86a3.93 3.93 0 1 0 0-7.86 3.93 3.93 0 0 0 0 7.86ZM224.52 7.86a3.93 3.93 0 1 0 0-7.86 3.93 3.93 0 0 0 0 7.86ZM212.27 7.86a3.93 3.93 0 1 0 0-7.86 3.93 3.93 0 0 0 0 7.86Z"/></g><defs><clipPath id="a"><path fill="#fff" d="M0 0h853.44v370.11H0z"/></clipPath></defs></svg>