<svg xmlns="http://www.w3.org/2000/svg" width="811" height="555" fill="none"><g clip-path="url(#a)"><path fill="#3187AD" d="M121.36 278.6c0-142.97 308.76-258.86 689.65-258.86v517.73c-380.88 0-689.65-115.9-689.65-258.86v-.01Z" opacity=".1"/><path fill="#32AA86" d="M3 496.69c2.05 9.5 3.45 19.15 3.56 28.91.07 9.68-.82 19.18-.56 28.78H0c.05-9.71 1.82-19.37 2.78-28.94.95-9.54.68-19.16.22-28.75Z"/><path fill="#3187AD" d="M598.85 126.5c34.932 0 63.25-28.318 63.25-63.25S633.782 0 598.85 0 535.6 28.318 535.6 63.25s28.318 63.25 63.25 63.25Z" opacity=".1"/><path fill="#32AA86" d="M698.86 321.66c-46.82 0-86.12 32.18-97.01 75.63v-62.46c53.85-1.59 97.01-45.73 97.01-99.97-46.82 0-86.12 32.18-97.01 75.63V189.73h-6v120.76c-10.89-43.45-50.19-75.63-97.01-75.63 0 54.23 43.17 98.38 97.01 99.97v62.46c-10.89-43.45-50.19-75.63-97.01-75.63 0 54.23 43.17 98.38 97.01 99.97v62.46c-10.89-43.45-50.19-75.63-97.01-75.63 0 54.23 43.17 98.38 97.01 99.97v45.96h6v-45.96c53.85-1.59 97.01-45.73 97.01-99.97-46.82 0-86.12 32.18-97.01 75.63v-62.46c53.85-1.59 97.01-45.73 97.01-99.97Z"/><path fill="#DDC666" d="M348.9 421.68c27.62 0 50.01-22.39 50.01-50.01 0-27.62-22.39-50.01-50.01-50.01-27.62 0-50.01 22.39-50.01 50.01 0 27.62 22.39 50.01 50.01 50.01Z"/><path fill="#32AA86" d="M351.9 484.09v-62.46c53.85-1.59 97.01-45.73 97.01-99.97-55.03 0-99.66 44.44-100 99.39h-.02c-.34-54.95-44.97-99.39-100-99.39 0 54.23 43.17 98.38 97.01 99.97v62.46c-10.89-43.45-50.19-75.62-97.01-75.63 0 54.23 43.17 98.38 97.01 99.97v45.96h6v-45.96c53.85-1.59 97.01-45.73 97.01-99.97-46.82 0-86.12 32.18-97.01 75.63ZM213.07 446.18c-34.18 0-61.91 27.54-62.27 61.63h-.03c-.35-26.73-22.12-48.29-48.94-48.3 0 26.03 20.32 47.3 45.96 48.85v46.01h6v-45.99c33.01-1.57 59.29-28.82 59.29-62.21l-.01.01Z"/><path fill="#DDC666" d="M598.85 252.99c34.932 0 63.25-28.318 63.25-63.25s-28.318-63.25-63.25-63.25-63.25 28.318-63.25 63.25 28.318 63.25 63.25 63.25Z"/><path fill="#EF8C70" d="M598.85 189.74c34.932 0 63.25-28.318 63.25-63.25s-28.318-63.25-63.25-63.25-63.25 28.318-63.25 63.25 28.318 63.25 63.25 63.25Z" opacity=".25"/></g><defs><clipPath id="a"><path fill="#fff" d="M0 0h811.01v554.38H0z"/></clipPath></defs></svg>