<svg xmlns="http://www.w3.org/2000/svg" width="718" height="551" fill="none"><g clip-path="url(#a)"><path fill="#D64752" d="M292.5 415.58c-86.85 0-157.5-70.65-157.5-157.5s70.65-157.5 157.5-157.5c39.95 0 78.05 14.98 107.27 42.18 24.07 22.4 40.32 51.37 46.91 83.06l-37.13-23.15-14.29 22.91 76.26 47.55 47.55-76.26-22.91-14.29-23.17 37.15c-7.8-36.91-26.78-70.64-54.83-96.74-34.24-31.86-78.87-49.41-125.67-49.41-101.73 0-184.5 82.77-184.5 184.5s82.77 184.5 184.5 184.5h425v-27h-425 .01Z"/><path fill="#3187AD" d="M292.5 451.58c-106.7 0-193.5-86.8-193.5-193.5s86.8-193.5 193.5-193.5S486 151.38 486 258.08c0 23.89-4.47 47.66-13.01 69.81l-18.4-39.71-24.5 11.35 37.78 81.54 81.54-37.78-11.35-24.5-39.73 18.41c9.63-25.12 14.66-52.06 14.66-79.12 0-58.9-22.94-114.27-64.58-155.92-41.65-41.65-97.02-64.58-155.92-64.58-58.9 0-114.27 22.94-155.92 64.58-41.65 41.65-64.58 97.02-64.58 155.92 0 58.9 22.94 114.27 64.58 155.92 41.65 41.65 97.02 64.58 155.92 64.58h425v-27h-425 .01Z"/><path fill="#EF8C70" d="M292.5 487.58c-61.3 0-118.93-23.87-162.28-67.22C86.87 377.01 63 319.38 63 258.08S86.87 139.15 130.22 95.8C173.57 52.45 231.2 28.58 292.5 28.58c47.48 0 93.55 14.71 132.02 41.78l-42.97 8.14 5.03 26.53 88.3-16.73L458.14 0l-26.53 5.03 8.15 43.05A256.281 256.281 0 0 0 292.5 1.58c-68.51 0-132.93 26.68-181.37 75.13C62.68 125.16 36 189.57 36 258.08s26.68 132.93 75.13 181.37c48.45 48.45 112.86 75.13 181.37 75.13h425v-27h-425Z"/><path fill="#EAD3D9" d="M292.5 523.58c-70.92 0-137.59-27.62-187.74-77.76C54.61 395.68 27 329 27 258.08c0-70.92 29.59-141.71 81.82-191.7l-.38 43.74 27 .23.78-89.86-89.86-.78-.23 27 43.8.38C32.51 102.14 0 177.8 0 258.08s30.43 151.58 85.67 206.83 128.7 85.67 206.83 85.67h425v-27h-425Z"/><path fill="#DDC666" d="M264.49 298.54v-33.73h63.17v-27h-63.17v-11.04c0-10.92 4.93-20.18 13.51-25.42 13.63-8.31 34.63-5.91 59.12 6.74l12.39-23.99c-19.22-9.93-55.89-23.88-85.56-5.81-16.57 10.09-26.47 28.22-26.47 48.48v71.77h-15.12v27h136.07v-27h-93.95.01Z"/></g><defs><clipPath id="a"><path fill="#fff" d="M0 0h717.5v550.58H0z"/></clipPath></defs></svg>