<svg xmlns="http://www.w3.org/2000/svg" width="1323" height="549" fill="none"><g clip-path="url(#a)"><path fill="#3187AD" d="M292.5 450C185.8 450 99 363.2 99 256.5S185.8 63 292.5 63 486 149.8 486 256.5c0 12.31-1.16 24.51-3.44 36.48l-25.2-35.79-22.08 15.54 51.73 73.49 73.49-51.73-15.54-22.08-35.79 25.2c2.54-13.49 3.83-27.24 3.83-41.1 0-58.9-22.94-114.27-64.58-155.92-41.65-41.65-97.02-64.58-155.92-64.58-58.9 0-114.27 22.94-155.92 64.58C94.93 142.24 72 197.61 72 256.51c0 58.9 22.94 114.27 64.58 155.92 41.65 41.65 97.02 64.58 155.92 64.58H1323v-27H292.5V450Z"/><path fill="#EF8C70" d="M292.5 486c-61.3 0-118.93-23.87-162.28-67.22C86.87 375.43 63 317.8 63 256.5s23.87-118.93 67.22-162.28C173.57 50.87 231.2 27 292.5 27c53.19 0 105.03 18.61 145.98 52.4 34.41 28.4 59.82 66.3 73.05 108.43l-39.12-19.71-12.15 24.11 80.26 40.43 40.43-80.26-24.11-12.15-19.68 39.07c-14.83-46.92-43.17-89.12-81.5-120.75C409.89 20.8 351.95 0 292.5 0c-68.51 0-132.93 26.68-181.37 75.13C62.68 123.58 36 187.99 36 256.5s26.68 132.93 75.13 181.37C159.58 486.32 223.99 513 292.5 513H1323v-27H292.5Z"/><path fill="#DDC666" d="M292.5 522c-70.92 0-137.59-27.62-187.74-77.76C54.61 394.09 27 327.42 27 256.5c0-64.08 22.52-124.62 63.82-172.68l3.94 43.57 26.89-2.43-8.08-89.5-89.5 8.08 2.43 26.89 43.62-3.94C24.74 119.41 0 186.01 0 256.5c0 78.13 30.43 151.58 85.67 206.83C140.92 518.58 214.37 549 292.5 549H1323v-27H292.5Z"/><path fill="#32AA86" d="M354.88 378.15c-19.78 0-35.88-16.1-35.88-35.88v-50.93c37.54-6.41 66.11-39.08 66.11-78.45-43.47 0-78.77 34.85-79.57 78.13h-.06c-.79-55.26-45.83-99.81-101.27-99.81 0 51.37 38.23 93.8 87.79 100.4v50.67c0 34.67 28.21 62.88 62.88 62.88H1323v-27H354.88v-.01Z"/><path fill="#D64752" d="M292.5 414C205.65 414 135 343.35 135 256.5S205.65 99 292.5 99c38.07 0 74.89 13.95 103.4 38.72l-43.52 3.94 2.44 26.89 89.5-8.11-8.11-89.5-26.89 2.44 3.96 43.68C379.93 88.22 336.94 72 292.5 72 190.77 72 108 154.77 108 256.5S190.77 441 292.5 441H1323v-27H292.5Z"/></g><defs><clipPath id="a"><path fill="#fff" d="M0 0h1323v549H0z"/></clipPath></defs></svg>