<svg xmlns="http://www.w3.org/2000/svg" width="1095" height="576"><g clip-path="url(#a)"><path fill="#1F3049" d="M437.147 4.922v72.974h115.812L442.184 188.673 339.151 85.651l-154.55 154.532L81.568 137.162 0 218.72v103.194l81.568-81.559 103.033 103.022 154.55-154.533 103.033 103.022 162.392-162.374v115.814h72.982V4.922H437.147ZM854.589 308.664v72.974h115.827L751.284 600.759 545.218 394.716 339.151 600.759 236.161 497.78l-51.603 51.597 154.593 154.575 206.067-206.043 206.066 206.043 270.736-270.703v115.799H1095V308.664H854.589Z"/><path fill="#3187AD" d="M854.203 0v72.974h115.812L442.184 600.759l-154.507-154.49-51.602 51.597 206.109 206.086L1021.63 124.57v115.814h72.98V0H854.203Z"/><path fill="#EF8C70" d="M678.016 73.145v72.974h115.826L545.218 394.716l-115.87-115.857-51.602 51.597 167.472 167.453 300.227-300.193v115.813h72.982V73.145H678.016Z"/><path fill="#D64752" d="M502.058 146.047v72.974h115.827L442.184 394.716 184.601 137.162 0 321.742v103.193l184.601-184.58 257.583 257.554 227.303-227.277v115.799h72.982V146.047H502.058Z"/><path fill="#EF8C70" d="m261.919 369.089-51.602-51.597 128.834-128.82 90.197 90.187-51.602 51.597-38.595-38.59-77.232 77.223Z"/><path fill="#EAD3D9" d="M759.87 197.344v72.973h115.827l-330.48 330.442-257.583-257.554L0 630.807V734l287.634-287.602 257.583 257.554 382.082-382.038v115.813h72.981V197.344H759.87Z"/><path fill="#EF8C70" d="m0 630.978 261.919-261.889-51.602-51.597L0 527.785v103.193Z"/><path fill="#3187AD" d="M133.085 291.694 0 424.764v103.193l133.085-133.069 51.473 51.467 51.603-51.596-103.076-103.065Z"/></g><defs><clipPath id="a"><path fill="#fff" d="M0 0h1095v734H0z"/></clipPath></defs></svg>