<svg xmlns="http://www.w3.org/2000/svg" width="710" height="396" fill="none"><g clip-path="url(#a)"><path fill="#EAD3D9" d="M450.58 46.18c0-19.98-16.2-36.18-36.18-36.18s-36.18 16.2-36.18 36.18c-19.98 0-36.18 16.2-36.18 36.18s16.2 36.18 36.18 36.18h72.36c19.98 0 36.18-16.2 36.18-36.18s-16.2-36.18-36.18-36.18Z"/><path fill="#3187AD" d="M273.53 333.45c-22.38 0-40.58-18.2-40.58-40.58V252.3a5.94 5.94 0 0 1 11.88 0v40.57c0 15.83 12.88 28.7 28.7 28.7 15.82 0 28.71-12.88 28.71-28.7v-88.38c0-22.37 18.2-40.58 40.58-40.58s40.58 18.2 40.58 40.58v47.83a5.94 5.94 0 0 1-11.88 0v-47.83c0-15.83-12.88-28.7-28.7-28.7-15.82 0-28.7 12.88-28.7 28.7v88.38c0 22.37-18.2 40.58-40.58 40.58h-.01Z"/><path fill="#D64752" d="M534.6 265.2a5.94 5.94 0 0 1-5.94-5.94v-25.69c0-14.29-11.63-25.92-25.92-25.92h-56.48c-20.84 0-37.8-16.96-37.8-37.8V66.2a5.94 5.94 0 0 1 11.88 0v103.65c0 14.29 11.63 25.92 25.92 25.92h56.48c20.84 0 37.8 16.96 37.8 37.8v25.69a5.94 5.94 0 0 1-5.94 5.94Z"/><path fill="#EAD3D9" d="M213.12 383.59h-6v-6c0-1.1-.9-2-2-2s-2 .9-2 2v6h-6c-1.1 0-2 .9-2 2s.9 2 2 2h6v6c0 1.1.9 2 2 2s2-.9 2-2v-6h6c1.1 0 2-.9 2-2s-.9-2-2-2Z"/><path fill="#EF8C70" d="M18 173.84h-6v-6c0-1.1-.9-2-2-2s-2 .9-2 2v6H2c-1.1 0-2 .9-2 2s.9 2 2 2h6v6c0 1.1.9 2 2 2s2-.9 2-2v-6h6c1.1 0 2-.9 2-2s-.9-2-2-2Z"/><path fill="#3187AD" d="M687.41 126.14h-6v-6c0-1.1-.9-2-2-2s-2 .9-2 2v6h-6c-1.1 0-2 .9-2 2s.9 2 2 2h6v6c0 1.1.9 2 2 2s2-.9 2-2v-6h6c1.1 0 2-.9 2-2s-.9-2-2-2ZM167.48 8h-6V2c0-1.1-.9-2-2-2s-2 .9-2 2v6h-6c-1.1 0-2 .9-2 2s.9 2 2 2h6v6c0 1.1.9 2 2 2s2-.9 2-2v-6h6c1.1 0 2-.9 2-2s-.9-2-2-2Z"/><path fill="#DDC666" d="M479.82 155.17h-6v-6c0-1.1-.9-2-2-2s-2 .9-2 2v6h-6c-1.1 0-2 .9-2 2s.9 2 2 2h6v6c0 1.1.9 2 2 2s2-.9 2-2v-6h6c1.1 0 2-.9 2-2s-.9-2-2-2Z"/><path fill="#D64752" d="M309.56 96.79h-6v-6c0-1.1-.9-2-2-2s-2 .9-2 2v6h-6c-1.1 0-2 .9-2 2s.9 2 2 2h6v6c0 1.1.9 2 2 2s2-.9 2-2v-6h6c1.1 0 2-.9 2-2s-.9-2-2-2Z"/><path fill="#EF8C70" d="M263.68 46.73h-49.59v132.68h49.59V46.73Z"/><path fill="#EAD3D9" d="m226.49 205.77-12.4-26.36h49.59l-12.39 26.36h-24.8Z"/><path fill="#3187AD" d="m238.89 232.13-12.4-26.36h24.8l-12.4 26.36Z"/><path fill="#D64752" d="M600.08 309.77H469.11a6.79 6.79 0 0 0-6.79 6.79v29.55a6.79 6.79 0 0 0 6.79 6.79h130.97a6.79 6.79 0 0 0 6.79-6.79v-29.55a6.79 6.79 0 0 0-6.79-6.79Z"/><path fill="#DDC666" d="M487.79 339.91a8.58 8.58 0 0 0 8.58-8.58 8.58 8.58 0 0 0-8.58-8.58 8.58 8.58 0 0 0-8.58 8.58 8.58 8.58 0 0 0 8.58 8.58Z"/><path fill="#D64752" d="M600.08 259.26H469.11a6.79 6.79 0 0 0-6.79 6.79v29.55a6.79 6.79 0 0 0 6.79 6.79h130.97a6.79 6.79 0 0 0 6.79-6.79v-29.55a6.79 6.79 0 0 0-6.79-6.79Z"/><path fill="#DDC666" d="M487.79 289.41a8.58 8.58 0 0 0 8.58-8.58 8.58 8.58 0 0 0-8.58-8.58 8.58 8.58 0 0 0-8.58 8.58 8.58 8.58 0 0 0 8.58 8.58Z"/><path fill="#3187AD" d="M49.5 300.39c0 4.82 3.94 8.76 8.76 8.76h111.16c4.82 0 8.76-3.94 8.76-8.76v-63.33H49.5v63.33Z"/><path fill="#EF8C70" d="M178.17 232.26c0-4.82-3.94-8.76-8.76-8.76H58.26c-4.82 0-8.76 3.94-8.76 8.76v1.72h128.67v-1.72Z"/><path fill="#D64752" d="M136.89 314.77h-46.1v4.04h46.1v-4.04Z"/><path fill="#EAD3D9" d="m96.72 268.58-10.74 4.74 10.74 4.74v7.68l-18.53-8.95v-6.94l18.53-8.95v7.68ZM120.49 249.43h7.74l-21.05 47.36h-7.74l21.05-47.36ZM149.48 269.85v6.94l-18.52 8.95v-7.68l10.73-4.74-10.73-4.74v-7.68l18.52 8.95ZM418.45 293.32c0-22.64-18.36-41-41-41s-41 18.36-41 41v41.27c0 22.64 18.36 41 41 41s41-18.36 41-41v-41.27Z"/><path fill="#3187AD" d="M382.82 274.08a5.37 5.37 0 1 0-10.74 0v19.8a5.37 5.37 0 1 0 10.74 0v-19.8ZM557.38 45.18c-6.98-6.98-17.03-9.02-25.81-6.14l15.79 15.79-3.41 12.72-12.72 3.41-15.79-15.79c-2.88 8.78-.84 18.83 6.14 25.81 6.98 6.98 17.03 9.02 25.81 6.14l69.35 69.35c4.45 4.45 11.67 4.45 16.12 0 4.45-4.45 4.45-11.67 0-16.12L563.51 71c2.88-8.78.84-18.83-6.14-25.81l.01-.01Z"/><path fill="#EAD3D9" d="m626.29 72.27 12.24-21.54-12.16-12.17-21.54 12.24-4.16 13.46-42.38 42.38 12.16 12.17 42.38-42.38 13.46-4.16Z"/><path fill="#DDC666" d="m579.884 111.384-14.171-14.17a5.16 5.16 0 0 0-7.297 0l-40.376 40.375a5.16 5.16 0 0 0 0 7.297l14.17 14.171a5.161 5.161 0 0 0 7.298 0l40.376-40.376a5.16 5.16 0 0 0 0-7.297Z"/><path fill="#3187AD" d="M616.22 280.47c22.014 0 39.86-17.846 39.86-39.86s-17.846-39.86-39.86-39.86-39.86 17.846-39.86 39.86 17.846 39.86 39.86 39.86Z" opacity=".4"/><path fill="#EAD3D9" d="M650.93 205.89c-19.14-19.14-50.29-19.14-69.43 0-19.14 19.14-19.14 50.29 0 69.43 17.46 17.46 44.92 18.99 64.13 4.58l39.45 39.45 9.88-9.88-39.45-39.45c14.4-19.22 12.88-46.67-4.58-64.13Zm-8.75 60.69c-14.32 14.32-37.62 14.32-51.94 0s-14.32-37.62 0-51.94 37.62-14.32 51.94 0 14.32 37.62 0 51.94Z"/><path fill="#EF8C70" d="m653.199 293.391 15.811-15.811 37.491 37.491c4.363 4.363 4.363 11.448 0 15.811-4.363 4.363-11.448 4.363-15.811 0l-37.491-37.491Z"/><path fill="#D64752" d="M439.36 97.1c-1.52 0-3.04-.58-4.2-1.74L414.4 74.6l-20.76 20.76c-2.32 2.32-6.08 2.32-8.39 0-2.32-2.32-2.32-6.08 0-8.39l29.15-29.15 29.15 29.15c2.32 2.32 2.32 6.08 0 8.39a5.921 5.921 0 0 1-4.2 1.74h.01ZM161.83 86.66H67.46l-3.63-13.48C62.79 70.07 60.2 68 57.09 68h-19.7c-4.15 0-7.26 3.11-7.26 7.26s3.11 7.26 7.26 7.26h14L69.02 152c1.04 3.11 3.63 5.18 6.74 5.18h72.07c3.11 0 6.22-2.07 6.74-5.18l14-56.52c.52-2.07 0-4.15-1.56-6.22-1.04-1.56-3.11-2.59-5.18-2.59v-.01Z"/><path fill="#DDC666" d="M98.57 175.84c0 6.87-5.57 12.44-12.44 12.44-6.87 0-12.44-5.57-12.44-12.44 0-6.87 5.57-12.44 12.44-12.44 6.87 0 12.44 5.57 12.44 12.44ZM147.31 175.84c0 6.87-5.57 12.44-12.44 12.44-6.87 0-12.44-5.57-12.44-12.44 0-6.87 5.57-12.44 12.44-12.44 6.87 0 12.44 5.57 12.44 12.44Z"/><path fill="#EAD3D9" d="M125.68 116.22h-10.64v-10.64a3.55 3.55 0 0 0-7.1 0v10.64H97.3a3.55 3.55 0 0 0 0 7.1h10.64v10.64a3.55 3.55 0 0 0 7.1 0v-10.64h10.64a3.55 3.55 0 0 0 0-7.1Z"/></g><defs><clipPath id="a"><path fill="#fff" d="M0 0h709.75v395.59H0z"/></clipPath></defs></svg>