<svg xmlns="http://www.w3.org/2000/svg" width="528" height="451"><g clip-path="url(#a)"><path fill="#D64752" d="M354.77 98.63c-2.53-49.82-42.21-57.89-63.64-50.74-10.91 3.64-20.52 13.41-27.61 22.6-7.09-9.19-16.7-18.96-27.61-22.6-21.43-7.15-61.11.91-63.64 50.74-1.57 31.02 15.88 59.11 78.85 97.98 3.96 2.45 8.07 4.93 12.41 7.47 4.33-2.54 8.44-5.02 12.41-7.47 62.96-38.87 80.42-66.96 78.85-97.98h-.02Z"/><path fill="#fff" d="M229.53 94.11h-6v-6c0-1.1-.9-2-2-2s-2 .9-2 2v6h-6c-1.1 0-2 .9-2 2s.9 2 2 2h6v6c0 1.1.9 2 2 2s2-.9 2-2v-6h6c1.1 0 2-.9 2-2s-.9-2-2-2Z"/><path fill="#EF8C70" d="M54.86 132.86h-6v-6c0-1.1-.9-2-2-2s-2 .9-2 2v6h-6c-1.1 0-2 .9-2 2s.9 2 2 2h6v6c0 1.1.9 2 2 2s2-.9 2-2v-6h6c1.1 0 2-.9 2-2s-.9-2-2-2Z"/><path fill="#EAD3D9" d="M281.52 251.86h-6v-6c0-1.1-.9-2-2-2s-2 .9-2 2v6h-6c-1.1 0-2 .9-2 2s.9 2 2 2h6v6c0 1.1.9 2 2 2s2-.9 2-2v-6h6c1.1 0 2-.9 2-2s-.9-2-2-2Z"/><path fill="#152338" d="M507.57 126.11h-6v-6c0-1.1-.9-2-2-2s-2 .9-2 2v6h-6c-1.1 0-2 .9-2 2s.9 2 2 2h6v6c0 1.1.9 2 2 2s2-.9 2-2v-6h6c1.1 0 2-.9 2-2s-.9-2-2-2ZM316.56 8h-6V2c0-1.1-.9-2-2-2s-2 .9-2 2v6h-6c-1.1 0-2 .9-2 2s.9 2 2 2h6v6c0 1.1.9 2 2 2s2-.9 2-2v-6h6c1.1 0 2-.9 2-2s-.9-2-2-2ZM128.48 49.68h-6v-6c0-1.1-.9-2-2-2s-2 .9-2 2v6h-6c-1.1 0-2 .9-2 2s.9 2 2 2h6v6c0 1.1.9 2 2 2s2-.9 2-2v-6h6c1.1 0 2-.9 2-2s-.9-2-2-2Z"/><path fill="#DDC666" d="M422.55 96.11h-6v-6c0-1.1-.9-2-2-2s-2 .9-2 2v6h-6c-1.1 0-2 .9-2 2s.9 2 2 2h6v6c0 1.1.9 2 2 2s2-.9 2-2v-6h6c1.1 0 2-.9 2-2s-.9-2-2-2Z"/><path fill="#3187AD" d="M506.67 307.89c-37.01 70.5-107.78 115.53-186.61 119.54v-94.77c65.79-5.84 117.54-61.25 117.54-128.53 0-11.19-1.44-22.3-4.27-33.03l-22.24 5.87a106.28 106.28 0 0 1 3.51 27.16c0 54.35-41.1 99.28-93.85 105.35 3.16-27.6 16.97-52.82 38.97-70.51l-14.41-17.93c-30.67 24.65-48.25 61.33-48.25 100.63v129.04h11.5c91.98 0 175.69-50.63 218.47-132.14l-20.37-10.69.01.01Zm-105.88 55.96 11.52 19.91c49.84-28.84 85.73-77.45 98.47-133.35l-22.42-5.11c-11.33 49.69-43.25 92.9-87.57 118.55Zm-19.62-33.92 11.52 19.91c25.11-14.52 46.16-35.41 60.9-60.4 15.18-25.76 23.21-55.26 23.21-85.31h-23c0 51.69-27.83 99.89-72.62 125.8h-.01ZM134.35 349.85l11.52-19.91c-44.79-25.91-72.62-74.12-72.62-125.8h-23c0 30.05 8.02 59.55 23.21 85.31 14.73 24.99 35.79 45.88 60.9 60.4h-.01Zm-19.63 33.92 11.52-19.91C81.92 338.21 50 295 38.67 245.31l-22.42 5.11c12.74 55.9 48.64 104.51 98.47 133.35Zm67-162.72-14.41 17.93c22 17.69 35.81 42.9 38.97 70.51-52.75-6.07-93.85-51-93.85-105.35 0-9.21 1.18-18.35 3.51-27.16l-22.24-5.87a129.562 129.562 0 0 0-4.27 33.03c0 67.28 51.76 122.69 117.54 128.53v94.77c-78.83-4-149.6-49.03-186.61-119.54L-.01 318.59c42.78 81.51 126.5 132.14 218.47 132.14h11.5V321.69c0-39.3-17.59-75.98-48.25-100.63l.01-.01Z"/></g><defs><clipPath id="a"><path fill="#fff" d="M0 0h527.04v450.72H0z"/></clipPath></defs></svg>