<svg xmlns="http://www.w3.org/2000/svg" width="731" height="488" fill="none"><g clip-path="url(#a)"><path fill="#152338" d="M169.1 468.59c-51.78 0-93.9-42.12-93.9-93.9 0-51.78 42.12-93.9 93.9-93.9h114.08c57.03 0 103.43-46.4 103.43-103.43 0-68.54 55.76-124.29 124.29-124.29h219.54v20.87H510.9c-57.03 0-103.43 46.4-103.43 103.43 0 68.54-55.76 124.29-124.29 124.29H169.1c-40.27 0-73.03 32.76-73.03 73.03s32.76 73.03 73.03 73.03c24.3 0 46.94-12.04 60.56-32.21l17.29 11.68c-17.51 25.92-46.62 41.39-77.86 41.39l.01.01Z"/><path fill="#3187AD" d="M594.68 438.19H427.75c-51.78 0-93.9-42.12-93.9-93.9V93.9c0-40.27-32.76-73.03-73.03-73.03s-73.03 32.76-73.03 73.03v81.06c0 51.78-42.12 93.9-93.9 93.9-51.78 0-93.89-42.13-93.89-93.9 0-31.24 15.47-60.35 41.39-77.85l11.68 17.29c-20.17 13.62-32.21 36.27-32.21 60.56 0 40.27 32.76 73.03 73.03 73.03s73.03-32.76 73.03-73.03V93.9C166.93 42.12 209.05 0 260.83 0c51.78 0 93.9 42.12 93.9 93.9v250.39c0 40.27 32.76 73.03 73.03 73.03h166.93c40.27 0 73.03-32.76 73.03-73.03s-32.76-73.03-73.03-73.03h-83.46c-51.78 0-93.9-42.12-93.9-93.9 0-51.78 42.12-93.9 93.9-93.9h219.21v20.87H511.23c-40.27 0-73.03 32.76-73.03 73.03s32.76 73.03 73.03 73.03h83.46c51.78 0 93.9 42.12 93.9 93.9 0 51.78-42.12 93.9-93.9 93.9h-.01Z"/><path fill="#DDC666" d="M292.87 91.94c0 17.7-14.35 32.04-32.04 32.04-17.69 0-32.04-14.34-32.04-32.04s14.35-32.04 32.04-32.04c17.69 0 32.04 14.35 32.04 32.04Z"/><path fill="#EF8C70" d="M245.78 132.28h30.09v-4.86h-30.09M245.78 139.84h30.09v-4.85h-30.09M245.78 147.41h30.09v-4.85h-30.09"/><path fill="#3187AD" d="M260.83 156.25c4.97 0 9.33-2.57 11.85-6.45h-23.69c2.52 3.88 6.88 6.45 11.85 6.45h-.01Z"/><path fill="#D64752" d="M216.95 94.18v-4.47l.01-.89L202 88.8l-.01 6.26 14.96.01v-.89ZM222.1 73.33l-10.57-10.58-4.43 4.41 10.57 10.59 1.26-1.26 2.54-2.53.63-.63ZM220.8 109.3l-1.9-1.9-1.26-1.26-10.59 10.57 4.42 4.42 10.59-10.56-1.26-1.27ZM304.7 89.7V95.06l14.95.02.01-6.26-14.96-.01v.89ZM299.56 110.54l10.56 10.59 4.43-4.42-10.57-10.58-1.26 1.26-2.53 2.53-.63.62ZM300.85 74.57l1.9 1.91 1.26 1.26 10.59-10.57-4.42-4.42-10.59 10.56 1.26 1.26Z"/><path fill="#EAD3D9" d="M416.11 370.52c-14.48-7.54-24.1-20.79-24.1-35.89 0-23.48 23.23-42.51 51.9-42.51 28.66 0 51.9 19.03 51.9 42.51 0 23.48-23.23 42.51-51.9 42.51-5.31 0-10.43-.66-15.26-1.87-4.43 6.57-12.55 12.82-27.4 12.82 0 0 10.82-4.71 14.86-17.57Z"/><path fill="#EF8C70" d="M471.2 345.83a9.03 9.03 0 1 0 0-18.06 9.03 9.03 0 0 0 0 18.06ZM443.9 345.22a9.03 9.03 0 1 0 0-18.06 9.03 9.03 0 0 0 0 18.06ZM416.61 345.22a9.03 9.03 0 1 0 0-18.06 9.03 9.03 0 0 0 0 18.06Z"/><path fill="#D64752" d="M630.24 330.31c-1.3-25.53-21.63-29.66-32.61-26-5.59 1.86-10.52 6.87-14.15 11.58-3.63-4.71-8.56-9.71-14.15-11.58-10.98-3.66-31.32.47-32.61 26-.81 15.89 8.14 30.29 40.4 50.2 2.03 1.25 4.14 2.53 6.36 3.83 2.22-1.3 4.33-2.57 6.36-3.83 32.26-19.92 41.21-34.31 40.4-50.2Z"/><path fill="#EF8C70" d="M146.85 183.37v-16.83h-14.38a39.443 39.443 0 0 0-5.36-12.9l10.18-10.18-11.9-11.9-10.18 10.18c-3.89-2.5-8.24-4.34-12.9-5.36V122H85.48v14.38a39.443 39.443 0 0 0-12.9 5.36L62.4 131.56l-11.9 11.9 10.18 10.18c-2.5 3.89-4.34 8.24-5.36 12.9H40.94v16.83h14.38c1.02 4.66 2.86 9.01 5.36 12.9L50.5 206.45l11.9 11.9 10.18-10.18c3.89 2.5 8.24 4.34 12.9 5.36v14.38h16.83v-14.38c4.66-1.02 9.01-2.86 12.9-5.36l10.18 10.18 11.9-11.9-10.18-10.18c2.5-3.89 4.34-8.24 5.36-12.9h14.38ZM93.9 195.51c-11.33 0-20.55-9.22-20.55-20.55s9.22-20.55 20.55-20.55 20.55 9.22 20.55 20.55-9.22 20.55-20.55 20.55Z"/><path fill="#152338" d="M511.22 230.74c29.481 0 53.38-23.899 53.38-53.38s-23.899-53.38-53.38-53.38-53.38 23.899-53.38 53.38 23.899 53.38 53.38 53.38Z"/><path fill="#EF8C70" d="m504.94 205.84-28.2-28.2 9.01-9.02 19.19 19.19 31.74-31.75 9.02 9.01-40.76 40.77Z"/><path fill="#EAD3D9" d="M81.35 52.41h-6v-6c0-1.1-.9-2-2-2s-2 .9-2 2v6h-6c-1.1 0-2 .9-2 2s.9 2 2 2h6v6c0 1.1.9 2 2 2s2-.9 2-2v-6h6c1.1 0 2-.9 2-2s-.9-2-2-2Z"/><path fill="#3187AD" d="M433.63 32.41h-6v-6c0-1.1-.9-2-2-2s-2 .9-2 2v6h-6c-1.1 0-2 .9-2 2s.9 2 2 2h6v6c0 1.1.9 2 2 2s2-.9 2-2v-6h6c1.1 0 2-.9 2-2s-.9-2-2-2Z"/><path fill="#EF8C70" d="M154.85 344.59h-6v-6c0-1.1-.9-2-2-2s-2 .9-2 2v6h-6c-1.1 0-2 .9-2 2s.9 2 2 2h6v6c0 1.1.9 2 2 2s2-.9 2-2v-6h6c1.1 0 2-.9 2-2s-.9-2-2-2Z"/><path fill="#DDC666" d="M544.67 475.24h-6v-6c0-1.1-.9-2-2-2s-2 .9-2 2v6h-6c-1.1 0-2 .9-2 2s.9 2 2 2h6v6c0 1.1.9 2 2 2s2-.9 2-2v-6h6c1.1 0 2-.9 2-2s-.9-2-2-2Z"/><path fill="#D64752" d="M632.76 190.42h-6v-6c0-1.1-.9-2-2-2s-2 .9-2 2v6h-6c-1.1 0-2 .9-2 2s.9 2 2 2h6v6c0 1.1.9 2 2 2s2-.9 2-2v-6h6c1.1 0 2-.9 2-2s-.9-2-2-2ZM290.67 248.74h-6v-6c0-1.1-.9-2-2-2s-2 .9-2 2v6h-6c-1.1 0-2 .9-2 2s.9 2 2 2h6v6c0 1.1.9 2 2 2s2-.9 2-2v-6h6c1.1 0 2-.9 2-2s-.9-2-2-2Z"/><path fill="#32AA86" d="M266.87 362.38c0-18.05-14.64-32.69-32.69-32.69-18.05 0-32.69 14.64-32.69 32.69-18.05 0-32.69 14.64-32.69 32.69 0 18.05 14.64 32.69 32.69 32.69h65.38c18.05 0 32.69-14.64 32.69-32.69 0-18.05-14.64-32.69-32.69-32.69Z"/></g><defs><clipPath id="a"><path fill="#fff" d="M0 0h730.43v487.24H0z"/></clipPath></defs></svg>