<svg xmlns="http://www.w3.org/2000/svg" width="571" height="352" fill="none"><g clip-path="url(#a)"><path fill="#152338" d="M419.02 95.91c-13.37-10.7-24.48-22.48-35.22-33.87C353.73 30.13 325.32 0 257.38 0c-38.06 0-70.06 13.33-92.53 38.54-20.13 22.58-31.22 53.54-31.22 87.16v14.71l-28.16-28.16-16.97 16.97 57.13 57.13 57.13-57.13-16.97-16.97-28.16 28.16V125.7c0-50.62 30.84-101.7 99.75-101.7 57.58 0 80.25 24.05 108.96 54.5 11.31 12 23 24.4 37.69 36.15 45.98 36.78 93.86 36.78 166.33 36.78v-24c-75.6 0-113.61-1.34-151.34-31.52Z"/><path fill="#EF8C70" d="M487.47 148.99c-6.9-27.83-17.4-50.63-31.2-67.77-19.79-24.58-45.74-37.05-77.12-37.05-26.37 0-48.99 6.31-67.21 18.76-15.85 10.82-28.48 26.37-37.55 46.2-16.45 35.96-18.36 79.46-18.36 109.05v13.39l-29.75-29.75-16.97 16.97 58.72 58.72 58.72-58.72-16.97-16.97-29.75 29.75v-13.39c0-27.35 1.68-67.37 16.18-99.07 15.68-34.28 42.81-50.94 82.94-50.94 24.09 0 43.2 9.19 58.42 28.1 11.59 14.4 20.54 34.08 26.59 58.5 6.17 24.88 15.71 42.64 30.01 55.88 18.07 16.74 43.7 25.22 76.17 25.22v-24c-59.3 0-75.18-31.79-82.89-62.88h.02Z"/><path fill="#D64752" d="M455.32 219.88c-30.17-19.03-54.42-44.96-77.88-70.03C327.85 96.83 276.55 42.01 170.41 53.2c-37.75 3.98-69.59 18.77-92.08 42.78-21.41 22.85-33.2 53.45-33.2 86.15v14.71l-28.16-28.16L0 185.66l57.13 57.13 57.13-57.13-16.97-16.97-28.16 28.16v-14.71c0-26.97 9.24-51.09 26.71-69.74 18.49-19.74 45.15-31.95 77.08-35.32 42.98-4.53 78.01 2.18 110.24 21.12 29.06 17.07 52.22 41.84 76.75 68.05 24.49 26.18 49.82 53.26 82.6 73.94 37.45 23.62 79.27 35.1 127.85 35.1v-24c-43.91 0-81.54-10.27-115.04-31.4v-.01Z"/><path fill="#3187AD" d="M424.97 144.4c-54.03-15.22-105.07-29.6-171.69-13.08-49.11 12.18-81.09 36.17-97.76 73.32-14.62 32.6-14.62 70.82-14.62 98.72v2.56l-43.05-43.05-16.97 16.97 72.02 72.02 72.02-72.02-16.97-16.97-43.05 43.05v-2.56c0-27.17 0-60.99 12.52-88.9 13.45-29.98 40.16-49.56 81.64-59.85 60.45-15 106.31-2.08 159.4 12.88 42.35 11.93 90.36 25.46 151.89 25.46v-24c-58.22 0-102.53-12.49-145.38-24.56v.01Z"/><path fill="#152338" d="M570.36 151.43c-72.48 0-120.36 0-166.33-36.78l14.99-18.74c37.73 30.18 75.74 31.52 151.34 31.52v24Z"/><path fill="#EF8C70" d="M570.36 235.87c-32.47 0-58.1-8.49-76.17-25.22-14.3-13.25-23.84-31-30.01-55.88l23.29-5.78c7.71 31.1 23.59 62.88 82.89 62.88v24Z"/></g><defs><clipPath id="a"><path fill="#fff" d="M0 0h570.36v351.87H0z"/></clipPath></defs></svg>