<svg xmlns="http://www.w3.org/2000/svg" width="549" height="672" fill="none"><g clip-path="url(#a)"><path fill="#152338" d="m353.85 332.8 11.57 52.84H198.01l-11.57-52.84h-22l74.06 338.35h22l-15.21-69.46H412.7l15.21 69.46h22L375.85 332.8h-22Zm16.38 74.84 16.42 75.02H219.24l-16.42-75.02h167.41ZM240.48 579.68l-16.42-75.02h167.41l16.42 75.02H240.48Z"/><path fill="#EF8C70" d="M353.85 332.8v44.33H186.44V332.8h-22v338.35h22v-19.74h167.41v19.74h22V332.8h-22Zm0 66.33v62.09H186.44v-62.09h167.41Zm0 84.09v62.09H186.44v-62.09h167.41ZM186.44 629.4v-62.09h167.41v62.09H186.44Z"/><path fill="#EAD88B" d="m270.15 47 27.48 84.58h88.94l-71.95 52.28 27.48 84.59-71.95-52.28-71.95 52.28 27.48-84.59-71.95-52.28h88.94L270.15 47Z"/><path fill="#DDC666" d="m270.15 47 27.48 84.58h88.94l-71.95 52.28 27.48 84.58-71.95-52.28-71.95 52.28 27.48-84.58-71.95-52.28h88.94L270.15 47Zm0-47c-20.36 0-38.41 13.11-44.7 32.48l-16.93 52.11h-54.79c-20.36 0-38.41 13.11-44.7 32.48-6.29 19.37.6 40.58 17.07 52.55l44.33 32.2-16.93 52.11c-6.29 19.37.6 40.58 17.07 52.55a46.98 46.98 0 0 0 27.63 8.98c9.7 0 19.39-2.99 27.63-8.98l44.33-32.2 44.33 32.2a46.98 46.98 0 0 0 27.63 8.98c9.7 0 19.39-2.99 27.63-8.98 16.47-11.97 23.37-33.18 17.07-52.55l-16.93-52.11 44.33-32.2c16.47-11.97 23.37-33.18 17.07-52.55-6.29-19.36-24.34-32.48-44.7-32.48H331.8l-16.93-52.11C308.58 13.11 290.53 0 270.17 0h-.02Z" opacity=".04"/><path fill="#DDC666" d="m270.15 47 27.48 84.58h88.94l-71.95 52.28 27.48 84.58-71.95-52.28-71.95 52.28 27.48-84.58-71.95-52.28h88.94L270.15 47Zm0-17c-7.36 0-13.89 4.74-16.17 11.75l-23.67 72.84h-76.59c-7.36 0-13.89 4.74-16.17 11.75-2.28 7.01.22 14.68 6.18 19.01l61.96 45.02-23.67 72.84c-2.28 7 .22 14.68 6.18 19.01 2.98 2.16 6.49 3.25 9.99 3.25s7.01-1.08 9.99-3.25l61.96-45.02 61.96 45.02c2.98 2.16 6.49 3.25 9.99 3.25s7.01-1.08 9.99-3.25c5.96-4.33 8.45-12 6.18-19.01l-23.67-72.84 61.96-45.02c5.96-4.33 8.45-12 6.18-19.01a16.988 16.988 0 0 0-16.17-11.75h-76.59L286.3 41.75c-2.28-7-8.8-11.75-16.17-11.75h.02Z" opacity=".06"/><path fill="#DDC666" d="m270.15 85.83 16.07 49.46 2.69 8.29h60.72l-42.07 30.57-7.05 5.12 2.69 8.29 16.07 49.46-42.07-30.57-7.05-5.12-7.05 5.12-42.07 30.57 16.07-49.46 2.69-8.29-7.05-5.12-42.07-30.57h60.72l2.69-8.29 16.07-49.46Zm0-38.83-27.48 84.58h-88.94l71.95 52.28-27.48 84.58 71.95-52.28 71.95 52.28-27.48-84.58 71.95-52.28h-88.94L270.15 47Z"/><path fill="#D64752" d="m462.29 231.17 3.71 11.39h11.98l-9.69 7.04 3.7 11.4-9.7-7.04-9.69 7.04 3.7-11.4-9.69-7.04h11.98l3.7-11.39Z"/><path fill="#152338" d="m517.64 197.56 3.7 11.4h11.98l-9.69 7.04 3.7 11.4-9.69-7.05-9.7 7.05 3.71-11.4-9.7-7.04h11.98l3.71-11.4ZM87.77 191.4l3.7 11.4h11.98l-9.69 7.04 3.7 11.4-9.69-7.05-9.7 7.05 3.71-11.4-9.7-7.04h11.98l3.71-11.4Z"/><path fill="#EAD3D9" d="m90.36 58.38 3.71 11.4h11.98l-9.69 7.04 3.7 11.39-9.7-7.04-9.69 7.04 3.7-11.39-9.69-7.04h11.98l3.7-11.4Z"/><path fill="#3187AD" d="m375.85 27.32 3.71 11.39h11.98l-9.69 7.04 3.7 11.4-9.7-7.04-9.69 7.04 3.7-11.4-9.69-7.04h11.98l3.7-11.39Z"/><path fill="#EF8C70" d="m15.68 157.72 3.71 11.4h11.98l-9.69 7.04 3.7 11.4-9.7-7.05-9.69 7.05 3.7-11.4L0 169.12h11.98l3.7-11.4Z"/><path fill="#DDC666" d="m533.32 73.3 3.7 11.39h11.99l-9.7 7.05 3.71 11.39-9.7-7.04-9.69 7.04 3.7-11.39-9.69-7.05h11.98l3.7-11.39Z"/></g><defs><clipPath id="a"><path fill="#fff" d="M0 0h549.01v671.14H0z"/></clipPath></defs></svg>