<svg xmlns="http://www.w3.org/2000/svg" width="100" height="100" viewBox="0 0 50 50" fill="#FFF"><path d="M24 2c-7.168 0-13 8.292-13 18.486 0 5.095 1.485 9.669 3.842 13.006A4.116 4.116 0 0 0 14 36c0 .972.319 1.958 1.002 2.727C15.685 39.495 16.75 40 18 40c1.25 0 2.315-.505 2.998-1.273C21.681 37.957 22 36.972 22 36s-.319-1.958-1.002-2.727C20.315 32.505 19.25 32 18 32a4.25 4.25 0 0 0-1.6.313c-2.082-2.995-3.4-7.169-3.4-11.827C13 11.396 17.935 4 24 4c5.419 0 9.923 5.91 10.824 13.65.707.27 1.409.573 2.104.907C36.247 9.267 30.71 2 24 2zm-2 13c-1.25 0-2.315.505-2.998 1.273C18.319 17.043 18 18.028 18 19s.319 1.958 1.002 2.727C19.685 22.495 20.75 23 22 23c1.25 0 2.315-.505 2.998-1.273.427-.48.696-1.05.85-1.643 3.577-.154 7.598.903 11.295 3.12 7.894 4.731 11.87 12.983 8.863 18.392-1.074 1.93-2.95 3.302-5.42 3.963-3.462.928-7.715.357-11.773-1.479-.586.471-1.206.917-1.844 1.348 3.325 1.679 6.843 2.568 10.093 2.568a15.64 15.64 0 0 0 4.042-.506c3.007-.805 5.307-2.508 6.65-4.924 3.524-6.342-.775-15.797-9.584-21.078-3.976-2.385-8.344-3.551-12.283-3.424a3.943 3.943 0 0 0-.889-1.79C24.315 15.503 23.25 15 22 15zm0 2c.75 0 1.185.245 1.502.602.317.356.498.87.498 1.398 0 .528-.181 1.042-.498 1.398-.317.357-.752.602-1.502.602s-1.185-.245-1.502-.602C20.181 20.042 20 19.528 20 19c0-.528.181-1.042.498-1.398.317-.357.752-.602 1.502-.602zM9.162 23.332c-6.964 5.44-10.06 13.574-6.914 19.234 1.343 2.416 3.643 4.117 6.65 4.922 1.271.34 2.63.508 4.041.508 3.8 0 7.972-1.208 11.768-3.484 4.556-2.732 7.837-6.579 9.506-10.533 1.155-.056 2.142-.53 2.785-1.252C37.681 31.957 38 30.972 38 30s-.319-1.958-1.002-2.727C36.315 26.505 35.25 26 34 26c-1.25 0-2.315.505-2.998 1.273C30.319 28.043 30 29.028 30 30s.319 1.958 1.002 2.727c.332.373.758.68 1.248.902-1.568 3.409-4.535 6.748-8.572 9.168-4.75 2.849-10.082 3.882-14.264 2.762-2.472-.662-4.345-2.032-5.418-3.963-2.542-4.573-.081-11.168 5.506-15.961a27.027 27.027 0 0 1-.34-2.303zM34 28c.75 0 1.185.245 1.502.602.317.356.498.87.498 1.398 0 .528-.181 1.042-.498 1.398-.317.357-.752.602-1.502.602s-1.185-.245-1.502-.602C32.181 31.042 32 30.528 32 30c0-.528.181-1.042.498-1.398.317-.357.752-.602 1.502-.602zm-16 6c.75 0 1.185.245 1.502.602.317.356.498.87.498 1.398 0 .528-.181 1.042-.498 1.398-.317.357-.752.602-1.502.602s-1.185-.245-1.502-.602C16.181 37.042 16 36.528 16 36c0-.528.181-1.042.498-1.398.317-.357.752-.602 1.502-.602z"/></svg>