<svg xmlns="http://www.w3.org/2000/svg" width="336" height="336" fill="none"><path fill="#D64752" d="M268.81 134.405c-37.1 0-67.19 30.091-67.19 67.19h67.19v-67.19Zm33.595 0c-18.55 0-33.595 15.045-33.595 33.595 0 18.55 15.045 33.595 33.595 33.595C320.955 201.595 336 186.55 336 168c0-18.55-15.045-33.595-33.595-33.595Z"/><path fill="#DDC666" d="M33.595 134.405C15.045 134.405 0 149.45 0 168c0 18.55 15.045 33.595 33.595 33.595 18.55 0 33.595-15.045 33.595-33.595 0-18.55-15.045-33.595-33.595-33.595Zm33.595 0v67.19c37.1 0 67.19-30.09 67.19-67.19H67.19Z"/><path fill="#EF8C70" d="M134.405 302.405C134.405 320.955 149.45 336 168 336c18.55 0 33.595-15.045 33.595-33.595 0-18.55-15.045-33.595-33.595-33.595-18.55 0-33.595 15.045-33.595 33.595Zm67.19-33.595c0-37.1-30.09-67.19-67.19-67.19v67.19h67.19Z"/><path fill="#3187AD" d="M168 67.19c18.55 0 33.595-15.045 33.595-33.595C201.595 15.045 186.55 0 168 0c-18.55 0-33.595 15.045-33.595 33.595 0 18.55 15.045 33.595 33.595 33.595Zm-33.595 0c0 37.1 30.09 67.19 67.19 67.19V67.19h-67.19Z"/></svg>