<svg xmlns="http://www.w3.org/2000/svg" width="38" height="38"><path fill="#fff" d="M12.666 4.75c-6.12 0-11.083 4.962-11.083 11.083s4.962 11.084 11.083 11.084h1.696a11.174 11.174 0 0 1 0-3.167h-1.696a7.917 7.917 0 0 1 0-15.833h12.667a7.917 7.917 0 0 1 7.758 9.5c.927.91 1.695 1.98 2.259 3.166a11.04 11.04 0 0 0 1.066-4.75c0-6.12-4.962-11.083-11.083-11.083H12.666Zm12.667 15.833a4.75 4.75 0 1 0 0 9.5 4.75 4.75 0 0 0 0-9.5Zm-7.917 4.75A7.917 7.917 0 1 1 31.938 29.7l4.015 4.015-2.24 2.239-4.014-4.015a7.917 7.917 0 0 1-12.283-6.605Z"/></svg>