<svg xmlns="http://www.w3.org/2000/svg" width="38" height="38"><path fill="#fff" d="M12.667 6.333a3.167 3.167 0 1 1-6.334 0 3.167 3.167 0 0 1 6.334 0Zm-4.75 19v9.5H4.75v-19a4.75 4.75 0 0 1 8.084-3.383l3.76 3.55 3.662-3.661 2.239 2.239-5.838 5.838-2.407-2.273v16.69h-3.167v-9.5H7.917ZM9.5 14.25c-.874 0-1.583.709-1.583 1.583v6.334h3.166v-6.334c0-.874-.709-1.583-1.583-1.583Zm20.583-6.333h-14.25V4.75h15.834c.874 0 1.583.709 1.583 1.583V23.75c0 .875-.709 1.583-1.583 1.583h-5.422l4.47 9.5h-3.5l-4.47-9.5h-6.912v-3.166h14.25V7.917Z"/></svg>