<svg xmlns="http://www.w3.org/2000/svg" width="39" height="38"><path fill="#fff" d="m11.413 22.36-3.359 3.358 4.479 4.478 17.913-17.913-4.479-4.479-3.358 3.36 2.239 2.238-2.24 2.24-2.238-2.24-2.24 2.24 2.24 2.239-2.24 2.239-2.239-2.24-2.239 2.24 2.24 2.24-2.24 2.238-2.24-2.239ZM27.087 4.445l6.718 6.717c.618.618.618 1.621 0 2.24L13.652 33.554a1.583 1.583 0 0 1-2.24 0l-6.717-6.718a1.583 1.583 0 0 1 0-2.239L24.848 4.446a1.583 1.583 0 0 1 2.24 0Zm-4.478 24.63 2.239-2.24 3.55 3.551h2.24v-2.239l-3.55-3.55 2.238-2.24 4.173 4.174v6.718h-6.716l-4.174-4.174ZM9.174 15.64l-4.479-4.479a1.583 1.583 0 0 1 0-2.239l4.479-4.478a1.583 1.583 0 0 1 2.239 0l4.478 4.478-2.24 2.24-3.358-3.36-2.24 2.24 3.36 3.358-2.24 2.24Z"/></svg>