<svg xmlns="http://www.w3.org/2000/svg" width="84" height="66"><path fill="#EF8C70" d="M81.918 35.984a5.385 5.385 0 0 0-2.759-.808c-1.452-.017-2.982.524-4.21 1.701-1.72 1.65-3.997 3.988-6.283 5.887-2.285 1.9-4.683 3.197-5.792 3.197-2.776 0-5.783-.035-8.422-.069.224-.387.396-.799.482-1.263.275-1.427-.55-3.068-2.097-3.936-1.539-.868-3.747-1.323-6.97-1.358-3.987-.051-6.428-1.4-8.997-2.784-2.166-1.169-4.512-2.39-7.52-2.372-.559 0-1.143.06-1.745.163-4.537.722-6.445 1.719-7.957 2.32-1.066.43-8.637 2.2-10.605 2.27v24.517c8.405.722 22.988 1.762 32.588 1.599 5.276-.086 9.16.103 12.512-.18 3.352-.284 6.222-1.118 9.015-3.155 5.405-3.936 10.991-10.364 18.906-18.837 1.152-1.23 1.753-2.553 1.676-3.867-.069-1.315-.85-2.415-1.84-3.034l.018.009Z"/><path fill="#EAD3D9" d="M6.43 37.152H.244v27.93h6.188v-27.93Z"/><path fill="#DDC666" d="M73.333 28.395c0 6.695-5.432 12.126-12.126 12.126-6.695 0-12.126-5.431-12.126-12.126 0-6.694 5.431-12.125 12.126-12.125 6.694 0 12.126 5.43 12.126 12.125Z"/><path fill="#3187AD" fill-opacity=".4" d="M76.83.895S63.063 3.852 69.835 16.27C83.645 13.219 76.83.895 76.83.895Z"/></svg>