<svg xmlns="http://www.w3.org/2000/svg" width="39" height="38"><path fill="#fff" d="M19.758 34.838c-8.744 0-15.833-7.089-15.833-15.833 0-8.745 7.089-15.834 15.833-15.834 8.745 0 15.834 7.09 15.834 15.834s-7.09 15.833-15.834 15.833Zm0-3.167c6.996 0 12.667-5.67 12.667-12.666S26.754 6.338 19.758 6.338c-6.995 0-12.667 5.671-12.667 12.667 0 6.995 5.671 12.666 12.667 12.666Zm-4.75-11.083h-1.583v-3.167h1.583v-1.583a5.542 5.542 0 0 1 10.681-2.076l-3.145.786a2.375 2.375 0 0 0-4.37 1.29v1.583h4.75v3.167h-4.75v3.167h7.918v3.166H13.425v-3.166h1.583v-3.167Z"/></svg>