<svg xmlns="http://www.w3.org/2000/svg" width="39" height="38"><path fill="#fff" d="M10.02 28.5a4.752 4.752 0 0 1 8.96 0h16.104v3.166H18.98a4.752 4.752 0 0 1-8.96 0H3.418V28.5h6.604Zm9.5-11.084a4.752 4.752 0 0 1 8.96 0h6.604v3.167H28.48a4.752 4.752 0 0 1-8.96 0H3.418v-3.166h16.104Zm-9.5-11.083a4.752 4.752 0 0 1 8.96 0h16.104V9.5H18.98a4.752 4.752 0 0 1-8.96 0H3.418V6.333h6.604ZM14.5 9.5a1.583 1.583 0 1 0 0-3.167 1.583 1.583 0 0 0 0 3.167ZM24 20.583a1.583 1.583 0 1 0 0-3.167 1.583 1.583 0 0 0 0 3.167Zm-9.5 11.084a1.583 1.583 0 1 0 0-3.167 1.583 1.583 0 0 0 0 3.166Z"/></svg>