<svg xmlns="http://www.w3.org/2000/svg" width="38" height="38"><path fill="#fff" d="M36.179 17.4c-1.125-1.915-3.199-2.992-5.289-2.85V7.126h-7.425a5.738 5.738 0 0 0-2.85-5.288c-1.726-1.014-3.959-1.014-5.685 0-1.915 1.124-2.976 3.198-2.85 5.288H4.64v8.977a1.91 1.91 0 0 0 2.612 1.774c.966-.364 2.36-.174 3.135 1.124a2.539 2.539 0 0 1 0 2.47c-.76 1.298-2.153 1.504-3.135 1.124a1.987 1.987 0 0 0-1.789.206 1.907 1.907 0 0 0-.823 1.567v8.978h8.977a1.91 1.91 0 0 0 1.774-2.612c-.365-.966-.175-2.36 1.124-3.136a2.539 2.539 0 0 1 2.47 0c1.298.76 1.504 2.154 1.124 3.136a1.987 1.987 0 0 0 .206 1.789c.348.506.934.823 1.567.823h8.978v-7.426a5.738 5.738 0 0 0 5.288-2.85c1.013-1.726 1.013-3.958 0-5.684l.032.016Zm-2.724 4.07c-.76 1.298-2.153 1.504-3.135 1.124a1.987 1.987 0 0 0-1.789.206 1.907 1.907 0 0 0-.823 1.567v5.811h-4.26a5.738 5.738 0 0 0-2.85-5.288c-1.725-1.013-3.958-1.013-5.683 0-1.916 1.124-2.977 3.198-2.85 5.288h-4.26V25.92a5.738 5.738 0 0 0 5.289-2.85c1.013-1.726 1.013-3.958 0-5.684-1.124-1.916-3.199-2.993-5.289-2.85v-4.26h5.811a1.91 1.91 0 0 0 1.774-2.612c-.365-.966-.175-2.359 1.124-3.135a2.539 2.539 0 0 1 2.47 0c1.298.76 1.504 2.154 1.124 3.135a1.987 1.987 0 0 0 .206 1.79c.348.506.934.823 1.567.823h5.811v5.81a1.91 1.91 0 0 0 2.613 1.774c.965-.364 2.359-.174 3.135 1.124a2.539 2.539 0 0 1 0 2.47l.015.016Z"/></svg>