<svg xmlns="http://www.w3.org/2000/svg" width="38" height="38"><path fill="#fff" d="M19 17.417a7.917 7.917 0 0 1 7.917 7.916v9.5H23.75v-9.5a4.75 4.75 0 0 0-4.47-4.742l-.28-.008a4.75 4.75 0 0 0-4.742 4.471l-.008.28v9.5h-3.166v-9.5A7.917 7.917 0 0 1 19 17.416ZM8.71 22.167c.441 0 .87.051 1.282.149a9.418 9.418 0 0 0-.476 2.494l-.015.523.001.136a2.357 2.357 0 0 0-.564-.125l-.228-.01c-1.235 0-2.25.941-2.364 2.146l-.011.228v7.125H3.167v-7.125a5.542 5.542 0 0 1 5.542-5.541Zm20.583 0a5.542 5.542 0 0 1 5.542 5.541v7.125h-3.167v-7.125a2.375 2.375 0 0 0-2.146-2.364l-.229-.01c-.277 0-.544.047-.791.134v-.135a9.492 9.492 0 0 0-.49-3.015c.41-.1.84-.151 1.281-.151Zm-20.583-9.5a3.958 3.958 0 1 1 0 7.916 3.958 3.958 0 0 1 0-7.916Zm20.583 0a3.958 3.958 0 1 1 0 7.916 3.958 3.958 0 0 1 0-7.916ZM8.709 15.833a.792.792 0 1 0 0 1.584.792.792 0 0 0 0-1.584Zm20.583 0a.792.792 0 1 0 0 1.584.792.792 0 0 0 0-1.584ZM19 3.167a6.333 6.333 0 1 1 0 12.666 6.333 6.333 0 0 1 0-12.666Zm0 3.166a3.167 3.167 0 1 0 0 6.334 3.167 3.167 0 0 0 0-6.334Z"/></svg>