<svg xmlns="http://www.w3.org/2000/svg" width="398" height="98" fill="none"><g clip-path="url(#a)"><path fill="#083B5D" d="M177.36 30.93v35.59c0 3.12-2.52 5.65-5.64 5.66h-.01c-3.13 0-5.66-2.53-5.66-5.66V30.93c0-3.12 2.54-5.65 5.66-5.65a5.65 5.65 0 0 1 5.65 5.65Zm37.94-6.48c5.42 0 11.64 2.77 18.66 8.32.85.68 1 1.93.33 2.79-.18.22-.41.41-.66.54l-2.56 1.29-2.9 1.48c-.96.48-2.11.4-3-.2-3.48-2.4-6.81-3.6-10-3.6-8.21 0-13.93 5.73-13.93 13.52-.02 7.63 6.15 13.84 13.78 13.86h.28c5 0 9-1.58 11.52-3.93v-4.53h-9.94c-2.4 0-4.34-1.94-4.34-4.34v-.01c0-2.4 1.94-4.34 4.34-4.34h18c1.1 0 2 .9 2 2v13.63c0 1.18-.43 2.32-1.19 3.22-5.08 5.89-11.85 8.84-20.32 8.84-15.52 0-25.53-11.66-25.53-24.28 0-12.62 10.7-24.26 25.46-24.26Zm45.7 6.48V61.7h19.39c2.89.03 5.22 2.4 5.19 5.29 0 2.89-2.35 5.23-5.24 5.24H254.6c-2.76 0-5-2.24-5-5v-36.3a5.65 5.65 0 0 1 5.65-5.65h.01a5.651 5.651 0 0 1 5.74 5.56v.09Zm55.73-6.48c13.41-.04 24.31 10.8 24.35 24.21.04 13.41-10.8 24.31-24.21 24.35-13.41.04-24.31-10.8-24.35-24.21v-.07c.04-13.35 10.81-24.18 24.16-24.28h.05Zm0 10.55c-7.6-.02-13.77 6.13-13.79 13.73-.02 7.6 6.13 13.77 13.73 13.79 7.6.02 13.77-6.13 13.79-13.73v-.06c-.03-7.59-6.19-13.73-13.78-13.74h.05V35Zm57.11-10.55c13.41-.04 24.31 10.8 24.35 24.21.04 13.41-10.8 24.31-24.21 24.35-13.41.04-24.31-10.8-24.35-24.21v-.07c.04-13.35 10.81-24.18 24.16-24.28h.05Zm0 10.55c-7.6-.02-13.77 6.13-13.79 13.73-.02 7.6 6.13 13.77 13.73 13.79 7.6.02 13.77-6.13 13.79-13.73v-.06c-.03-7.59-6.19-13.73-13.78-13.74h.05V35Z"/><path fill="#3AA5ED" d="M7.28 72.18c0-35.85 29.07-64.91 64.92-64.9 35.84 0 64.89 29.06 64.9 64.9h7.28C144.38 32.31 112.05 0 72.18 0 32.32 0 0 32.32 0 72.18h7.28Z"/><path fill="#3AA5ED" d="M31.94 72.18c0-22.23 18.02-40.25 40.25-40.25s40.25 18.02 40.25 40.25h10.91c0-28.26-22.91-51.18-51.18-51.18S20.99 43.91 20.99 72.18h10.95Z"/><path fill="#3AA5ED" d="M72.19 44.18c-15.46 0-28 12.54-28 28h56c0-15.46-12.54-28-28-28Z"/></g><defs><clipPath id="a"><path fill="#fff" d="M0 0h398v98H0z"/></clipPath></defs></svg>